<?xml version="1.0" encoding="utf-8"?>
<!-- Generator: Adobe Illustrator 22.1.0, SVG Export Plug-In . SVG Version: 6.00 Build 0)  -->
<svg version="1.1" id="Layer_1" xmlns="http://www.w3.org/2000/svg" xmlns:xlink="http://www.w3.org/1999/xlink" x="0px" y="0px"
	 viewBox="0 0 194 96" style="enable-background:new 0 0 194 96;" xml:space="preserve">
<style type="text/css">
	.st0{fill:#FFFFFF;}
</style>
<g>
	<path class="st0" d="M151.1,1.5c-0.1-0.2,0.6-0.5,1.7-0.8h6.3C154.8,1.6,151.3,2,151.1,1.5z"/>
	<path class="st0" d="M192.9,3.2c-0.1-0.2-0.2-0.3-0.3-0.5c-0.2-0.3-0.4-0.7-0.6-1c-0.2-0.4-0.5-0.7-0.7-1h2.1v3.6
		c-0.1-0.2-0.2-0.4-0.3-0.6C193.1,3.5,193,3.3,192.9,3.2z"/>
	<path class="st0" d="M40.8,28.9c0,0.6,5.2,1.1,10.8,0.8c3.2-0.1,6.5-0.5,8.9-0.9c-1.1,0.5-2.4,1-3.7,1.5c-3.3,1.3-6.4,2.3-6.3,2.9
		c0.2,0.6,3.6-0.1,6.9-1.3c1.2-0.4,2.5-0.9,3.6-1.4c-0.8,0.5-1.7,1.1-2.6,1.6c-1.8,1-3.6,1.9-4.9,2.7c-1.3,0.7-2.2,1.2-2.1,1.5
		c0.1,0.3,1.2,0.2,2.6-0.3c1.5-0.5,3.4-1.3,5.3-2.3c0.1-0.1,0.2-0.1,0.3-0.2c-0.5,0.4-0.8,0.7-0.7,0.9c0.1,0.3,0.9,0.2,2-0.2
		c1.1-0.4,2.5-1.1,3.8-2c0.5-0.3,0.9-0.6,1.4-1c-0.3,0.3-0.7,0.6-1,0.9c-1.4,1.1-2.8,2.1-3.8,2.9c-1,0.8-1.7,1.3-1.6,1.6
		c0.2,0.3,1,0.1,2.3-0.5c1.2-0.6,2.8-1.5,4.2-2.6c1.5-1.1,2.9-2.4,3.9-3.6c0.1-0.1,0.2-0.2,0.3-0.4c-0.6,0.8-1.2,1.7-1.9,2.6
		c-0.7,0.9-1.5,1.8-2.4,2.7c-1.7,1.7-3.5,3.2-4.8,4.3c-1.4,1.1-2.3,1.8-2.1,2.1c0.2,0.2,1.1,0,2.4-0.7c0,0,0,0.1,0,0.1
		c0.2,0.3,1.3-0.2,3-1.1c1.6-0.9,3.7-2.3,5.6-4c1-0.8,1.9-1.7,2.8-2.6c0.9-0.9,1.6-1.8,2.3-2.7c1.3-1.7,2.2-3.1,2.6-3.6
		c0-0.1,0-0.2,0-0.3c0.6-0.1,1.1-0.2,1.7-0.3c-0.5,0.8-1.2,1.9-2.1,3c-0.8,1.1-1.8,2.2-2.8,3.3c-1.1,1.1-2.2,2.3-3.4,3.3
		c-2.4,2.1-5,3.8-7.1,4.9c-2,1.1-3.4,1.8-3.3,2.1c0.1,0.2,0.5,0.1,1.2,0c0.3-0.1,0.8-0.2,1.2-0.3c0.2-0.1,0.5-0.2,0.7-0.3
		c0.3-0.1,0.5-0.2,0.8-0.3c2.2-0.9,5.1-2.6,7.6-4.7c1.3-1.1,2.5-2.2,3.6-3.4c1.1-1.2,2.1-2.4,2.9-3.5c1.5-2,2.4-3.7,2.9-4.5
		c0.1,0,0.2,0,0.4-0.1c-0.5,0.7-1.1,1.6-1.8,2.6c-1.3,1.8-2.8,4.1-4.4,6.2c-1.6,2.1-3.2,4.1-4.5,5.6c-1.3,1.5-2.1,2.4-1.9,2.6
		c0.2,0.2,1.4-0.4,2.9-1.7c1.5-1.3,3.3-3.3,4.9-5.4c1.7-2.1,3.2-4.4,4.4-6.3c1.2-1.9,2.2-3.3,2.6-3.8c0-0.1,0-0.1,0-0.2
		c0.8-0.2,1.5-0.3,2.3-0.5c-0.4,0.6-0.8,1.4-1.4,2.3c-1.1,1.7-2.5,3.6-4.1,5.5c-1.5,1.8-3.1,3.5-4.3,4.8c-1.2,1.3-2,2.1-1.8,2.3
		c0.2,0.2,1.3-0.3,2.7-1.4c1.4-1.1,3.1-2.7,4.7-4.6c1.6-1.8,3.1-3.9,4.2-5.6c1.1-1.7,1.8-3.2,2.1-3.7c0,0,0,0,0,0
		c0.1,0,0.2,0,0.3-0.1c-0.3,0.9-0.9,2.4-1.9,4c-0.6,1.1-1.4,2.3-2.3,3.5c-0.9,1.2-1.9,2.4-2.9,3.5c-2.1,2.2-4.4,4.2-6,5.7
		c-1.7,1.5-2.8,2.5-2.6,2.8c0.2,0.3,1.5-0.4,3.4-1.8c1.9-1.3,4.3-3.2,6.5-5.5c1.1-1.1,2.2-2.4,3.1-3.6c0.9-1.2,1.7-2.5,2.4-3.7
		c0.6-1.2,1.1-2.3,1.5-3.2c0.3-0.9,0.6-1.6,0.7-2c0-0.1,0-0.1,0-0.2c0.9-0.2,1.8-0.5,2.8-0.7c-0.5,0.8-1,1.8-1.7,3
		c-1.4,2.3-3.1,5-5,7.5c-1.8,2.5-3.7,4.9-5.2,6.7c-1.4,1.8-2.3,3-2.1,3.2c0.2,0.2,1.5-0.7,3.1-2.3c0.9-0.9,2-2.1,3.1-3.4
		c0.3,0.2,1.5-0.1,3-1c0.6-0.3,1.2-0.8,1.9-1.3c-2.5,3.4-4.4,6.1-4.2,6.3c1.4,1.1,15.5-18.1,17.1-21.5c1.4-0.5,2.8-0.9,4.2-1.4
		c-1.7,2-4.2,5.1-6.6,8.1c-3.6,4.5-7,8.7-6.5,9.1c0.5,0.4,4.2-3.6,7.9-8c3.5-4.1,6.9-8.6,8-10c-0.2,0.5-0.5,1.1-0.9,1.8
		c-0.5,0.9-1.1,1.8-1.8,2.8c-0.7,1-1.4,1.9-2.2,2.8c-1.6,1.8-3.3,3.5-4.5,4.8c-1.2,1.3-2,2.2-1.8,2.4c0.2,0.2,1.2-0.3,2.7-1.4
		c0,0,0.1-0.1,0.2-0.1c-5,5.2-9.7,9.4-9.4,9.8c0.4,0.5,6.4-4.3,12.1-10.1c-1.6,2.5-3.2,4.7-4.5,6.4c-1.4,1.9-2.4,3.2-2.2,3.4
		c0.2,0.2,1.5-0.8,3.2-2.6c1.7-1.8,3.7-4.4,5.6-7.3c1.3-1.9,2.4-4,3.4-5.9c0.8-1,1.6-1.9,2.3-2.8c1-1.4,1.9-2.7,2.5-3.7
		c0.2-0.3,0.3-0.5,0.4-0.7c0.1-0.2,0.3-0.5,0.4-0.7c0.2-0.4,0.4-0.7,0.5-1c0-0.1,0-0.2,0-0.3c0.3-0.1,0.7-0.3,1-0.4
		c-0.5,0.9-1.1,2.1-1.8,3.3c-0.7,1.2-1.4,2.5-2.3,3.8c-0.9,1.3-1.8,2.7-2.7,4c-1.9,2.7-3.9,5.1-5.4,6.9c-1.5,1.8-2.5,3-2.3,3.2
		c0.2,0.2,1.5-0.7,3.2-2.4c1.7-1.7,3.9-4.1,5.8-6.8c1-1.3,1.9-2.7,2.8-4.1c0.9-1.4,1.6-2.7,2.3-3.9c1.3-2.4,2.2-4.4,2.5-5.1
		c0.5-0.2,0.9-0.4,1.4-0.6c-0.3,0.6-0.6,1.3-1,2c-1,2.1-2.4,4.6-3.8,7c-2.8,4.8-5.9,9.1-5.5,9.5c0.3,0.2,1.3-0.7,2.6-2.3
		c1.3-1.6,2.9-3.8,4.4-6.3c1.5-2.4,2.9-5,3.9-7.2c0.8-1.6,1.3-2.9,1.7-3.8c0.3-0.1,0.5-0.2,0.8-0.3c-0.3,1.1-0.8,2.7-1.5,4.4
		c-0.5,1.4-1.2,2.9-2,4.5c-0.8,1.6-1.6,3.2-2.6,4.7c-1.8,3.1-3.9,5.9-5.6,8c-0.2,0.3-0.4,0.5-0.6,0.8c-1.6,0.2-2.5,0.5-2.4,0.8
		c0.1,0.2,0.6,0.3,1.6,0.3c-0.8,1-1.2,1.6-1,1.7c0.2,0.2,1.1-0.5,2.4-1.7c0.1,0,0.2,0,0.3,0c2,0,4.6,0,7.3,0.1
		c1.4,0.1,2.8,0.2,4.1,0.3c1.4,0.1,2.7,0.3,3.8,0.4c1.5,0.2,2.8,0.4,3.7,0.6c-0.3,0.2-0.6,0.5-1,0.7c-0.2,0.1-0.3,0.2-0.5,0.3
		c-1.2-0.2-3.7-0.6-6.1-0.7c-2.9-0.2-5.6-0.2-5.5,0.4c0,0.6,2.7,1,5.5,1.3c1.4,0.2,2.9,0.3,4.1,0.5c-0.2,0.1-0.3,0.2-0.5,0.3
		c0-0.1-0.1-0.1-0.1-0.1c-0.6,0-2.3-0.1-4.4,0c-1,0-2.2,0.1-3.4,0.2c-1.2,0.1-2.4,0.2-3.6,0.4c-2.4,0.3-4.7,0.7-6.3,1.2
		c-1.6,0.5-2.7,0.9-2.6,1.1c0.1,0.3,1.2,0.2,2.9,0c1.7-0.2,4-0.5,6.3-0.7c1.2-0.1,2.4-0.2,3.6-0.3c1.2-0.1,2.3-0.1,3.3-0.2
		c0.7,0,1.2,0,1.8-0.1c-0.5,0.4-1.1,0.8-1.8,1.3c-1.1,0.1-4.3,0.5-7.3,0.5c-3.3,0.1-6.4,0-6.4,0.5c0,0.6,3.2,1.1,6.5,1.1
		c1.5,0,3-0.1,4.3-0.2c-1.3,0.9-2.8,1.8-4.2,2.7c-4.6,2.9-9.2,5.3-9,5.8c0.3,0.6,5.1-1.5,9.9-4.3c2.8-1.6,5.5-3.5,7.5-5
		c-0.8,1-1.7,2-2.6,3.1c-2.3,2.7-4.6,5.1-4.2,5.5c0.5,0.5,3.1-1.7,5.5-4.4c0.9-1,1.8-2,2.5-2.9c-0.5,0.9-1,1.8-1.6,2.6
		c-1.1,1.8-2.3,3.4-3.1,4.7c-0.8,1.2-1.4,2.1-1.1,2.3c0.3,0.2,1.1-0.4,2.2-1.5c1.1-1.1,2.4-2.7,3.6-4.5c0.1-0.1,0.1-0.2,0.2-0.3
		c-0.3,0.6-0.4,1-0.2,1.1c0.3,0.2,0.9-0.3,1.7-1.1c0.8-0.9,1.6-2.1,2.4-3.5c0.3-0.5,0.5-1,0.8-1.5c-0.2,0.4-0.3,0.8-0.5,1.3
		c-0.7,1.6-1.5,3.2-2,4.4c-0.6,1.2-0.9,2-0.6,2.1c0.3,0.2,1-0.4,1.8-1.5c0.8-1.1,1.7-2.6,2.5-4.3c0.8-1.7,1.4-3.5,1.8-5
		c0-0.2,0.1-0.3,0.1-0.5c-0.1,1-0.3,2-0.5,3.2c-0.2,1.1-0.5,2.3-0.9,3.5c-0.7,2.3-1.6,4.5-2.2,6.1c-0.7,1.6-1.2,2.7-0.9,2.8
		c0.2,0.1,0.9-0.5,1.8-1.8c0,0,0,0.1,0.1,0.1c0.3,0.2,1.1-0.8,2.1-2.3c1-1.6,2.2-3.8,3.1-6.2c0.5-1.2,0.9-2.4,1.2-3.6
		c0.3-1.2,0.6-2.4,0.8-3.4c0.4-2.1,0.5-3.8,0.6-4.4c0-0.1-0.1-0.1-0.1-0.2c0.5-0.3,0.9-0.7,1.4-1.1c-0.1,1-0.2,2.2-0.5,3.6
		c-0.2,1.3-0.5,2.8-0.9,4.3c-0.4,1.5-0.9,3-1.5,4.5c-1.1,3-2.7,5.7-3.9,7.6c-1.3,2-2.2,3.2-2,3.4c0.1,0.1,0.5-0.1,1-0.6
		c0.3-0.2,0.6-0.5,0.9-0.9c0.2-0.2,0.4-0.4,0.5-0.6c0.2-0.2,0.4-0.4,0.6-0.7c1.5-1.9,3.3-4.7,4.5-7.7c0.6-1.5,1.1-3.1,1.6-4.7
		c0.4-1.6,0.7-3.1,0.9-4.4c0.4-2.4,0.4-4.4,0.5-5.3c0.1-0.1,0.2-0.1,0.3-0.2c-0.1,0.8-0.2,1.9-0.4,3.1c-0.3,2.2-0.6,5-1,7.6
		c-0.4,2.6-0.9,5.2-1.3,7c-0.4,1.9-0.7,3.1-0.4,3.2c0.3,0.1,1-1,1.7-2.9c0.7-1.8,1.4-4.4,1.8-7.1c0.5-2.7,0.7-5.4,1-7.6
		c0.2-2.2,0.4-3.9,0.5-4.6c0-0.1,0-0.1-0.1-0.2c0.6-0.5,1.2-1,1.8-1.5c0,0.7-0.1,1.6-0.2,2.7c-0.2,2-0.5,4.4-1,6.7
		c-0.5,2.3-1.1,4.6-1.5,6.2c-0.5,1.7-0.7,2.8-0.5,2.9c0.3,0.1,1-0.8,1.7-2.5c0.4-0.9,0.8-1.9,1.1-3c0.2,0,0.3,0,0.6,0
		c-0.7,2.4-1.5,4.5-2.2,6.3c-0.8,2.1-1.3,3.5-1,3.6c0.2,0.1,0.9-0.7,1.7-2.1c0.6,0,1.5-0.2,2.7-0.4c1.9-0.4,4.5-0.9,7.3-1.3
		c1.4-0.2,2.8-0.4,4.1-0.6c1.3-0.1,2.6-0.3,3.8-0.4c1.2-0.1,2.2-0.1,3-0.2c-0.3,0.5-0.6,1-1,1.6c0,0,0,0,0,0c-0.3,0-1,0-1.8,0
		c-0.8,0-1.8,0.1-2.9,0.3c-2.2,0.3-4.8,0.7-7.3,1.1c-5,0.9-9.6,2-9.4,2.6c0.2,0.5,2.8,0.2,6.2-0.3c0,0,0,0,0,0.1
		c0.2,0.6,3.3,0,6.7-0.6c2.9-0.5,5.9-1.1,7.3-1.3c-0.3,0.5-0.6,0.9-0.9,1.4c-2.2,0.4-8.1,1.6-13.5,2.8c-3,0.7-5.9,1.5-7.9,2.1
		c-2.1,0.7-3.3,1.2-3.2,1.5c0.1,0.3,1.6,0.1,3.7-0.3c2.1-0.4,5-1,8-1.6c4.3-0.9,8.8-1.9,11.6-2.5c-0.2,0.4-0.5,0.7-0.7,1.1
		c-0.8,0.1-2.6,0.3-4.9,0.7c-1.2,0.2-2.5,0.5-3.9,0.9c-1.4,0.4-2.7,0.8-4.1,1.4c-2.7,1-5,2.3-6.6,3.5c-0.2,0.1-0.4,0.3-0.6,0.4
		c-0.2,0.1-0.3,0.3-0.5,0.4c-0.3,0.2-0.5,0.5-0.7,0.7c-0.2,0.3-0.4,0.4-0.4,0.6c-1.1,0.4-2.1,0.8-2.9,1.2c-1.9,0.9-3,1.6-2.8,1.9
		c0.2,0.3,1.5-0.1,3.5-0.7c2-0.6,4.6-1.5,7.4-2.2c1.4-0.4,2.9-0.7,4.2-1.1c1.4-0.3,2.8-0.6,4-0.8c1.6-0.3,3-0.5,4-0.6
		c-0.3,0.3-0.5,0.7-0.7,1c-0.1,0.2-0.2,0.3-0.4,0.5c-1.3,0.2-3.9,0.6-6.4,1.2c-3,0.7-5.7,1.6-5.5,2.1c0.2,0.6,3,0.1,6-0.4
		c1.5-0.3,3.1-0.6,4.3-0.9c-0.1,0.2-0.3,0.3-0.4,0.5c-0.1,0-0.1-0.1-0.2,0c-0.6,0.2-2.3,0.7-4.4,1.4c-1.1,0.4-2.2,0.8-3.4,1.2
		c-1.2,0.5-2.4,1-3.6,1.5c-2.3,1.1-4.5,2.3-6,3.2c-1.5,1-2.4,1.7-2.2,2c0.2,0.3,1.3-0.2,3-0.9c1.7-0.7,3.8-1.8,6.2-2.8
		c1.2-0.5,2.3-1,3.5-1.5c1.2-0.4,2.3-0.9,3.3-1.2c0.6-0.2,1.2-0.4,1.8-0.6c-0.4,0.5-0.9,1.2-1.4,1.9c-1.1,0.5-4.2,1.9-7.2,2.9
		c-3.3,1.2-6.4,2-6.3,2.6c0.2,0.6,3.5,0.1,7-0.9c1.5-0.5,3-1,4.3-1.6c-1.1,1.3-2.2,2.7-3.4,4.1c-3.8,4.4-7.6,8.3-7.2,8.7
		c0.4,0.5,4.7-3.1,8.6-7.5c2.3-2.5,4.4-5.3,5.9-7.4c-0.5,1.2-1,2.6-1.6,3.9c-1.5,3.4-3,6.6-2.5,6.9c0.6,0.3,2.6-2.7,4.2-6.2
		c0.6-1.3,1.1-2.6,1.6-3.8c-0.2,1-0.5,2.1-0.8,3.2c-0.6,2.1-1.2,4.2-1.7,5.7c-0.5,1.5-0.7,2.6-0.4,2.7c0.3,0.1,1-0.8,1.7-2.2
		c0.7-1.5,1.6-3.5,2.2-5.7c0-0.1,0.1-0.3,0.1-0.4c-0.1,0.7-0.1,1.1,0.2,1.2c0.3,0.1,0.8-0.6,1.3-1.7c0.5-1.1,1-2.7,1.3-4.3
		c0.1-0.6,0.2-1.2,0.3-1.7c0,0.5-0.1,1-0.1,1.4c-0.2,1.9-0.5,3.7-0.7,5.1c-0.2,1.4-0.3,2.3,0,2.4c0.3,0.1,0.8-0.7,1.3-2.1
		c0.5-1.3,0.9-3.2,1.2-5.2c0.3-1.9,0.3-4,0.2-5.6c0-0.2,0-0.3,0-0.5c0.2,1,0.4,2.2,0.5,3.3c0.1,1.2,0.2,2.5,0.2,3.8
		c0.1,2.5-0.1,5-0.3,6.9c-0.2,1.8-0.3,3.1,0,3.1c0.3,0.1,0.8-0.8,1.2-2.4c0,0,0.1,0.1,0.1,0.1c0.3,0.1,0.9-1.1,1.4-3
		c0.5-1.9,1-4.5,1.1-7.2c0.1-1.4,0.1-2.7,0.1-4.1c-0.1-1.3-0.1-2.6-0.3-3.7c-0.3-2.3-0.7-4-0.8-4.6c0-0.1-0.1-0.1-0.2-0.2
		c0.3-0.5,0.7-1,1.1-1.5c0.2,1,0.5,2.3,0.7,3.8c0.2,1.4,0.3,3,0.4,4.6c0.1,1.6,0.1,3.3-0.1,5c-0.2,3.4-0.9,6.6-1.5,9
		c-0.7,2.4-1.2,3.9-0.9,4c0.2,0.1,0.5-0.3,0.9-0.9c0.2-0.3,0.4-0.7,0.7-1.2c0.1-0.2,0.2-0.5,0.4-0.8c0.1-0.3,0.2-0.5,0.4-0.8
		c1-2.4,1.8-5.7,2.1-9.2c0.2-1.7,0.2-3.5,0.1-5.2c-0.1-1.7-0.3-3.3-0.5-4.8c-0.4-2.6-1-4.6-1.2-5.5c0.1-0.1,0.1-0.2,0.2-0.3
		c0.2,0.9,0.4,2,0.6,3.3c0.4,2.3,1,5.2,1.4,8c0.4,2.8,0.7,5.5,0.9,7.5c0.2,2,0.3,3.4,0.6,3.4c0.3,0,0.7-1.3,0.8-3.4
		c0.1-2.1,0-4.9-0.4-7.7c-0.4-2.8-1-5.7-1.5-8c-0.5-2.3-0.9-4.1-1-4.8c0-0.1-0.1-0.1-0.2-0.2c0.5-0.7,0.9-1.4,1.4-2.1
		c0.2,0.7,0.4,1.7,0.7,2.7c0.5,2.1,0.9,4.6,1.1,7.1c0.3,2.5,0.4,5,0.4,6.8c0.1,1.8,0.1,3,0.5,3.1c0.3,0,0.7-1.2,0.9-3
		c0.2-1.9,0.3-4.4,0-7c-0.2-2.6-0.6-5.2-1.2-7.3c-0.5-2.1-1.1-3.7-1.3-4.3c0,0,0,0,0,0c0.1-0.1,0.1-0.2,0.2-0.3
		c0.4,1,1.1,2.5,1.6,4.4c0.4,1.3,0.7,2.8,0.9,4.3c0.2,1.6,0.4,3.2,0.4,4.8c0.1,3.2,0,6.4-0.2,8.8c-0.1,2.4-0.1,4,0.2,4
		c0.3,0,0.8-1.5,1.2-3.9c0.4-2.4,0.7-5.6,0.7-9c0-1.7-0.2-3.4-0.4-5c-0.3-1.6-0.6-3.2-1-4.5c-0.4-1.4-0.9-2.5-1.3-3.5
		c-0.4-0.9-0.8-1.6-1-2c0-0.1-0.1-0.1-0.2-0.1c0.5-0.9,1-1.7,1.5-2.6c0.3,1,0.6,2.2,1,3.5c0.7,2.7,1.4,6,2,9.3
		c0.5,3.2,0.9,6.4,1.2,8.9c0.3,2.4,0.5,4,0.8,4c0.3,0,0.6-1.6,0.6-4.1c0-1.4-0.1-3.1-0.3-4.9c0.3-0.1,1-1.2,1.4-3
		c0.2-0.7,0.3-1.5,0.4-2.4c0.7,4.4,1.3,7.8,1.6,7.8c1.9-0.3-2.2-25.1-3.6-28.9c0.7-1.4,1.4-2.8,2.1-4.2c0.3,2.8,0.7,6.9,1.2,11
		c0.7,6,1.4,11.8,2,11.7c0.7-0.1,0.4-5.8-0.2-11.9c-0.5-5.7-1.3-11.6-1.6-13.5c0.2,0.6,0.5,1.3,0.7,2c0.3,1,0.6,2.2,0.8,3.4
		c0.2,1.2,0.4,2.5,0.5,3.8c0.2,2.6,0.2,5.1,0.2,6.9c0,1.9,0.1,3.1,0.4,3.1c0.3,0,0.7-1.2,0.9-3.1c0-0.1,0-0.1,0-0.2
		c0.2,7.6-0.1,14.3,0.5,14.4c0.7,0,1.5-8.1,1.3-16.7c0.7,3,1.2,5.9,1.5,8.2c0.4,2.5,0.6,4.2,0.9,4.2c0.3,0,0.5-1.7,0.4-4.3
		c-0.1-2.6-0.6-6.1-1.4-9.6c-0.5-2.4-1.2-4.8-1.9-7c-0.1-1.4-0.3-2.7-0.4-3.9c-0.3-1.8-0.6-3.4-0.9-4.7c-0.1-0.3-0.2-0.6-0.2-0.9
		c-0.1-0.3-0.2-0.5-0.2-0.8c-0.1-0.5-0.3-0.8-0.3-1.1c0-0.1-0.1-0.2-0.2-0.2c0.2-0.4,0.3-0.7,0.4-1c0.3,1,0.8,2.3,1.2,3.8
		c0.4,1.4,0.8,2.9,1.2,4.6c0.4,1.6,0.7,3.3,1,5c0.6,3.4,1,6.7,1.2,9.2c0.3,2.5,0.4,4.1,0.7,4.1c0.3,0,0.6-1.7,0.6-4.2
		c0-2.5-0.2-6-0.8-9.4c-0.3-1.7-0.6-3.5-1-5.2c-0.4-1.7-0.8-3.3-1.3-4.7c-0.3-0.9-0.6-1.8-0.8-2.6c0.2-0.4,0.3-0.9,0.5-1.5
		c0.7,2.2,1.5,4.7,2.2,7.3c1.6,5.7,2.5,11.3,3.1,11.2c0.3,0,0.4-1.5,0.2-3.6c-0.2-2.2-0.7-5-1.5-8c-0.7-2.9-1.7-5.9-2.5-8.2
		c-0.2-0.6-0.4-1.2-0.6-1.7c0-0.2,0.1-0.4,0.1-0.6c0.1-0.3,0.1-0.6,0.2-0.9c0.4,0.8,0.8,1.7,1.3,2.7c0.7,1.5,1.3,3.1,1.9,4.8
		c0.6,1.8,1.2,3.6,1.7,5.4c0.8,3.1,1.3,6.2,1.7,8.8v-9.6c-0.4-1.8-1-3.6-1.6-5.2c-0.7-1.8-1.3-3.5-2-5c-1-2.1-1.9-3.8-2.5-4.9
		c0.1-0.6,0.1-1.2,0.2-1.8c0-0.4,0-0.7,0.1-1.1c0-0.1,0.1-0.2,0.1-0.3c0.3,0.7,0.7,1.6,1.1,2.5c0.9,2.2,2,5,2.9,7.7
		c0.7,2,1.3,4.1,1.8,5.8v-6.1c0-0.1,0-0.1-0.1-0.2c-0.9-2.8-2-5.6-3-7.8c-0.8-1.8-1.6-3.3-2-4.1c0.1-0.4,0.3-0.7,0.4-1.1
		c0.4,0.7,1,1.7,1.6,2.9c0.9,1.9,1.9,4.3,2.7,6.7c0.1,0.4,0.2,0.8,0.3,1.2V6.1C193,5,192.5,4,192,3.1c-0.5-0.9-0.9-1.7-1.3-2.4h-5.5
		c-0.2,0.1-0.5,0.2-0.7,0.3c0-0.1,0-0.2,0-0.3h-5.7c-0.2,0.1-0.4,0.2-0.5,0.2c0-0.1,0-0.2,0-0.2h-1.7c0,0.4,0,0.7,0.1,1.1
		c-0.3,0.2-0.7,0.4-1,0.6c-0.1-0.4-0.1-0.9-0.2-1.3c0.2-0.1,0.4-0.2,0.6-0.3c0.1-0.1,0.2-0.1,0.3-0.2h-12.3c-1,0.1-2.1,0.3-3.2,0.4
		c-1.5,0.2-3,0.5-4.4,0.7c-3,0.4-5.8,0.7-7.9,0.7c-1,0-1.8,0-2.6,0c-0.6,0-1,0.1-1,0.2c0,0.1,0.3,0.3,1,0.5c0.3,0.1,0.7,0.2,1.1,0.3
		c0.4,0.1,1,0.2,1.5,0.2c2.2,0.2,5.2,0.1,8.2-0.3c1.5-0.2,3-0.4,4.5-0.6c1.5-0.2,2.8-0.4,4.1-0.6c0.4-0.1,0.9-0.1,1.3-0.1
		c-0.1,0.1-0.3,0.2-0.4,0.3c-0.9,0.7-1.5,1.3-2.1,1.8c-0.6,0-1.2-0.1-1.9-0.1c-1.1,0-2.2,0-3.4,0c-1.2,0-2.5,0-3.7,0.1
		c-2.5,0.1-4.8,0.3-6.5,0.5c-1.7,0.3-2.8,0.5-2.7,0.8c0.1,0.3,1.2,0.4,3,0.4c1.7,0,4.1,0,6.5-0.1c2.4,0,4.9,0,7,0
		c1.3,0,2.4,0,3.2,0.1c0,0,0,0,0,0c0,0,0,0-0.1,0c-0.5,0-1.9,0.1-3.7,0.2c-1.8,0.1-4,0.1-6.1,0.2c-2.1,0.1-4.2,0.2-5.7,0.4
		c-1.5,0.2-2.4,0.5-2.4,0.7c0.1,0.3,1.1,0.4,2.6,0.5c1.5,0.1,3.5,0.1,5.6,0.1c2.1,0,4.3-0.1,6.1-0.2c0.7,0,1.4-0.1,2-0.1
		c-0.2,0.2-0.3,0.4-0.5,0.5c-0.1-0.1-0.1-0.1-0.2-0.1c-0.8,0-2.9,0-5.6,0.1c-1.3,0-2.8,0.1-4.4,0.1c-1.5,0.1-3.1,0.1-4.7,0.2
		c-3.3,0.2-6.4,0.4-8.6,0.7c0.4-2,0.6-3.7,0.6-4.7c1.8-0.9,3.2-1.6,4-2.1c0.7-0.4,1.1-1,1-1.5c-0.1-0.2-0.3-0.3-0.6-0.3h-0.1
		c-0.3,0-0.6,0.1-1,0.2c-0.8,0.4-2.1,1.1-3.7,1.9c-0.7-0.4-2.3-1.2-4.3-2.1h-4.6c0.9,0.3,1.7,0.7,2.5,1c1.8,0.8,3.3,1.5,4.4,2
		c-0.6,0.3-1.3,0.6-2,1c-0.9-0.6-2.5-1.5-4.4-2.5c-1-0.5-2-1-3.1-1.5H124c0.3,0.1,0.5,0.2,0.8,0.3c0.7,0.3,1.5,0.6,2.2,0.9
		c1.4,0.6,2.8,1.3,4,1.9c1.3,0.7,2.4,1.3,3.3,1.8c-0.6,0.3-1.1,0.5-1.7,0.8c0-0.1,0-0.2-0.1-0.3c-0.3-0.2-0.9-0.6-1.7-1.1
		c-0.8-0.5-1.8-1.1-2.9-1.6c-1.2-0.6-2.5-1.1-3.8-1.6c-1.2-0.4-2.4-0.8-3.7-1.1h-7.2c1.8,0.4,4.1,0.9,6.3,1.6
		c1.4,0.4,2.8,0.8,4.1,1.3c1.3,0.5,2.6,1,3.7,1.5c1.1,0.5,2,1,2.8,1.5c0.4,0.3,0.7,0.5,1,0.7c-0.1,0-0.2,0.1-0.3,0.1
		c0-0.1-0.1-0.1-0.1-0.1c-0.8-0.4-2.9-1.4-5.7-2.4c-1.4-0.5-2.9-1.1-4.6-1.6c-0.8-0.2-1.6-0.5-2.5-0.7c-0.4-0.1-0.8-0.2-1.3-0.3
		c-0.4-0.1-0.8-0.2-1.3-0.3c-2.2-0.5-4.5-0.9-6.4-1.1h-6.3c-0.2,0.1-0.2,0.1-0.2,0.2c0,0.3,1.6,0.5,3.9,0.9c1.3,0.2,2.9,0.5,4.6,0.8
		c-0.2,0-0.5,0-0.7-0.1c-1.8-0.1-3,0-3,0.2c0,0.3,1.2,0.6,2.9,1.1c1.8,0.4,4.2,1,6.6,1.7c1.2,0.4,2.5,0.8,3.6,1.2
		c1.2,0.4,2.3,0.9,3.3,1.3c0.9,0.4,1.7,0.8,2.4,1.1c-0.7-0.3-2.4-0.8-4.7-1.4c-2.3-0.6-5-1.3-7.7-2c-5.3-1.3-10.2-2.5-10.3-2
		c-0.1,0.6,4.7,2.3,9.9,3.7c2.6,0.7,5.4,1.4,7.6,2c1.1,0.3,2.1,0.6,2.9,0.8c-0.5,0.2-1.1,0.5-1.6,0.7c0,0-0.1,0-0.1,0
		c-0.4,0.2-0.8,0.3-1.3,0.5c-0.7-0.4-2.5-1.3-4.9-2.2c-1.2-0.5-2.6-1-3.9-1.5c-1.4-0.5-2.8-1-4.2-1.5c-2.8-1-5.4-2.1-7.3-3.1
		c-0.9-0.4-1.6-0.8-2.3-1.2c-0.6-0.3-0.9-0.4-1-0.3c-0.1,0.1,0.2,0.4,0.6,0.9c0.2,0.2,0.5,0.5,0.9,0.8c0.4,0.3,0.8,0.6,1.2,0.9
		c1.9,1.2,4.5,2.5,7.4,3.6c1.4,0.5,2.8,1.1,4.2,1.5c1.4,0.5,2.7,1,3.9,1.4c1.3,0.5,2.5,1,3.3,1.4c-1,0.4-2.1,0.8-3.1,1.3
		c0-0.1,0-0.1-0.1-0.2c-0.5-0.3-1.9-1.2-3.8-2.2c-0.9-0.5-1.9-1.1-3-1.6c-1.1-0.6-2.2-1.1-3.3-1.7c-2.2-1.1-4.4-2-6-2.6
		c-1.6-0.6-2.7-0.8-2.8-0.6c-0.1,0.3,0.9,0.9,2.4,1.8c1.5,0.8,3.6,1.9,5.8,3c2.2,1.1,4.4,2.3,6.2,3.3c1.1,0.6,2.1,1.2,2.8,1.6
		c0,0,0,0,0,0c0,0,0,0,0-0.1c-0.5-0.2-1.7-0.8-3.3-1.5c-1.6-0.8-3.6-1.7-5.5-2.7c-1.9-0.9-3.8-1.8-5.2-2.3c-1.4-0.5-2.4-0.7-2.5-0.5
		c-0.1,0.3,0.7,0.9,2,1.6c1.3,0.8,3.1,1.7,4.9,2.7c1.9,1,3.8,2,5.5,2.7c0.7,0.3,1.3,0.6,1.8,0.8c-0.2,0.1-0.5,0.2-0.7,0.2
		c0-0.1-0.1-0.2-0.1-0.2c-0.7-0.4-2.6-1.3-4.9-2.6c-1.2-0.6-2.5-1.3-3.9-2c-1.4-0.7-2.8-1.4-4.2-2c-5.7-2.6-11-4.8-11.1-4.3
		c-0.2,0.6,5,3.2,10.6,5.9c4.6,2.2,9.5,4.7,11.8,5.9c-0.6,0.2-1.3,0.4-1.9,0.7c0,0,0-0.1-0.1-0.1c-0.5-0.2-1.7-0.8-3.4-1.5
		c-1.6-0.7-3.6-1.4-5.6-2.1c-0.6-0.2-1.2-0.4-1.8-0.5c-1.1-0.7-2.2-1.4-3.3-2.1c-2.3-1.4-4.7-2.4-6.4-3.1c-1.8-0.7-2.9-0.9-3-0.6
		c-0.1,0.3,1,0.9,2.6,1.8c1.4,0.8,3.3,1.8,5.3,2.9c-0.4,0-0.7,0-0.9,0c-0.9-0.4-1.7-0.8-2.4-1.1c-1.4-0.6-2.4-0.8-2.5-0.6
		c-0.1,0.3,0.7,0.9,2,1.7c1.3,0.8,3.1,1.9,4.9,3c1.7,1,3.4,2.1,4.9,3.1c-0.7-0.3-1.5-0.7-2.3-1c-2.6-1.2-5.6-2.8-8.5-4.4
		C83.7,10.6,81,9,78.9,7.7c-2-1.2-3.4-2-3.5-1.8c-0.1,0.3,1,1.4,2.9,2.9c1.9,1.5,4.6,3.3,7.5,5c2.1,1.2,4.2,2.4,6.2,3.3
		c-0.5-0.2-1.1-0.5-1.6-0.7c-2.9-1.2-5.7-2.1-5.9-1.6c-1.8-1.1-3.5-2.2-4.8-2.9c-1.4-0.8-2.4-1.1-2.5-0.9c-0.1,0.3,0.7,1,2,2
		c1.3,1,3.1,2.2,5,3.5c1.9,1.3,3.8,2.7,5.4,3.8c0.6,0.4,1.2,0.9,1.7,1.2c-0.2,0.1-0.5,0.1-0.7,0.2c-0.9-0.8-3-2.7-5.2-4.4
		c-2.5-1.9-4.9-3.3-5.2-2.8c-0.3,0.5,1.9,2.3,4.2,4.2c1.6,1.3,3.2,2.6,4.2,3.5c-0.5,0.1-0.9,0.2-1.4,0.3c-0.6-0.6-1.7-1.6-2.9-2.8
		c-0.8-0.8-1.8-1.6-2.8-2.4c-1-0.8-2.1-1.7-3.2-2.4c-2.2-1.6-4.4-2.9-6-3.7c-1.7-0.9-2.8-1.3-2.9-1c-0.1,0.3,0.9,1,2.4,2.1
		c1.5,1.1,3.6,2.5,5.7,4.1c1,0.8,2.1,1.6,3.1,2.4c1,0.8,1.9,1.6,2.8,2.3c0.8,0.7,1.5,1.4,2.1,1.9c-0.6,0.1-1.1,0.3-1.7,0.4
		c0,0,0,0,0,0c-0.2-0.2-0.6-0.6-1.2-1.2c-0.6-0.5-1.3-1.1-2.1-1.7c-1.6-1.3-3.6-2.8-5.6-4.2c-3.9-2.8-7.7-5.1-7.9-4.6
		c-0.2,0.4,1.7,2,4.3,4c0,0,0,0,0,0c-0.3,0.6,2.2,2.3,4.8,4.1c2.3,1.6,4.7,3.3,5.7,4c-0.5,0.1-1,0.2-1.5,0.3
		c-1.8-1.2-6.4-4.4-10.8-7.2c-2.5-1.6-4.9-3-6.7-3.9c-1.8-1-3-1.4-3.1-1.2c-0.1,0.3,1,1.1,2.7,2.3c1.7,1.2,4,2.7,6.4,4.3
		c3.5,2.3,7.1,4.7,9.4,6.2c-0.4,0.1-0.8,0.2-1.2,0.2c-0.6-0.5-1.9-1.6-3.7-2.9c-1-0.7-2-1.3-3.2-2c-1.2-0.7-2.4-1.3-3.6-1.8
		c-2.4-1.1-4.9-1.8-6.7-2.2c-0.2,0-0.4-0.1-0.7-0.1c-0.2,0-0.4,0-0.6-0.1c-0.4,0-0.7,0-1,0c-0.3,0-0.5,0-0.7,0.1
		c-1-0.5-1.9-0.8-2.7-1.2c-1.8-0.7-3.1-0.9-3.1-0.7c-0.1,0.3,1,1,2.8,1.9c1.7,0.9,4.1,2.1,6.4,3.5c1.2,0.7,2.4,1.4,3.5,2.2
		c1.1,0.7,2.2,1.5,3.2,2.2c1.3,0.9,2.3,1.7,3,2.3c-0.4,0.1-0.8,0.1-1.2,0.2c-0.2,0-0.4,0.1-0.6,0.1c-1-0.7-3-2.2-5-3.5
		c-2.4-1.6-4.8-2.8-5.1-2.3c-0.3,0.5,1.9,2.1,4.2,3.7c1.2,0.8,2.4,1.7,3.4,2.3c-0.2,0-0.4,0-0.6,0.1c0-0.1,0-0.1-0.1-0.2
		c-0.5-0.3-2-1.1-3.8-2.1c-0.9-0.5-2-1-3.1-1.5c-1.1-0.5-2.2-1-3.4-1.4c-2.3-0.9-4.5-1.5-6.2-1.9c-1.7-0.4-2.8-0.5-2.8-0.2
		c0,0.3,1,0.8,2.6,1.4c1.6,0.6,3.7,1.4,5.9,2.3c1.1,0.4,2.2,0.9,3.3,1.4c1.1,0.5,2.1,0.9,3,1.4c0.6,0.3,1.1,0.5,1.6,0.8
		c-0.6,0.1-1.4,0.2-2.2,0.3c-1.1-0.4-4-1.6-6.7-3c-3-1.4-5.6-3-5.9-2.5c-0.3,0.5,2.2,2.5,5.2,4.1c1.3,0.7,2.7,1.3,3.9,1.8
		c-1.6,0.2-3.3,0.3-5,0.4C46,28.3,40.8,28.3,40.8,28.9z M185.3,4.9c0,0,0.1,0,0.1,0c0,0,0,0,0,0C185.4,4.9,185.3,4.9,185.3,4.9z
		 M184.7,3.2c0-0.1,0-0.2,0-0.3c0.4-0.2,0.8-0.3,1.2-0.5c0,0.1,0,0.2,0,0.2c0,0.1,0,0.1,0,0.2C185.5,2.9,185.1,3,184.7,3.2z
		 M185.2,4.9c-0.1,0.1-0.3,0.2-0.5,0.3c0,0,0-0.1,0-0.1C184.9,5,185.1,5,185.2,4.9z M184.1,13.4c0.2-0.5,0.4-1,0.6-1.5
		c0.1,0.3,0.2,0.6,0.3,0.9c0,0.2-0.1,0.4-0.1,0.5c-0.1,0.5-0.2,1-0.3,1.5C184.4,14.2,184.2,13.7,184.1,13.4z M153.8,64.9
		C153.8,64.9,153.8,64.9,153.8,64.9C153.8,65,153.8,65,153.8,64.9C153.8,64.9,153.8,64.9,153.8,64.9z M155.7,63
		C155.7,63.1,155.7,63.1,155.7,63C155.7,63.1,155.6,63.1,155.7,63C155.6,63.1,155.7,63.1,155.7,63z M159.2,55.6
		c-0.7,0.9-1.3,1.8-1.9,2.7c-0.1-0.1-0.2-0.2-0.3-0.1c-0.8,0.1-2.8,0.3-5.3,0.7c-1.3,0.2-2.7,0.5-4.1,0.8c-1.4,0.3-2.9,0.7-4.4,1.1
		c-0.5,0.1-1,0.3-1.4,0.4c1.7-0.9,4-2,6.6-2.9c1.3-0.5,2.6-0.9,3.9-1.3c1.3-0.3,2.6-0.7,3.7-0.9C157.2,55.9,158.3,55.8,159.2,55.6z
		 M161.6,65.2c-0.2-1.3-0.3-2.5-0.6-3.5c-0.4-2.1-1-3.6-1.2-4.3c0.4-0.5,0.7-1,1.1-1.5c0.1,0.8,0.3,1.9,0.4,3.2
		c0.1,1.1,0.2,2.3,0.2,3.6C161.6,63.4,161.6,64.3,161.6,65.2z M128.3,40.8C128.3,40.9,128.3,40.9,128.3,40.8
		C128.3,40.9,128.2,40.9,128.3,40.8C128.3,40.9,128.3,40.8,128.3,40.8z M130.5,39.7C130.5,39.7,130.5,39.7,130.5,39.7
		C130.5,39.7,130.4,39.7,130.5,39.7C130.5,39.7,130.5,39.7,130.5,39.7z M128.7,8.2c-0.2,0.1-0.3,0.2-0.5,0.2c-0.7-0.4-2.1-1.2-3.9-2
		c-0.2-0.1-0.3-0.1-0.5-0.2c0.2,0.1,0.3,0.1,0.5,0.2C126.2,7.1,127.7,7.7,128.7,8.2z M126.3,9.3C126.3,9.3,126.3,9.3,126.3,9.3
		c-0.1,0-0.1,0-0.1-0.1C126.2,9.2,126.2,9.3,126.3,9.3z M131.1,9c-0.2,0.7-0.5,1.8-0.9,3c-0.5,1.3-1.1,2.9-1.8,4.4
		c-0.5,0-0.8,0-1,0.1c0.5-1,0.9-2,1.2-2.9c0.7-1.8,1.2-3.2,1.5-4.1C130.5,9.3,130.8,9.2,131.1,9z M131.6,24.6
		c-0.3,0.5-0.6,0.9-0.9,1.4c-0.4-0.1-0.8-0.1-1.2-0.1c0.3-0.4,0.6-0.9,1-1.4C130.8,24.5,131.2,24.5,131.6,24.6z M131.3,23
		c0.4-0.7,0.8-1.4,1.1-2.2c0.3,0.1,0.7,0.2,1.2,0.2c0,0,0,0,0,0c-0.1,0.2-0.2,0.4-0.3,0.7c-0.1,0.2-0.2,0.4-0.4,0.6
		c-0.1,0.3-0.3,0.5-0.4,0.8C132.1,23,131.7,23,131.3,23z M129.5,19.6c-0.1,0.2-0.2,0.4-0.3,0.6c-0.1,0.2-0.3,0.4-0.4,0.6
		c-0.3,0.4-0.5,0.8-0.8,1.2c-0.2,0.3-0.4,0.5-0.6,0.8c-0.1,0-0.3,0-0.4,0c-0.2,0-0.3,0-0.4,0c0.8-1.1,1.7-2.4,2.4-3.7
		c0.3-0.5,0.6-1.1,0.8-1.6c0.2,0,0.5,0.1,0.7,0.1c-0.1,0.3-0.3,0.6-0.4,0.9C129.9,18.8,129.7,19.2,129.5,19.6z M128.6,24.2
		C128.6,24.2,128.6,24.2,128.6,24.2c0.1,0,0.1,0,0.2,0c-0.3,0.5-0.6,1-0.9,1.5c-0.1,0-0.3,0-0.4,0C127.8,25.2,128.2,24.7,128.6,24.2
		z M129.4,27.9c-0.1,0.1-0.1,0.2-0.2,0.3c-0.3,0.4-0.6,0.8-0.8,1.1c-0.4,0-0.8-0.1-1.2-0.1c-0.2,0-0.4,0-0.6,0
		c0.1,0,0.1-0.1,0.2-0.1c0.3-0.3,0.7-0.7,1.1-1.2c0.1-0.1,0.3-0.3,0.4-0.5C128.4,27.6,128.8,27.7,129.4,27.9z M126,28.3
		c-0.2,0.3-0.4,0.5-0.5,0.8c-0.5,0-1-0.1-1.4-0.1c0.8-0.6,1.5-1.4,2.3-2.1c0.2,0,0.4,0.1,0.7,0.1c0,0,0,0.1-0.1,0.1
		C126.6,27.5,126.3,27.9,126,28.3z M125.3,25.5c-0.4,0-0.7,0-1,0c0.3-0.3,0.6-0.6,0.9-1c0.2-0.2,0.4-0.4,0.6-0.7
		c0.2,0,0.5,0.1,0.8,0.1C126.2,24.5,125.7,25,125.3,25.5z M121.8,28.9c-0.7,0-1.3,0-1.9,0c1.2-1.3,3.5-4.5,5.4-8.1
		c0.7-1.4,1.4-2.7,2-4.1c0.1,0.1,0.4,0.2,0.8,0.4c-0.2,0.4-0.4,0.8-0.6,1.2c-0.9,1.8-1.9,3.4-2.8,4.7c-0.4,0.1-0.7,0.2-0.7,0.3
		c0,0.1,0.1,0.2,0.3,0.2c0,0.1-0.1,0.1-0.1,0.2c-0.5,0.7-0.9,1.4-1.1,1.8c-0.3,0-0.5,0.1-0.5,0.2c0,0.1,0.1,0.2,0.3,0.3
		c0,0.1,0,0.2,0,0.3c0.1,0.1,0.2,0,0.5-0.1c0.3,0.1,0.6,0.2,1,0.3C123.5,27.4,122.7,28.2,121.8,28.9z M133.3,8c0,0.1,0,0.3,0,0.4
		c0,0.4-0.1,0.9-0.2,1.4c-0.1,0.5-0.2,1.1-0.3,1.8c-0.1,0.3-0.2,0.7-0.3,1c0,0.2-0.1,0.4-0.1,0.5c-0.1,0.2-0.1,0.4-0.2,0.5
		c-0.1,0.4-0.3,0.7-0.4,1.1c-0.2,0.4-0.3,0.8-0.5,1.2c-0.1,0.1-0.1,0.3-0.2,0.4c-0.3,0-0.5,0-0.8,0c0.6-1.3,1.1-2.7,1.5-3.9
		c0.6-2,1-3.6,1.1-4.1c0-0.1,0-0.1-0.1-0.2C133,8.2,133.1,8.1,133.3,8z M133.6,18c0.5,0.1,0.9,0.1,1.4,0.2c-0.2,0.6-0.5,1.1-0.8,1.6
		c0,0-0.1,0-0.2,0c-0.5,0-0.9,0-1.2,0C133.1,19.3,133.4,18.7,133.6,18z M134.3,15.8c0.2-0.8,0.4-1.5,0.6-2.2
		c0.1,0.2,0.7,0.3,1.7,0.3c-0.2,0.6-0.4,1.1-0.6,1.7c-0.1,0.4-0.3,0.7-0.5,1.1c-0.5,0-1.1-0.1-1.6-0.1
		C134.1,16.4,134.2,16.1,134.3,15.8z M149.7,30.7c0-1.3-0.1-2.5-0.2-3.5c-0.1-1-0.2-1.7-0.3-2.1c0-0.1-0.1-0.1-0.1-0.2
		c0.7-0.6,1.4-1.3,2.1-1.9c0,0.9-0.1,2.1-0.1,3.4c-0.1,2.6-0.4,5.8-0.9,9c-0.2,1.3-0.4,2.5-0.6,3.7c-0.2,0-0.4,0.1-0.6,0.1
		c-0.2,0.1-0.5,0.1-0.7,0.2c0.4-1.5,0.8-3,1-4.5C149.6,33.5,149.7,32.1,149.7,30.7z M146.9,21c-1-0.2-2.1-0.3-3.2-0.5
		c0.7,0,1.4-0.1,2.2-0.1c2.2-0.1,4.6-0.3,6-0.4c-0.5,0.5-1.1,1-1.6,1.6C149.5,21.5,148.3,21.3,146.9,21z M158.7,40.4
		c-1.5,0.3-2.9,0.7-4.2,1c0.2-0.5,0.4-1.1,0.5-1.9c1.2-0.3,2.4-0.6,3.7-0.9c0,0.3,0,0.5,0,0.5c0.1,0,0.3-0.2,0.6-0.7
		c2.2-0.6,4.4-1.3,6.5-2c-0.5,0.2-1.1,0.4-1.6,0.7C161.2,38.4,158.4,39.9,158.7,40.4z M166.1,7.7c0.1-0.1,0.2-0.2,0.3-0.3
		c0,0.1,0,0.2,0,0.2c0,0.2,0,0.4,0,0.6c0-0.1,0-0.2,0-0.2C166.4,7.9,166.3,7.8,166.1,7.7z M166.2,27c0,0,0.1,0,0.1,0
		c-0.3,1.3-0.5,2.3-0.5,3c0,0,0,0-0.1,0c0,0,0,0,0,0C165.8,29.1,166,28.1,166.2,27z M166.5,24.6c0.1,0,0.2-0.1,0.3-0.1
		c0,0.2-0.1,0.3-0.1,0.5c-0.1,0-0.2,0.1-0.3,0.1C166.4,24.9,166.4,24.7,166.5,24.6z M166.6,22.9c0-0.2,0-0.5,0.1-0.7
		c0.2-0.1,0.4-0.1,0.6-0.2c0,0.2-0.1,0.5-0.1,0.7C166.9,22.7,166.8,22.8,166.6,22.9z M166.8,20.3c0-0.2,0-0.4,0-0.6
		c0.3-0.1,0.6-0.2,0.9-0.3c0,0.2-0.1,0.4-0.1,0.7C167.3,20.1,167,20.2,166.8,20.3z M166.8,17.9c0-0.2,0-0.4,0-0.6
		c0.4-0.2,0.8-0.4,1.2-0.6c0,0.2,0,0.4-0.1,0.6C167.6,17.5,167.2,17.7,166.8,17.9z M167,15.7c0.1-0.5,0.2-1.1,0.3-1.6
		c0.3-0.1,0.6-0.3,1-0.6c0,0.5-0.1,0.9-0.1,1.4C167.8,15.2,167.4,15.4,167,15.7z M167.6,12.7c0-0.1,0-0.2,0-0.3
		c0.3-0.2,0.6-0.4,0.8-0.6c0,0,0,0.1,0,0.1c0,0,0,0,0,0C168.1,12.2,167.8,12.4,167.6,12.7z M167.9,10.1c0-0.3,0.1-0.7,0.1-1
		c0,0,0.1-0.1,0.1-0.1c0.2-0.1,0.3-0.2,0.5-0.3c0,0.3,0,0.6,0,0.9C168.4,9.8,168.1,9.9,167.9,10.1z M171,23.2
		c0.8-0.2,1.6-0.5,2.3-0.8c0,0.1,0,0.2,0,0.2c-0.1,0-0.3,0.1-0.4,0.1c-1.3,0.4-2.8,1-4.4,1.5c0,0-0.1,0-0.1,0c0-0.1,0.1-0.2,0.1-0.4
		C169.3,23.7,170.1,23.5,171,23.2z M174,28c0.7-0.3,1.3-0.6,1.8-0.8c-0.3,0.6-0.6,1.1-0.9,1.7c0,0,0,0,0,0c-0.6,0-1.8,0.1-3.5,0.2
		C172.3,28.7,173.2,28.3,174,28z M167.4,29.1c-0.3,0.1-0.5,0.3-0.7,0.4c0.3-0.6,0.6-1.5,1-2.5c0-0.2,0.1-0.3,0.1-0.5
		c1.8-0.6,3.5-1.2,5.1-1.8c-0.1,0.7-0.3,1.4-0.3,1.9C170.9,27.3,169.1,28.1,167.4,29.1z M163.4,34.5c0,0.3-0.1,0.6-0.1,0.9
		c-0.9,0.3-1.9,0.6-2.8,0.9c0.2-0.4,0.3-0.8,0.5-1.2C161.8,34.9,162.6,34.7,163.4,34.5z M162.3,26.5
		C162.3,26.6,162.2,26.6,162.3,26.5c0-0.1,0-0.2,0-0.3c0-0.1,0-0.1,0.1-0.2C162.4,26.3,162.4,26.4,162.3,26.5z M158.6,15.9
		c1-1.1,2-2.1,3.1-3.2c-0.4,2-1,4.8-1.5,7.7c-0.3,0.1-0.6,0.2-0.9,0.3c-0.6,0.2-1,0.4-0.9,0.5c0,0.2,0.4,0.2,1.1,0.2
		c0.1,0,0.3,0,0.5,0c-0.1,0.5-0.2,1-0.3,1.5c-0.3,1.8-0.7,3.5-1,5.1c-0.5,0.2-1,0.4-1.5,0.6C158.1,23,158.7,17.5,158.6,15.9z
		 M160.3,33.1c-0.1,0.2-0.1,0.4-0.2,0.6c-0.8,0.3-1.5,0.5-2.1,0.8c-0.9,0.4-1.7,0.8-2,1c0.1-0.4,0.2-0.8,0.2-1.2
		c0.6-0.2,1.1-0.3,1.8-0.5c0,0.1,0.1,0.2,0.1,0.2c0.1,0,0.2-0.1,0.4-0.4C159.1,33.5,159.7,33.3,160.3,33.1z M159.3,31.7
		c0.2-0.7,0.5-1.5,0.7-2.5c0.6-0.2,1.1-0.4,1.7-0.6c-0.3,0.9-0.5,1.7-0.8,2.6C160.3,31.3,159.8,31.5,159.3,31.7z M159.6,35.5
		c-0.1,0.4-0.2,0.8-0.4,1.2c-0.3,0.1-0.7,0.2-1,0.3c-0.9,0.3-1.8,0.5-2.7,0.7c0.1-0.5,0.2-1.1,0.4-1.7c0.4,0.1,1.3,0,2.6-0.3
		C158.8,35.7,159.2,35.6,159.6,35.5z M155.7,18.8c0.4-0.4,0.8-0.7,1.1-1.1c-0.2,1.6-0.4,3.8-0.8,6.3c0-0.2,0-0.5,0-0.7
		C155.9,21.1,155.8,19.4,155.7,18.8C155.7,18.8,155.7,18.8,155.7,18.8z M156.9,30.2c0.5-0.1,0.9-0.3,1.4-0.5
		c-0.1,0.9-0.3,1.7-0.3,2.4c-0.5,0.2-1,0.4-1.5,0.6C156.7,31.9,156.8,31,156.9,30.2z M161.2,23.8c0.2,0,0.4-0.1,0.6-0.1
		c-0.2,0.8-0.4,1.5-0.6,2.1c-0.1,0.5-0.3,0.9-0.4,1.3c-0.1,0-0.2,0.1-0.3,0.1C160.7,26.2,161,25,161.2,23.8z M162.7,30.7
		c0.3-0.9,0.6-1.8,0.9-2.8c0.2-0.1,0.5-0.2,0.7-0.3c-0.1,0.9-0.2,1.9-0.3,2.7C163.6,30.5,163.2,30.6,162.7,30.7z M164.5,34.2
		c2-0.5,4-1,5.8-1.4c-0.8,0.3-1.6,0.6-2.5,1c-1.1,0.4-2.3,0.9-3.6,1.3C164.3,34.8,164.4,34.6,164.5,34.2z M154.3,13.6
		c0.9-0.1,1.8-0.2,2.6-0.3c0.7-0.1,1.3-0.1,1.9-0.2c-0.4,0.4-0.8,0.9-1.3,1.3c0,0,0,0,0,0C157,14.3,155.9,13.9,154.3,13.6z
		 M154.4,35.4c-0.1,1-0.3,1.9-0.4,2.7c-0.5,0.1-0.9,0.2-1.4,0.4c0.2-0.3,0.5-0.7,0.7-1.1C153.7,36.8,154.1,36.2,154.4,35.4z
		 M138.2,15.3c0,0.3,1.1,0.5,2.6,0.6c1.5,0.1,3.6,0.2,5.7,0.3c2,0.1,4,0.3,5.7,0.4c-0.8,0.1-1.6,0.1-2.5,0.2
		c-2.8,0.2-6.3,0.2-9.6,0.1c-0.9,0-1.8-0.1-2.6-0.1c0.1-0.2,0.2-0.4,0.2-0.6c0.3-0.8,0.5-1.5,0.8-2.3c1.6,0,3.6,0,5.7,0.1
		c-0.4,0.2-0.7,0.3-0.8,0.4c-1,0-1.9,0.1-2.7,0.1C139.1,14.8,138.2,15,138.2,15.3z M147.7,14.6c0.3,0,0.6-0.1,1-0.2
		c0.1,0,0.2,0,0.4,0c1.3,0.1,2.5,0.3,3.6,0.5C151.1,14.8,149.4,14.7,147.7,14.6z M153.8,18.2c-0.2,0.2-0.4,0.4-0.6,0.6
		c-0.1-0.3-0.1-0.4-0.2-0.4c-0.3,0-0.8,0-1.5,0C152.3,18.3,153.1,18.3,153.8,18.2z M152.5,31.3c0.3,0,0.7-0.1,1.4-0.2
		c-0.2,1.1-0.5,2.2-0.8,3.2c-0.5,0.3-0.9,0.5-1.1,0.7C152.3,33.7,152.4,32.5,152.5,31.3z M154.1,20.4c0,0,0.1-0.1,0.1-0.1
		c0,0.8,0.1,1.8,0.1,2.9c0.1,2,0.1,4.4-0.3,6.8c-0.7,0.3-1.2,0.6-1.5,0.8c0.1-1.5,0.2-2.9,0.3-4.1c0.1-2.3,0.1-4.2,0-5.2
		C153.3,21.2,153.7,20.8,154.1,20.4z M152.2,36.8c-0.3,0.6-0.5,1.1-0.7,1.6c0.2-0.9,0.3-1.7,0.5-2.6c0-0.1,0-0.3,0.1-0.4
		c0.1,0,0.4,0,0.8-0.1C152.6,35.9,152.4,36.4,152.2,36.8z M139.7,20.1c-1.2-0.1-2.4-0.2-3.5-0.2c0.2-0.5,0.5-1,0.7-1.5
		c1.1,0.1,2.2,0.2,3.4,0.2c2.4,0.1,4.8,0.1,7,0c-0.5,0-1.1,0.1-1.6,0.1C142.4,19.1,139.6,19.6,139.7,20.1z M135,7.2
		c-0.1,0.2-0.1,0.3-0.2,0.5c0-0.1,0-0.2,0-0.2c0-0.1,0-0.1-0.1-0.2C134.9,7.2,135,7.2,135,7.2z M138.6,5.4c-0.1,1.1-0.3,2.5-0.7,4.1
		c-0.9,0.2-1.5,0.3-1.5,0.5c0,0.2,0.5,0.3,1.3,0.3c0,0,0,0.1,0,0.1c-0.1,0.4-0.2,0.8-0.3,1.2c-0.1,0.4-0.2,0.8-0.4,1.2
		c-1.1,0.2-1.8,0.4-2,0.6c0.2-0.7,0.4-1.3,0.5-1.9c0.7-2.6,1.2-4.5,1.5-5.3c0,0,0-0.1,0-0.1C137.6,5.9,138.1,5.7,138.6,5.4z
		 M161.8,9.9c-0.4,0.5-0.9,1-1.4,1.5c0,0-0.1,0-0.1,0c-0.5,0-1.9,0.1-3.7,0.3c-1.8,0.2-3.9,0.4-5.9,0.8c-0.6,0.1-1.2,0.2-1.8,0.4
		c-1.3-0.1-2.6-0.2-3.9-0.3c-2.2-0.1-4.4,0-6.1,0.2c0.1-0.2,0.1-0.4,0.1-0.5c0.1-0.4,0.2-0.9,0.3-1.3c0-0.1,0.1-0.3,0.1-0.4
		c2.3,0,5.6-0.1,9.1-0.2C153.6,10.1,159.1,10,161.8,9.9z M161.8,21.1c0.2,0,0.3-0.1,0.5-0.1c0.1,0,0.2,0,0.3-0.1
		c-0.1,0.5-0.2,0.9-0.4,1.4c-0.3,0.1-0.5,0.2-0.7,0.4C161.6,22.2,161.7,21.6,161.8,21.1z M163.6,15.3c0,0.2,0,0.4-0.1,0.7
		c-0.1,1.1-0.4,2.3-0.6,3.5c-0.3,0.1-0.6,0.2-0.8,0.3c0.3-1.4,0.5-2.7,0.7-3.9C163.1,15.7,163.3,15.5,163.6,15.3z M163.8,12.7
		c0,0.3,0,0.6,0,0.9c-0.2,0.2-0.4,0.4-0.6,0.6c0.3-1.6,0.5-2.8,0.6-3.5C163.8,11.3,163.8,11.9,163.8,12.7z M164.7,25
		c0,0.2,0,0.4-0.1,0.6c-0.1,0-0.2,0.1-0.3,0.1c0.1-0.2,0.1-0.5,0.2-0.7C164.6,25.1,164.6,25.1,164.7,25z M166,31.8
		c0.1,0,0.3-0.1,0.4-0.1c1.3-0.3,2.6-0.5,3.8-0.6c-1.5,0.3-3.3,0.7-5,1.2c0,0,0,0,0,0C165.4,32.1,165.7,31.9,166,31.8z M168.1,2.7
		c-0.5,0.6-1,1.2-1.5,1.8c0-0.1-0.1-0.1-0.2-0.1c-0.2,0-0.5,0-0.9-0.1c0.4-0.3,0.9-0.5,1.3-0.9C167.2,3.3,167.6,3,168.1,2.7z
		 M168.6,6.9c-0.2,0.1-0.4,0.3-0.6,0.4c0-0.1,0-0.2,0-0.3c0-0.5,0-0.8,0-1.1c0-0.1-0.1-0.2-0.1-0.3c0.2-0.3,0.4-0.5,0.7-0.8
		c0,0,0,0,0,0C168.6,5.5,168.6,6.2,168.6,6.9z M169.1,21.4c0.2-0.1,0.5-0.2,0.7-0.2c0.3-0.1,0.5-0.2,0.8-0.3c0,0.2,0,0.4,0,0.6
		c-0.1,0-0.2,0.1-0.3,0.1c-0.4,0.2-0.9,0.3-1.3,0.5C169,21.8,169,21.6,169.1,21.4z M169.6,18.6c0.3-0.1,0.6-0.3,0.9-0.4
		c0.1,0,0.2-0.1,0.3-0.1c0,0.3,0,0.6-0.1,0.9c-0.4,0.1-0.8,0.3-1.3,0.4C169.5,19.1,169.5,18.8,169.6,18.6z M169.9,15.7
		c0.3-0.2,0.7-0.4,1-0.5c0,0.3,0,0.5-0.1,0.7c-0.4,0.2-0.7,0.3-1.1,0.5C169.9,16.2,169.9,16,169.9,15.7z M170.2,12.4
		c0.3-0.2,0.6-0.4,0.9-0.6c0,0.1,0,0.2,0,0.4c0,0.3,0,0.7,0,1c-0.3,0.2-0.6,0.4-0.9,0.6c0-0.1,0-0.3,0-0.4
		C170.2,13,170.2,12.7,170.2,12.4z M171.2,5.1c-0.3,0.2-0.6,0.4-0.9,0.6c0-0.7-0.1-1.3-0.1-1.8c0.3-0.2,0.6-0.4,0.9-0.6
		c0,0.3,0,0.5,0,0.8C171.2,4.4,171.2,4.8,171.2,5.1z M171.2,7.1c0,0.2,0,0.5,0,0.7c-0.3,0.2-0.6,0.4-0.9,0.6c0-0.2,0-0.5,0-0.7
		C170.6,7.5,170.9,7.3,171.2,7.1z M171.8,20.5c0.6-0.2,1.3-0.4,1.9-0.6c0,0.2,0,0.3-0.1,0.5c-0.6,0.2-1.3,0.5-2,0.7
		C171.7,20.9,171.7,20.7,171.8,20.5z M172.3,17.3c0.6-0.3,1.1-0.5,1.7-0.8c0,0.5-0.1,0.9-0.1,1.4c-0.4,0.1-0.8,0.2-1.2,0.4
		c-0.2,0.1-0.4,0.1-0.6,0.2C172.2,18,172.3,17.7,172.3,17.3z M172.7,14.2c0.5-0.3,1-0.6,1.6-0.9c0,0.3,0,0.6,0,0.9c0,0,0,0.1,0,0.1
		c-0.1,0.1-0.2,0.1-0.4,0.2c-0.4,0.2-0.8,0.4-1.2,0.6C172.6,14.8,172.7,14.5,172.7,14.2z M173.8,3.3c-0.3,0.2-0.6,0.4-0.9,0.6
		c0-0.6-0.1-1.1-0.1-1.6c0.3-0.1,0.5-0.3,0.8-0.4C173.7,2.4,173.8,2.8,173.8,3.3z M174.1,6C174.1,6.1,174.1,6.1,174.1,6
		c-0.4,0.3-0.8,0.5-1.1,0.7c0-0.2,0-0.5,0-0.7c0.4-0.2,0.7-0.4,1.1-0.7C174.1,5.6,174.1,5.8,174.1,6z M174.3,11.2
		c-0.3,0.2-0.5,0.3-0.8,0.5c-0.2,0.1-0.4,0.3-0.6,0.4c0-0.4,0-0.9,0.1-1.3c0.4-0.3,0.9-0.5,1.4-0.8
		C174.3,10.3,174.3,10.7,174.3,11.2z M176.8,18.9c0.3-0.1,0.5-0.1,0.7-0.2c0,0,0,0.1-0.1,0.1c0,0.1-0.1,0.1-0.1,0.2
		c-0.3,0.1-0.7,0.3-1.1,0.4c-0.3,0.1-0.7,0.2-1,0.4c0-0.1,0-0.3,0.1-0.4C175.9,19.2,176.4,19,176.8,18.9z M176.6,4.7
		c-0.1,0-0.1,0.1-0.2,0.1c-0.2,0.1-0.4,0.2-0.6,0.3c0-0.2-0.1-0.5-0.1-0.7c0.3-0.2,0.6-0.3,0.9-0.5C176.6,4.2,176.6,4.4,176.6,4.7z
		 M176,12.3c0.2-0.1,0.4-0.2,0.6-0.3c0,0.4,0,0.8,0,1.2c-0.2,0.1-0.4,0.2-0.6,0.3C176,13.1,176,12.7,176,12.3z M176.6,8.6
		c0,0.4,0,0.8,0,1.1c-0.2,0.1-0.4,0.2-0.6,0.3c0-0.4,0-0.8,0-1.2C176.2,8.8,176.4,8.7,176.6,8.6z M177.7,14.7c0.3-0.2,0.7-0.3,1-0.5
		c0.3-0.1,0.5-0.2,0.8-0.3c-0.3,1-0.7,1.8-1,2.7c-0.7,0.2-1.4,0.4-2.3,0.6c-0.2,0-0.4,0.1-0.5,0.2c0.1-0.6,0.1-1.1,0.2-1.7
		c0.2-0.1,0.5-0.2,0.7-0.4c0,1,0.1,1.6,0.3,1.6C177.2,16.9,177.4,16.1,177.7,14.7z M178.8,8.4c-0.2,0.1-0.4,0.2-0.5,0.3
		c0-0.3,0-0.7,0-1c0.2-0.1,0.4-0.2,0.6-0.3C178.9,7.8,178.9,8.1,178.8,8.4z M178.2,11c0.2-0.1,0.3-0.2,0.5-0.3
		c-0.1,0.8-0.1,1.3,0.1,1.5c-0.2,0.1-0.5,0.2-0.7,0.3C178.1,12.1,178.1,11.6,178.2,11z M179.1,3c0,0.1,0,0.2,0,0.4
		c-0.3,0.1-0.5,0.3-0.8,0.4c0-0.3,0-0.5,0-0.8c0.2-0.1,0.5-0.3,0.7-0.4c0,0,0,0,0.1,0C179.1,2.7,179.1,2.9,179.1,3z M180.6,6.7
		c0.2-0.1,0.5-0.2,0.7-0.3c0,0.2-0.1,0.4-0.1,0.7c-0.2,0.1-0.3,0.2-0.5,0.3c-0.1,0-0.2,0.1-0.2,0.1C180.5,7.2,180.5,7,180.6,6.7z
		 M181.5,2c0,0.1,0,0.2,0,0.2c-0.2,0.1-0.4,0.2-0.6,0.3c0,0-0.1,0-0.1,0.1c0-0.3,0-0.5,0-0.8c0.2-0.1,0.5-0.2,0.7-0.3
		C181.5,1.7,181.5,1.8,181.5,2z M181.5,4.3C181.5,4.3,181.5,4.3,181.5,4.3C181.4,4.3,181.4,4.3,181.5,4.3
		C181.4,4.3,181.4,4.3,181.5,4.3z M182.1,10.9c0.2-0.8,0.4-1.7,0.6-2.6c0.1,0,0.2-0.1,0.2-0.1c-0.1,0.9-0.1,1.7-0.2,2.5
		C182.6,10.8,182.4,10.8,182.1,10.9z M181.5,19.4c0.1-0.1,0.1-0.3,0.2-0.4c0,0.1,0,0.2,0.1,0.3c0,0.2,0.1,0.4,0.1,0.6
		c0-0.1-0.1-0.1-0.1-0.2C181.8,19.5,181.7,19.4,181.5,19.4z M180.2,16.1c0.4-0.9,0.9-1.9,1.2-3c0.3-0.1,0.6-0.2,0.8-0.3
		c-0.5,1.1-0.9,2.2-1.4,3.3c-0.1-0.1-0.1-0.1-0.2-0.1C180.6,16,180.4,16.1,180.2,16.1z M180.2,11.6c-0.3,0.1-0.7,0.3-1.1,0.4
		c0.2-0.4,0.5-1.1,0.8-2.1c0.3-0.2,0.5-0.3,0.8-0.5C180.6,10.2,180.4,10.9,180.2,11.6z M179,18.4c0,0,0.1-0.1,0.1-0.1
		c0.3-0.1,0.7-0.2,0.9-0.3c0,0,0,0,0,0c0,0-0.1,0-0.1,0C179.8,18.1,179.4,18.2,179,18.4z M178.4,21c-0.6,0.2-1.9,0.6-3.6,1.2
		c0-0.1,0-0.2,0.1-0.3c0.6-0.2,1.1-0.4,1.6-0.6c0,0,0,0.1,0,0.1c0.1,0.1,0.3,0,0.5-0.3c0,0,0,0,0,0c0.7-0.3,1.4-0.5,2-0.8
		c-0.1,0.2-0.2,0.5-0.3,0.7C178.6,21,178.5,20.9,178.4,21z M173.6,26.1c0.2-0.5,0.4-1.2,0.6-1.9c1.4-0.5,2.6-0.9,3.5-1.2
		c-0.3,0.6-0.6,1.3-0.9,1.9c0,0-0.1,0-0.1,0C176.3,25.1,175.1,25.5,173.6,26.1z M176.5,39c-0.1-0.2-0.2-0.5-0.3-0.7
		c-0.8-2.2-1.5-3.8-1.7-4.4c0,0,0,0,0,0c0.3-0.5,0.5-1,0.8-1.5C175.7,34,176.1,36.4,176.5,39z M172.5,37.6c0.3-0.5,0.6-1,0.8-1.5
		c0-0.1,0.1-0.1,0.1-0.2c0.3,0.8,0.7,1.8,1.1,2.9c0.7,2.1,1.6,4.8,2,7.4c0.4,2.6,0.4,5.2,0.2,7.1c-0.1,0.7-0.1,1.3-0.2,1.8
		c-0.1-0.9-0.2-1.9-0.4-2.8c-0.5-3.3-1.3-6.7-2-9.5C173.5,40.4,172.8,38.5,172.5,37.6z M170.1,34.9c0.8-0.3,1.6-0.7,2.3-0.9
		c-0.1,0.3-0.3,0.5-0.4,0.8c-0.1-0.2-0.3-0.4-0.4-0.4C171.3,34.4,170.8,34.6,170.1,34.9z M166.3,39c-1,0.2-2.2,0.4-3.4,0.6
		c0.7-0.2,1.4-0.5,2.2-0.8c2.2-0.9,4.5-1.8,6-2.3c-0.4,0.7-0.8,1.4-1.1,2.1C169.1,38.6,167.8,38.8,166.3,39z M149.3,46.4
		c0.2-0.6,0.5-1.3,0.8-2.2c0.3-1.1,0.7-2.4,1-3.9c0.8-0.1,1.7-0.3,2.7-0.5c-0.1,0.7-0.2,1.4-0.2,1.9c-0.2,0.1-0.4,0.1-0.6,0.2
		c-1.7,0.5-2.7,1-2.6,1.3c0.1,0.3,1.3,0.2,3,0c1.7-0.3,4-0.7,6.4-1.1c2.4-0.4,4.8-0.9,6.9-1.2c0.8-0.1,1.5-0.2,2.1-0.3
		c-0.1,0.2-0.3,0.5-0.4,0.7c-1.2,0.1-4.3,0.2-7.2,0.7c-3.2,0.5-6.1,1.3-6,1.8c0.2,0.6,3.1,0.3,6.3-0.1c2.1-0.2,4.3-0.5,5.8-0.6
		c-0.3,0.4-0.5,0.9-0.8,1.3c-1,0-2.5,0-4.3,0.2c-1.2,0.1-2.6,0.2-3.9,0.4c-1.4,0.2-2.8,0.4-4.2,0.6C152.4,45.6,150.7,46,149.3,46.4z
		 M148,40.8c0.4,0,0.9-0.1,1.4-0.2c-0.2,1.2-0.4,2.3-0.6,3.3c-0.2,1.1-0.4,2.1-0.5,2.7c-0.5,0.2-1,0.3-1.5,0.5
		c-0.7,0.2-1.2,0.4-1.7,0.6c0,0,0,0,0-0.1C146.1,45.8,147.2,43.4,148,40.8z M146.4,37.6c0.5-2.4,0.9-4.9,1-6.9
		c0.1-2,0.1-3.7,0.1-4.3c0,0,0,0,0,0c0.1-0.1,0.1-0.1,0.2-0.2c0.1,1,0.3,2.5,0.2,4.4c0,1.3-0.2,2.7-0.4,4.2c-0.2,1.5-0.6,3-1,4.5
		c-0.1,0.3-0.2,0.6-0.2,0.8c-0.2,0.1-0.5,0.1-0.6,0.2C146,39.4,146.2,38.5,146.4,37.6z M145.6,25.8c-0.9-0.3-2.2-0.7-3.9-1.1
		c-1.1-0.3-2.4-0.5-3.6-0.8c-1.2-0.2-2.5-0.4-3.7-0.6c0,0,0.1-0.1,0.1-0.1c0.1-0.2,0.3-0.4,0.4-0.7c0.1-0.2,0.2-0.5,0.4-0.7
		c0.1-0.2,0.2-0.4,0.3-0.6c1.4,0.2,3,0.4,4.7,0.6c2.3,0.3,4.6,0.6,6.5,0.9c0.7,0.1,1.4,0.2,2,0.3c-0.2,0.2-0.4,0.3-0.6,0.5
		c-1.1-0.3-3.9-1-6.6-1.4c-3-0.5-5.9-0.6-5.9-0.1c0,0.6,2.8,1.1,5.7,1.7c2,0.4,4,0.8,5.4,1.1C146.4,25.2,146,25.5,145.6,25.8z
		 M141.3,27.7c-0.7-0.2-1.7-0.4-2.7-0.6c-1.8-0.3-4-0.7-6.1-1c0.3-0.4,0.6-0.9,0.9-1.4c0.2,0,0.4,0.1,0.6,0.1
		c1.3,0.2,2.6,0.4,3.9,0.7c1.3,0.3,2.5,0.5,3.5,0.8c1.1,0.3,2,0.5,2.8,0.7c-0.4,0.4-0.9,0.8-1.3,1.1c0,0,0,0,0,0
		C142.6,28.1,142,27.9,141.3,27.7z M130.1,29.4c0.1-0.1,0.2-0.3,0.3-0.4c0.2-0.3,0.5-0.6,0.7-0.9c1,0.2,2.2,0.3,3.4,0.5
		c2.7,0.3,5.6,0.7,6.9,0.9c-0.4,0.3-0.8,0.7-1.2,1C138.4,30.3,134.3,29.8,130.1,29.4z M137.4,32.7c-0.8-0.2-2.5-0.5-4.6-0.8
		c-1.2-0.1-2.4-0.2-3.8-0.3c-0.3,0-0.6,0-0.9,0c0.2-0.2,0.4-0.4,0.6-0.6c3.7,0.4,7.3,0.7,9.7,0.9C138.1,32.2,137.7,32.4,137.4,32.7z
		 M135.2,43.3c0.2-1.2,0.4-2.3,0.5-3.3c0.2-2,0.2-3.5,0.2-4.2c0.5-0.3,0.9-0.7,1.4-1c-0.1,0.8-0.3,1.8-0.5,3c-0.2,1-0.5,2.1-0.8,3.3
		C135.7,41.7,135.5,42.5,135.2,43.3z M118.5,34.1c1.8-0.3,4.2-0.7,6.7-0.8c0,0,0.1,0,0.1,0c-0.2,0.4-0.3,0.6-0.3,0.7
		c0.1,0.1,0.5-0.1,1.2-0.7c0.9,0,1.9,0,2.8,0c1.3,0.1,2.5,0.1,3.6,0.3c1.2,0.1,2.2,0.3,3,0.4c-0.9,0.7-1.7,1.3-2.5,1.9
		c0-0.1-0.1-0.2-0.2-0.2c-0.7-0.1-2.6-0.5-5-0.9c-1.2-0.2-2.5-0.3-3.9-0.5c-1.4-0.1-2.8-0.2-4.2-0.2
		C119.4,34.1,118.9,34.1,118.5,34.1z M117.6,33.1c0.1,0,0.2-0.1,0.4-0.1c0.4-0.2,0.8-0.3,1.3-0.6c0.5-0.3,1-0.6,1.6-1
		c0.5-0.3,0.9-0.6,1.4-1c1.5,0.2,3.2,0.3,4.9,0.5c-0.2,0.3-0.4,0.5-0.6,0.8c-0.5,0-1.1,0-1.6,0.1c-2.7,0.2-5.2,0.7-7,1.2
		C117.8,33,117.7,33,117.6,33.1z M119.5,30c0.3,0,0.5,0.1,0.8,0.1c-0.1,0-0.1,0.1-0.2,0.2c-0.5,0.4-1,0.8-1.5,1.1
		c-0.4,0.3-0.8,0.6-1.1,0.8c-0.6,0.5-1,0.8-0.9,0.9c0.1,0.1,0.3,0.1,0.7-0.1c0,0,0,0,0,0c-0.2,0.1-0.4,0.1-0.6,0.2
		c-0.3,0.1-0.6,0.3-0.9,0.4c-0.3,0.2-0.5,0.3-0.6,0.4c-0.6,0-1.2,0.1-1.7,0.1c1.2-1.2,2.5-2.8,3.8-4.6C118,29.8,118.7,29.9,119.5,30
		z M124.1,17.3c1-2.7,1.6-4.9,1.9-5.9c0.3-0.1,0.5-0.2,0.8-0.4c0.4-0.2,0.9-0.4,1.3-0.6c-0.3,0.7-0.6,1.5-1,2.4
		c-0.9,2.1-2,4.6-3.3,7c-2,4-4.2,7.6-4.7,8.9c-0.4,0-0.8,0-1.1,0c0.5-0.7,0.9-1.4,1.4-2.1c1-1.6,1.9-3.2,2.7-4.8
		C122.9,20.3,123.6,18.7,124.1,17.3z M113.9,16.8c0-0.1,0.1-0.1,0.1-0.2c0-0.1,0-0.2-0.1-0.3c0.1-0.1,0.3-0.1,0.4-0.2
		c0,0.1-0.1,0.1-0.1,0.2C114.1,16.5,114,16.7,113.9,16.8z M98.1,19.8c-0.3,0.1-0.5,0.2-0.8,0.2c0.1-0.2,0.1-0.4,0-0.5
		c-0.2-0.1-0.7-0.4-1.4-0.7C96.7,19.2,97.4,19.5,98.1,19.8z M98.5,16.4c-1.2-0.8-2.7-1.8-4.2-2.7c0.3,0.1,0.6,0.2,0.9,0.3
		c0.1,0.1,0.2,0.1,0.3,0.2C96.6,15,97.6,15.7,98.5,16.4z M103.1,18.2c-0.4-0.4-1.2-1.2-2.4-2.2c0.8,0.3,1.7,0.6,2.4,0.9
		c0.7,0.3,1.2,0.5,1.8,0.7C104.3,17.8,103.7,18,103.1,18.2C103.1,18.2,103.1,18.2,103.1,18.2z M97.4,25.9c0.1-0.2,0.2-0.5,0.3-0.7
		c0.9-2,1.6-3.5,1.8-4.1c0,0,0,0,0,0c0.5-0.2,1-0.3,1.5-0.5C100.2,22.1,98.8,23.9,97.4,25.9z M95.7,22.3c0.5-0.1,1-0.3,1.6-0.4
		c0.1,0,0.1,0,0.2,0c-0.3,0.7-0.8,1.6-1.3,2.7c-1,1.9-2.2,4.2-3.6,6.2c-1.5,2-3.2,3.7-4.6,4.8c-0.5,0.4-1,0.8-1.3,1.1
		c0.5-0.7,1.1-1.4,1.6-2.1c1.9-2.6,3.7-5.3,5-7.6C94.4,24.8,95.3,23.1,95.7,22.3z M93.3,21.1c-0.6-0.5-1.6-1.2-2.7-2.1
		c-0.8-0.6-1.7-1.3-2.6-1.9c0.6,0.3,1.3,0.6,2,0.9c2,0.9,4.2,1.9,5.5,2.5C94.8,20.7,94.1,20.9,93.3,21.1z M71.9,30.5
		c1.1-1.7,1.8-3,2.1-3.6c0.6-0.1,1.2-0.2,1.8-0.3c-0.5,0.6-1.1,1.5-1.9,2.4c-0.7,0.8-1.4,1.7-2.3,2.5c-0.6,0.6-1.1,1.1-1.7,1.7
		C70.7,32.3,71.3,31.3,71.9,30.5z M67.6,22.4c-1-0.7-2.1-1.5-3.3-2.2c-1.2-0.7-2.4-1.5-3.6-2.2c-0.4-0.2-0.8-0.5-1.2-0.7
		c1.7,0.6,4,1.4,6.3,2.5c1.2,0.5,2.3,1.2,3.4,1.8c1.1,0.6,2.2,1.3,3.1,1.9c1,0.7,1.8,1.3,2.5,1.8c-1.1,0.2-2.1,0.3-3.1,0.5
		c0-0.1,0-0.2-0.1-0.3C71,25,69.5,23.8,67.6,22.4z M67.3,27.8C67.4,27.8,67.4,27.8,67.3,27.8C67.4,27.8,67.4,27.8,67.3,27.8
		C67.4,27.8,67.4,27.8,67.3,27.8z M64.9,27.8C64.9,27.8,64.9,27.8,64.9,27.8C64.9,27.8,64.9,27.8,64.9,27.8
		C64.9,27.8,64.9,27.8,64.9,27.8z"/>
</g>
</svg>
