<?xml version="1.0" encoding="utf-8"?>
<!-- Generator: Adobe Illustrator 22.1.0, SVG Export Plug-In . SVG Version: 6.00 Build 0)  -->
<svg version="1.1" id="Layer_1" xmlns="http://www.w3.org/2000/svg" xmlns:xlink="http://www.w3.org/1999/xlink" x="0px" y="0px"
	 viewBox="0 0 194.2 95.3" style="enable-background:new 0 0 194.2 95.3;" xml:space="preserve">
<style type="text/css">
	.st0{fill:#FFFFFF;}
</style>
<g>
	<path class="st0" d="M42.3,0.8c0.1-0.2-0.6-0.5-1.7-0.8h-6.3C38.6,0.9,42.2,1.3,42.3,0.8z"/>
	<path class="st0" d="M0.6,2.5C0.7,2.3,0.8,2.1,0.9,2c0.2-0.3,0.4-0.7,0.6-1c0.2-0.4,0.5-0.7,0.7-1H0v3.6C0.1,3.4,0.2,3.2,0.3,3
		C0.4,2.8,0.5,2.6,0.6,2.5z"/>
	<path class="st0" d="M142,27.2c-1.7-0.1-3.4-0.3-5-0.4c1.2-0.5,2.6-1.1,3.9-1.8c3-1.6,5.5-3.5,5.2-4.1c-0.3-0.5-2.9,1.1-5.9,2.5
		c-2.7,1.4-5.7,2.6-6.7,3c-0.8-0.1-1.5-0.2-2.2-0.3c0.5-0.2,1-0.5,1.6-0.8c0.9-0.4,1.9-0.9,3-1.4c1.1-0.5,2.2-0.9,3.3-1.4
		c2.2-0.9,4.4-1.7,5.9-2.3c1.6-0.6,2.6-1.1,2.6-1.4c0-0.3-1.1-0.2-2.8,0.2c-1.7,0.4-3.9,1.1-6.2,1.9c-1.1,0.4-2.3,0.9-3.4,1.4
		c-1.1,0.5-2.1,1-3.1,1.5c-1.9,0.9-3.3,1.7-3.8,2.1c0,0-0.1,0.1-0.1,0.2c-0.2,0-0.4,0-0.6-0.1c1-0.7,2.2-1.5,3.4-2.3
		c2.3-1.6,4.5-3.2,4.2-3.7c-0.2-0.5-2.6,0.7-5.1,2.3c-2,1.3-4,2.7-5,3.5c-0.2,0-0.4-0.1-0.6-0.1c-0.4-0.1-0.8-0.1-1.2-0.2
		c0.7-0.6,1.8-1.4,3-2.3c1-0.7,2-1.4,3.2-2.2c1.1-0.7,2.3-1.5,3.5-2.2c2.4-1.4,4.7-2.6,6.4-3.5c1.7-0.9,2.9-1.6,2.8-1.9
		c-0.1-0.3-1.3,0-3.1,0.7c-0.8,0.3-1.7,0.7-2.7,1.2c-0.1-0.1-0.4-0.1-0.7-0.1c-0.3,0-0.6,0-1,0c-0.2,0-0.4,0-0.6,0.1
		c-0.2,0-0.4,0.1-0.7,0.1c-1.8,0.3-4.3,1.1-6.7,2.2c-1.2,0.5-2.4,1.2-3.6,1.8c-1.1,0.7-2.2,1.4-3.2,2c-1.8,1.2-3.1,2.4-3.7,2.9
		c-0.4-0.1-0.8-0.1-1.2-0.2c2.2-1.5,5.9-3.9,9.4-6.2c2.4-1.6,4.7-3.1,6.4-4.3c1.7-1.2,2.8-2,2.7-2.3c-0.1-0.2-1.3,0.2-3.1,1.2
		c-1.8,1-4.2,2.4-6.7,3.9c-4.4,2.8-9.1,6-10.8,7.2c-0.5-0.1-1-0.2-1.5-0.3c1-0.7,3.4-2.4,5.7-4c2.6-1.8,5.1-3.6,4.8-4.1c0,0,0,0,0,0
		c2.6-2,4.5-3.5,4.3-4c-0.2-0.5-4,1.8-7.9,4.6c-2,1.4-4,2.9-5.6,4.2c-0.8,0.6-1.5,1.2-2.1,1.7c-0.6,0.5-1,0.9-1.2,1.2c0,0,0,0,0,0
		c-0.6-0.1-1.1-0.3-1.7-0.4c0.6-0.5,1.3-1.2,2.1-1.9c0.8-0.7,1.8-1.5,2.8-2.3c1-0.8,2-1.6,3.1-2.4c2.1-1.6,4.2-3,5.7-4.1
		c1.5-1.1,2.5-1.8,2.4-2.1c-0.1-0.2-1.2,0.2-2.9,1c-1.7,0.9-3.8,2.2-6,3.7c-1.1,0.8-2.2,1.6-3.2,2.4c-1,0.8-2,1.6-2.8,2.4
		c-1.3,1.1-2.3,2.2-2.9,2.8c-0.5-0.1-0.9-0.2-1.4-0.3c1.1-0.9,2.7-2.2,4.2-3.5c2.3-1.9,4.5-3.7,4.2-4.2c-0.3-0.5-2.7,1-5.2,2.8
		c-2.2,1.6-4.3,3.6-5.2,4.4c-0.2-0.1-0.5-0.1-0.7-0.2c0.5-0.4,1-0.8,1.7-1.2c1.6-1.1,3.5-2.5,5.4-3.8c1.9-1.3,3.7-2.6,5-3.5
		c1.3-1,2.1-1.7,2-2c-0.1-0.2-1.1,0.1-2.5,0.9c-1.3,0.7-3,1.7-4.8,2.9c-0.2-0.5-2.9,0.4-5.9,1.6c-0.5,0.2-1.1,0.4-1.6,0.7
		c2-1,4.2-2.1,6.2-3.3c2.9-1.7,5.6-3.5,7.5-5c1.9-1.5,3.1-2.6,2.9-2.9c-0.1-0.2-1.5,0.6-3.5,1.8c-2.1,1.3-4.8,2.9-7.7,4.6
		c-2.9,1.6-6,3.2-8.5,4.4c-0.8,0.4-1.6,0.7-2.3,1c1.5-1,3.2-2,4.9-3.1c1.8-1.1,3.6-2.1,4.9-3c1.3-0.8,2.1-1.4,2-1.7
		c-0.1-0.3-1,0-2.5,0.6c-0.7,0.3-1.5,0.7-2.4,1.1c-0.2,0-0.5,0-0.9,0c1.9-1.2,3.8-2.2,5.3-2.9c1.6-0.9,2.7-1.5,2.6-1.8
		c-0.1-0.3-1.2,0-3,0.6c-1.8,0.7-4.1,1.7-6.4,3.1c-1.1,0.6-2.2,1.3-3.3,2.1c-0.6,0.2-1.2,0.3-1.8,0.5c-2,0.6-4,1.4-5.6,2.1
		c-1.6,0.7-2.9,1.3-3.4,1.5c0,0,0,0-0.1,0.1c-0.6-0.2-1.3-0.4-1.9-0.7c2.4-1.2,7.3-3.6,11.8-5.9c5.6-2.7,10.7-5.3,10.6-5.9
		c-0.2-0.5-5.4,1.7-11.1,4.3c-1.4,0.7-2.9,1.4-4.2,2c-1.4,0.7-2.7,1.3-3.9,2c-2.4,1.2-4.2,2.2-4.9,2.6c-0.1,0-0.1,0.1-0.1,0.2
		c-0.2-0.1-0.5-0.2-0.7-0.2c0.5-0.2,1.1-0.5,1.8-0.8c1.6-0.7,3.6-1.7,5.5-2.7c1.9-1,3.6-2,4.9-2.7c1.3-0.8,2.1-1.3,2-1.6
		c-0.1-0.3-1-0.1-2.5,0.5c-1.4,0.5-3.3,1.4-5.2,2.3c-1.9,0.9-3.8,1.9-5.5,2.7c-1.6,0.8-2.9,1.3-3.3,1.5c0,0,0,0,0,0.1c0,0,0,0,0,0
		c0.7-0.4,1.6-0.9,2.8-1.6c1.8-1,4-2.2,6.2-3.3c2.2-1.1,4.3-2.2,5.8-3c1.5-0.8,2.5-1.5,2.4-1.8c-0.1-0.3-1.2,0-2.8,0.6
		c-1.6,0.6-3.8,1.5-6,2.6c-1.1,0.5-2.2,1.1-3.3,1.7c-1.1,0.6-2.1,1.1-3,1.6c-1.8,1-3.2,1.9-3.8,2.2c0,0-0.1,0.1-0.1,0.2
		c-1.1-0.4-2.1-0.8-3.1-1.3c0.9-0.4,2-0.9,3.3-1.4c1.2-0.5,2.5-0.9,3.9-1.4c1.4-0.5,2.8-1,4.2-1.5c2.8-1.1,5.5-2.4,7.4-3.6
		c0.5-0.3,0.9-0.6,1.2-0.9c0.4-0.3,0.7-0.5,0.9-0.8c0.5-0.5,0.7-0.8,0.6-0.9c-0.1-0.1-0.4,0-1,0.3c-0.7,0.3-1.4,0.7-2.3,1.2
		c-1.9,1-4.5,2.1-7.3,3.1c-1.4,0.5-2.8,1-4.2,1.5c-1.4,0.5-2.7,1-3.9,1.5c-2.3,0.9-4.1,1.8-4.9,2.2c-0.4-0.2-0.8-0.3-1.3-0.5
		c0,0-0.1,0-0.1,0c-0.6-0.2-1.1-0.5-1.6-0.7c0.8-0.2,1.8-0.5,2.9-0.8c2.2-0.6,5-1.3,7.6-2c5.3-1.4,10.1-3.1,9.9-3.7
		c-0.1-0.5-5,0.7-10.3,2c-2.6,0.7-5.4,1.4-7.7,2c-2.2,0.6-4,1.2-4.7,1.4c0.7-0.3,1.5-0.7,2.4-1.1c1-0.5,2.1-0.9,3.3-1.3
		c1.2-0.4,2.4-0.9,3.6-1.2c2.4-0.7,4.8-1.3,6.6-1.7c1.8-0.4,2.9-0.7,2.9-1.1c0-0.3-1.2-0.4-3-0.2c-0.2,0-0.5,0-0.7,0.1
		c1.7-0.3,3.3-0.6,4.6-0.8C89.4,0.7,91,0.5,91,0.2c0-0.1-0.1-0.1-0.2-0.2h-6.3c-1.9,0.2-4.1,0.6-6.4,1.1c-0.4,0.1-0.8,0.2-1.3,0.3
		c-0.4,0.1-0.8,0.2-1.3,0.3c-0.8,0.2-1.7,0.5-2.5,0.7c-1.6,0.5-3.2,1-4.6,1.6c-2.8,1.1-4.9,2-5.7,2.4c-0.1,0-0.1,0.1-0.1,0.1
		c-0.1,0-0.2-0.1-0.3-0.1c0.3-0.2,0.6-0.4,1-0.7c0.7-0.4,1.7-1,2.8-1.5c1.1-0.5,2.3-1,3.7-1.5c1.3-0.5,2.7-0.9,4.1-1.3
		c2.3-0.6,4.5-1.1,6.3-1.6h-7.2c-1.2,0.3-2.5,0.7-3.7,1.1c-1.4,0.5-2.7,1-3.8,1.6c-1.2,0.6-2.2,1.1-2.9,1.6
		c-0.8,0.5-1.3,0.9-1.7,1.1c-0.1,0.1-0.1,0.2-0.1,0.3c-0.6-0.3-1.2-0.5-1.7-0.8c0.9-0.5,2-1.1,3.3-1.8c1.2-0.6,2.6-1.3,4-1.9
		c0.7-0.3,1.4-0.6,2.2-0.9c0.3-0.1,0.5-0.2,0.8-0.3h-4.6c-1.1,0.5-2.2,1-3.1,1.5c-1.9,1-3.5,1.9-4.4,2.5c-0.7-0.3-1.4-0.7-2-1
		c1.1-0.5,2.6-1.3,4.4-2c0.8-0.3,1.6-0.7,2.5-1h-4.6c-2,0.9-3.5,1.7-4.3,2.1c-1.6-0.8-2.9-1.5-3.7-1.9c-0.3-0.2-0.7-0.3-1-0.2h-0.1
		c-0.3,0-0.5,0.1-0.6,0.3c-0.2,0.4,0.2,1.1,1,1.5c0.9,0.5,2.3,1.2,4,2.1c0.1,1,0.3,2.7,0.6,4.7c-2.2-0.3-5.3-0.5-8.6-0.7
		c-1.6-0.1-3.2-0.1-4.7-0.2c-1.5,0-3-0.1-4.4-0.1c-2.7,0-4.8-0.1-5.6-0.1c-0.1,0-0.1,0-0.2,0.1c-0.2-0.2-0.3-0.4-0.5-0.5
		c0.6,0,1.2,0.1,2,0.1c1.8,0.1,4,0.2,6.1,0.2c2.1,0,4.1,0,5.6-0.1C45,7.3,46,7.2,46.1,6.9c0.1-0.3-0.9-0.5-2.4-0.7
		c-1.5-0.2-3.5-0.3-5.7-0.4c-2.1-0.1-4.3-0.1-6.1-0.2c-1.8-0.1-3.2-0.2-3.7-0.2c0,0,0,0-0.1,0c0,0,0,0,0,0c0.8,0,1.9-0.1,3.2-0.1
		c2.1,0,4.6,0,7,0c2.4,0,4.8,0.1,6.5,0.1c1.7,0,2.9-0.1,3-0.4c0.1-0.3-1-0.6-2.7-0.8c-1.7-0.2-4.1-0.4-6.5-0.5
		c-1.2-0.1-2.5-0.1-3.7-0.1c-1.2,0-2.4,0-3.4,0c-0.7,0-1.3,0-1.9,0.1c-0.5-0.5-1.2-1.1-2.1-1.8c-0.1-0.1-0.3-0.2-0.4-0.3
		c0.4,0,0.8,0.1,1.3,0.1C29.6,1.7,31,2,32.4,2.2c1.5,0.2,3,0.4,4.5,0.6c3,0.4,6,0.5,8.2,0.3c0.6,0,1.1-0.1,1.5-0.2
		c0.4-0.1,0.8-0.2,1.1-0.3c0.6-0.2,1-0.4,1-0.5c0-0.1-0.4-0.2-1-0.2c-0.7,0-1.6,0-2.6,0c-2.1,0-5-0.3-7.9-0.7
		c-1.5-0.2-3-0.4-4.4-0.7c-1.1-0.2-2.2-0.3-3.2-0.4H17.3c0.1,0.1,0.2,0.1,0.3,0.2c0.2,0.1,0.4,0.2,0.6,0.3c-0.1,0.4-0.1,0.8-0.2,1.3
		c-0.3-0.2-0.7-0.4-1-0.6C17,0.7,17,0.4,17,0h-1.7c0,0.1,0,0.2,0,0.2c-0.2-0.1-0.4-0.2-0.5-0.2H9c0,0.1,0,0.2,0,0.3
		C8.7,0.2,8.5,0.1,8.3,0H2.7C2.3,0.6,1.9,1.4,1.4,2.4c-0.5,0.9-1,1.9-1.4,3V11c0.1-0.4,0.2-0.8,0.3-1.2C1.1,7.4,2.1,5,3,3.2
		C3.6,2,4.2,1,4.6,0.2C4.7,0.6,4.9,1,5,1.4C4.6,2.2,3.8,3.6,3,5.5c-1,2.2-2.1,5-3,7.8c0,0.1,0,0.1-0.1,0.2v6.1
		c0.5-1.7,1.1-3.8,1.8-5.8c0.9-2.7,1.9-5.5,2.9-7.7c0.4-1,0.8-1.8,1.1-2.5c0,0.1,0.1,0.2,0.1,0.3C5.9,4.2,6,4.6,6,5
		C6,5.6,6.1,6.2,6.2,6.8c-0.6,1.1-1.6,2.8-2.5,4.9c-0.7,1.5-1.4,3.2-2,5C1,18.3,0.4,20.1,0,21.9v9.6c0.3-2.5,0.9-5.7,1.7-8.8
		c0.5-1.8,1-3.7,1.7-5.4c0.6-1.7,1.3-3.4,1.9-4.8c0.4-1,0.9-1.9,1.3-2.7c0.1,0.3,0.1,0.6,0.2,0.9c0,0.2,0.1,0.4,0.1,0.6
		c-0.2,0.5-0.4,1.1-0.6,1.7c-0.9,2.4-1.8,5.3-2.5,8.2c-0.7,2.9-1.2,5.8-1.5,8c-0.2,2.2-0.2,3.6,0.2,3.6c0.6,0.1,1.5-5.5,3.1-11.2
		C6.2,19,7,16.5,7.7,14.3c0.2,0.6,0.3,1.1,0.5,1.5c-0.3,0.8-0.5,1.6-0.8,2.6c-0.4,1.4-0.9,3-1.3,4.7c-0.4,1.7-0.7,3.4-1,5.2
		c-0.6,3.5-0.8,6.9-0.8,9.4c0,2.5,0.3,4.2,0.6,4.2c0.3,0,0.5-1.6,0.7-4.1c0.3-2.5,0.6-5.8,1.2-9.2c0.3-1.7,0.6-3.4,1-5
		c0.4-1.6,0.8-3.2,1.2-4.6C9.6,17.3,10,16,10.3,15c0.1,0.4,0.3,0.7,0.4,1c-0.1,0.1-0.2,0.1-0.2,0.2c-0.1,0.3-0.2,0.6-0.3,1.1
		c-0.1,0.2-0.1,0.5-0.2,0.8c-0.1,0.3-0.2,0.6-0.2,0.9c-0.3,1.3-0.7,2.9-0.9,4.7c-0.2,1.2-0.3,2.5-0.4,3.9c-0.7,2.2-1.4,4.6-1.9,7
		c-0.8,3.5-1.2,7-1.4,9.6c-0.1,2.6,0.1,4.3,0.4,4.3c0.3,0,0.6-1.7,0.9-4.2c0.3-2.2,0.8-5.1,1.5-8.2c-0.2,8.6,0.6,16.7,1.3,16.7
		c0.6,0,0.3-6.7,0.5-14.4c0,0.1,0,0.1,0,0.2c0.3,1.9,0.6,3.1,0.9,3.1c0.3,0,0.4-1.3,0.4-3.1c0-1.9,0-4.4,0.2-6.9
		c0.1-1.3,0.3-2.6,0.5-3.8c0.2-1.2,0.5-2.4,0.8-3.4c0.2-0.8,0.5-1.4,0.7-2c-0.3,1.9-1.1,7.9-1.6,13.5c-0.6,6-0.9,11.8-0.2,11.9
		c0.6,0.1,1.3-5.7,2-11.7c0.5-4,0.9-8.2,1.2-11c0.7,1.4,1.4,2.8,2.1,4.2c-1.4,3.8-5.4,28.6-3.6,28.9c0.3,0,0.9-3.4,1.6-7.8
		c0.1,0.9,0.2,1.7,0.4,2.4c0.4,1.8,1.1,2.9,1.4,3c-0.2,1.8-0.2,3.5-0.3,4.9c0,2.5,0.2,4.1,0.6,4.1c0.3,0,0.5-1.6,0.8-4
		c0.3-2.5,0.7-5.7,1.2-8.9c0.5-3.3,1.3-6.6,2-9.3c0.3-1.4,0.7-2.6,1-3.5c0.5,0.9,1,1.8,1.5,2.6c-0.1,0-0.1,0.1-0.2,0.1
		c-0.2,0.4-0.6,1-1,2c-0.4,0.9-0.9,2.1-1.3,3.5c-0.4,1.4-0.8,2.9-1,4.5c-0.2,1.6-0.4,3.3-0.4,5c-0.1,3.4,0.2,6.6,0.7,9
		c0.4,2.4,0.9,3.9,1.2,3.9c0.3,0,0.3-1.6,0.2-4c-0.1-2.4-0.3-5.6-0.2-8.8c0.1-1.6,0.2-3.3,0.4-4.8c0.2-1.6,0.6-3,0.9-4.3
		c0.5-1.9,1.2-3.4,1.6-4.4c0.1,0.1,0.1,0.2,0.2,0.3c0,0,0,0,0,0c-0.2,0.6-0.8,2.2-1.3,4.3c-0.5,2.1-1,4.7-1.2,7.3
		c-0.2,2.6-0.2,5.1,0,7c0.2,1.9,0.6,3.1,0.9,3c0.3,0,0.4-1.2,0.5-3.1c0.1-1.8,0.2-4.3,0.4-6.8c0.3-2.5,0.7-5.1,1.1-7.1
		c0.2-1.1,0.5-2,0.7-2.7c0.5,0.7,0.9,1.4,1.4,2.1c-0.1,0-0.1,0.1-0.2,0.2c-0.1,0.7-0.5,2.5-1,4.8c-0.5,2.3-1.1,5.2-1.5,8
		c-0.4,2.8-0.6,5.6-0.4,7.7c0.1,2.1,0.5,3.5,0.8,3.4c0.3,0,0.4-1.4,0.6-3.4c0.2-2,0.5-4.7,0.9-7.5c0.4-2.8,1-5.6,1.4-8
		c0.2-1.3,0.5-2.4,0.6-3.3c0.1,0.1,0.1,0.2,0.2,0.3c-0.3,1-0.8,3-1.2,5.5c-0.2,1.4-0.4,3.1-0.5,4.8c-0.1,1.7-0.1,3.5,0.1,5.2
		c0.3,3.5,1.1,6.9,2.1,9.2c0.1,0.3,0.2,0.6,0.4,0.8c0.1,0.3,0.2,0.5,0.4,0.8c0.2,0.5,0.5,0.9,0.7,1.2c0.4,0.6,0.7,1,0.9,0.9
		c0.3-0.1-0.3-1.7-0.9-4c-0.6-2.4-1.3-5.6-1.5-9c-0.1-1.7-0.1-3.4-0.1-5c0.1-1.6,0.2-3.2,0.4-4.6c0.2-1.5,0.5-2.8,0.7-3.8
		c0.4,0.5,0.7,1,1.1,1.5c-0.1,0-0.2,0.1-0.2,0.2c-0.1,0.7-0.5,2.4-0.8,4.6c-0.1,1.1-0.2,2.4-0.3,3.7c0,1.3,0,2.7,0.1,4.1
		c0.2,2.7,0.6,5.3,1.1,7.2c0.5,1.9,1.1,3.1,1.4,3c0,0,0.1,0,0.1-0.1c0.4,1.5,0.9,2.4,1.2,2.4c0.3-0.1,0.2-1.3,0-3.1
		c-0.2-1.8-0.4-4.3-0.3-6.9c0-1.3,0.1-2.6,0.2-3.8c0.1-1.2,0.3-2.3,0.5-3.3c0,0.2,0,0.3,0,0.5c-0.1,1.6,0,3.7,0.2,5.6
		c0.2,1.9,0.7,3.8,1.2,5.2c0.5,1.3,1,2.2,1.3,2.1c0.3-0.1,0.2-1,0-2.4c-0.2-1.4-0.5-3.2-0.7-5.1c0-0.5-0.1-1-0.1-1.4
		c0.1,0.6,0.2,1.2,0.3,1.7c0.3,1.6,0.8,3.2,1.3,4.3c0.5,1.1,1,1.8,1.3,1.7c0.2-0.1,0.2-0.5,0.2-1.2c0,0.1,0.1,0.3,0.1,0.4
		c0.6,2.2,1.4,4.2,2.2,5.7c0.7,1.5,1.4,2.3,1.7,2.2c0.3-0.1,0-1.1-0.4-2.7c-0.5-1.5-1.1-3.6-1.7-5.7c-0.3-1.1-0.5-2.1-0.8-3.2
		c0.5,1.2,1,2.5,1.6,3.8c1.6,3.4,3.6,6.5,4.2,6.2c0.5-0.3-1-3.4-2.5-6.9c-0.6-1.3-1.1-2.7-1.6-3.9c1.5,2.1,3.7,4.9,5.9,7.4
		c3.9,4.4,8.2,8,8.6,7.5c0.4-0.4-3.5-4.3-7.2-8.7c-1.2-1.3-2.3-2.7-3.4-4.1c1.3,0.5,2.8,1.1,4.3,1.6c3.4,1.1,6.8,1.6,7,0.9
		c0.2-0.5-3-1.4-6.3-2.6c-3-1-6.1-2.4-7.2-2.9c-0.5-0.7-1-1.3-1.4-1.9c0.5,0.2,1.1,0.4,1.8,0.6c1,0.4,2.1,0.8,3.3,1.2
		c1.2,0.5,2.3,0.9,3.5,1.5c2.3,1,4.5,2,6.2,2.8c1.6,0.7,2.8,1.2,3,0.9c0.2-0.2-0.7-1-2.2-2c-1.5-1-3.7-2.2-6-3.2
		c-1.2-0.5-2.4-1-3.6-1.5c-1.2-0.5-2.3-0.9-3.4-1.2c-2.1-0.7-3.8-1.2-4.4-1.4c-0.1,0-0.1,0-0.2,0c-0.1-0.2-0.3-0.3-0.4-0.5
		c1.3,0.3,2.8,0.6,4.3,0.9c3,0.6,5.8,1,6,0.4c0.2-0.5-2.5-1.4-5.5-2.1c-2.4-0.6-5.1-1-6.4-1.2c-0.1-0.2-0.2-0.3-0.4-0.5
		c-0.2-0.3-0.5-0.7-0.7-1c1,0.1,2.4,0.3,4,0.6c1.2,0.2,2.6,0.5,4,0.8c1.4,0.3,2.8,0.7,4.2,1.1c2.8,0.8,5.5,1.6,7.4,2.2
		c2,0.6,3.3,1,3.5,0.7c0.1-0.2-1-1-2.8-1.9c-0.8-0.4-1.8-0.8-2.9-1.2c-0.1-0.1-0.2-0.3-0.4-0.6c-0.2-0.2-0.4-0.4-0.7-0.7
		c-0.2-0.1-0.3-0.3-0.5-0.4c-0.2-0.1-0.4-0.3-0.6-0.4c-1.6-1.1-4-2.5-6.6-3.5c-1.3-0.5-2.7-1-4.1-1.4c-1.4-0.4-2.7-0.7-3.9-0.9
		c-2.3-0.4-4.1-0.6-4.9-0.7c-0.2-0.4-0.5-0.7-0.7-1.1c2.8,0.6,7.3,1.6,11.6,2.5c3,0.6,5.9,1.2,8,1.6c2.1,0.4,3.6,0.6,3.7,0.3
		c0.1-0.3-1.2-0.8-3.2-1.5c-2.1-0.7-4.9-1.4-7.9-2.1C39,51.5,33.1,50.4,30.9,50c-0.3-0.5-0.6-0.9-0.9-1.4c1.3,0.2,4.4,0.8,7.3,1.3
		c3.3,0.6,6.5,1.2,6.7,0.6c0,0,0,0,0-0.1c3.4,0.5,6,0.8,6.2,0.3c0.2-0.5-4.4-1.7-9.4-2.6c-2.5-0.5-5.1-0.8-7.3-1.1
		c-1.1-0.1-2.1-0.2-2.9-0.3c-0.8,0-1.4,0-1.8,0c0,0,0,0,0,0c-0.3-0.5-0.6-1-1-1.6c0.8,0,1.9,0.1,3,0.2c1.2,0.1,2.5,0.2,3.8,0.4
		c1.3,0.2,2.7,0.3,4.1,0.6c2.7,0.4,5.3,0.9,7.3,1.3c1.2,0.2,2.1,0.4,2.7,0.4c0.8,1.4,1.4,2.2,1.7,2.1c0.3-0.1-0.2-1.5-1-3.6
		c-0.6-1.7-1.5-3.9-2.2-6.3c0.2,0,0.4,0,0.6,0c0.4,1.1,0.7,2.2,1.1,3c0.7,1.6,1.4,2.6,1.7,2.5c0.3-0.1,0-1.2-0.5-2.9
		c-0.5-1.7-1.1-3.9-1.5-6.2c-0.5-2.3-0.8-4.7-1-6.7c-0.1-1-0.1-1.9-0.2-2.7c0.6,0.5,1.2,1,1.8,1.5c-0.1,0.1-0.1,0.1-0.1,0.2
		c0.1,0.6,0.2,2.4,0.5,4.6c0.2,2.2,0.5,5,1,7.6c0.4,2.7,1.1,5.2,1.8,7.1c0.7,1.9,1.4,3,1.7,2.9c0.3-0.1,0-1.3-0.4-3.2
		c-0.4-1.9-0.9-4.4-1.3-7c-0.4-2.6-0.7-5.4-1-7.6c-0.1-1.2-0.3-2.3-0.4-3.1c0.1,0.1,0.2,0.2,0.3,0.2c0,1,0.1,2.9,0.5,5.3
		c0.2,1.4,0.5,2.9,0.9,4.4c0.4,1.5,0.9,3.1,1.6,4.7c1.2,3.1,3,5.9,4.5,7.7c0.2,0.2,0.4,0.5,0.6,0.7c0.2,0.2,0.4,0.4,0.5,0.6
		c0.3,0.4,0.7,0.6,0.9,0.9c0.5,0.5,0.9,0.7,1,0.6c0.2-0.2-0.7-1.4-2-3.4c-1.3-2-2.8-4.7-3.9-7.6c-0.6-1.5-1.1-3-1.5-4.5
		c-0.4-1.5-0.7-2.9-0.9-4.3c-0.2-1.4-0.4-2.7-0.5-3.6c0.5,0.4,0.9,0.7,1.4,1.1c-0.1,0.1-0.2,0.1-0.1,0.2c0.1,0.6,0.2,2.3,0.6,4.4
		c0.2,1.1,0.5,2.2,0.8,3.4c0.3,1.2,0.7,2.4,1.2,3.6c0.9,2.4,2.1,4.6,3.1,6.2c1,1.6,1.8,2.5,2.1,2.3c0,0,0,0,0.1-0.1
		c0.8,1.2,1.5,1.9,1.8,1.8c0.3-0.1-0.2-1.2-0.9-2.8c-0.7-1.6-1.6-3.8-2.2-6.1c-0.3-1.1-0.6-2.3-0.9-3.5c-0.2-1.1-0.4-2.2-0.5-3.2
		c0,0.1,0.1,0.3,0.1,0.5c0.4,1.5,1,3.3,1.8,5c0.8,1.7,1.7,3.2,2.5,4.3c0.8,1.1,1.5,1.7,1.8,1.5c0.2-0.2-0.1-1-0.6-2.1
		c-0.6-1.2-1.3-2.7-2-4.4c-0.2-0.4-0.4-0.8-0.5-1.3c0.2,0.5,0.5,1,0.8,1.5c0.8,1.4,1.7,2.7,2.4,3.5c0.8,0.9,1.4,1.3,1.7,1.1
		c0.2-0.1,0.1-0.5-0.2-1.1c0.1,0.1,0.1,0.2,0.2,0.3c1.2,1.8,2.5,3.4,3.6,4.5c1.1,1.1,1.9,1.7,2.2,1.5c0.2-0.2-0.3-1-1.1-2.3
		c-0.8-1.2-2-2.9-3.1-4.7c-0.6-0.9-1.1-1.8-1.6-2.6c0.8,1,1.6,2,2.5,2.9c2.4,2.7,5.1,4.8,5.5,4.4c0.4-0.4-1.9-2.8-4.2-5.5
		c-0.9-1-1.8-2.1-2.6-3.1c2,1.5,4.7,3.4,7.5,5c4.8,2.9,9.6,4.9,9.9,4.3c0.2-0.5-4.4-2.9-9-5.8c-1.4-0.9-2.9-1.8-4.2-2.7
		c1.3,0.1,2.8,0.2,4.3,0.2c3.4,0,6.6-0.5,6.5-1.1c0-0.5-3.1-0.4-6.4-0.5c-3-0.1-6.2-0.4-7.3-0.5c-0.7-0.5-1.3-0.9-1.8-1.3
		c0.5,0,1.1,0,1.8,0.1c1,0,2.1,0.1,3.3,0.2c1.2,0.1,2.4,0.2,3.6,0.3c2.4,0.2,4.6,0.6,6.3,0.7c1.7,0.2,2.8,0.3,2.9,0
		c0.1-0.3-0.9-0.7-2.6-1.1c-1.6-0.4-3.9-0.9-6.3-1.2c-1.2-0.2-2.4-0.3-3.6-0.4c-1.2-0.1-2.4-0.1-3.4-0.2c-2.1-0.1-3.7,0-4.4,0
		c-0.1,0-0.1,0-0.1,0.1c-0.2-0.1-0.3-0.2-0.5-0.3c1.2-0.1,2.7-0.3,4.1-0.5c2.8-0.3,5.5-0.7,5.5-1.3c0-0.5-2.7-0.6-5.5-0.4
		c-2.4,0.2-4.8,0.5-6.1,0.7c-0.2-0.1-0.3-0.2-0.5-0.3c-0.3-0.2-0.6-0.5-1-0.7c0.9-0.2,2.2-0.4,3.7-0.6c1.2-0.2,2.5-0.3,3.8-0.4
		c1.4-0.1,2.8-0.2,4.1-0.3c2.7-0.1,5.4-0.1,7.3-0.1c0.1,0,0.2,0,0.3,0c1.3,1.2,2.3,1.9,2.4,1.7c0.1-0.1-0.3-0.7-1-1.7
		c0.9,0,1.5-0.1,1.6-0.3c0.1-0.2-0.9-0.5-2.4-0.8c-0.2-0.2-0.4-0.5-0.6-0.8c-1.6-2-3.7-4.9-5.6-8c-0.9-1.5-1.8-3.1-2.6-4.7
		c-0.8-1.6-1.4-3.1-2-4.5c-0.7-1.8-1.2-3.3-1.5-4.4c0.3,0.1,0.5,0.2,0.8,0.3c0.4,0.9,0.9,2.2,1.7,3.8c1,2.1,2.4,4.7,3.9,7.2
		c1.5,2.4,3.1,4.7,4.4,6.3c1.3,1.6,2.3,2.5,2.6,2.3c0.5-0.4-2.7-4.7-5.5-9.5c-1.4-2.4-2.8-4.9-3.8-7c-0.4-0.7-0.7-1.4-1-2
		c0.5,0.2,0.9,0.4,1.4,0.6c0.3,0.8,1.2,2.7,2.5,5.1c0.7,1.2,1.4,2.6,2.3,3.9c0.9,1.4,1.8,2.8,2.8,4.1c2,2.7,4.1,5.1,5.8,6.8
		c1.7,1.7,3,2.6,3.2,2.4c0.2-0.2-0.8-1.4-2.3-3.2c-1.5-1.8-3.5-4.3-5.4-6.9c-0.9-1.3-1.9-2.7-2.7-4c-0.8-1.3-1.6-2.6-2.3-3.8
		c-0.7-1.3-1.3-2.4-1.8-3.3c0.3,0.1,0.7,0.3,1,0.4c0,0.1,0,0.2,0,0.3c0.1,0.2,0.3,0.6,0.5,1c0.1,0.2,0.2,0.4,0.4,0.7
		c0.1,0.2,0.3,0.5,0.4,0.7c0.6,1.1,1.5,2.3,2.5,3.7c0.7,0.9,1.5,1.9,2.3,2.8c1,1.9,2.2,4,3.4,5.9c1.8,2.9,3.9,5.5,5.6,7.3
		c1.7,1.8,3,2.8,3.2,2.6c0.2-0.2-0.8-1.5-2.2-3.4c-1.3-1.7-2.9-4-4.5-6.4c5.7,5.8,11.7,10.6,12.1,10.1c0.4-0.4-4.3-4.7-9.4-9.8
		c0,0,0.1,0.1,0.2,0.1c1.4,1.1,2.5,1.6,2.7,1.4c0.2-0.2-0.6-1.1-1.8-2.4c-1.2-1.3-2.9-2.9-4.5-4.8c-0.8-0.9-1.5-1.9-2.2-2.8
		c-0.7-1-1.3-1.9-1.8-2.8c-0.4-0.6-0.7-1.3-0.9-1.8c1.1,1.5,4.6,5.9,8,10c3.7,4.4,7.4,8.4,7.9,8c0.4-0.4-2.9-4.6-6.5-9.1
		c-2.4-3-4.9-6-6.6-8.1c1.4,0.5,2.8,0.9,4.2,1.4c1.6,3.4,15.7,22.6,17.1,21.5c0.2-0.2-1.7-2.8-4.2-6.3c0.6,0.5,1.3,1,1.9,1.3
		c1.5,0.9,2.7,1.2,3,1c1.1,1.3,2.2,2.5,3.1,3.4c1.7,1.6,2.9,2.6,3.1,2.3c0.2-0.2-0.7-1.4-2.1-3.2c-1.5-1.9-3.4-4.2-5.2-6.7
		c-1.9-2.5-3.6-5.2-5-7.5c-0.7-1.1-1.3-2.2-1.7-3c0.9,0.2,1.8,0.5,2.8,0.7c0,0.1,0,0.1,0,0.2c0.1,0.4,0.3,1.1,0.7,2
		c0.4,0.9,0.8,2,1.5,3.2c0.6,1.2,1.4,2.4,2.4,3.7c0.9,1.2,2,2.5,3.1,3.6c2.2,2.3,4.6,4.2,6.5,5.5c1.9,1.3,3.2,2,3.4,1.8
		c0.2-0.2-0.9-1.3-2.6-2.8c-1.7-1.5-4-3.5-6-5.7c-1.1-1.1-2.1-2.3-2.9-3.5c-0.9-1.2-1.7-2.4-2.3-3.5c-0.9-1.6-1.5-3.1-1.9-4
		c0.1,0,0.2,0,0.3,0.1c0,0,0,0,0,0c0.3,0.5,1,2,2.1,3.7c1.1,1.7,2.6,3.8,4.2,5.6c1.6,1.9,3.3,3.5,4.7,4.6c1.4,1.1,2.5,1.6,2.7,1.4
		c0.2-0.2-0.6-1.1-1.8-2.3c-1.2-1.3-2.8-3-4.3-4.8c-1.5-1.8-3-3.8-4.1-5.5c-0.6-0.9-1-1.6-1.4-2.3c0.8,0.2,1.6,0.3,2.3,0.5
		c0,0.1,0,0.2,0,0.2c0.4,0.5,1.3,2,2.6,3.8c1.2,1.9,2.8,4.2,4.4,6.3c1.6,2.1,3.4,4.1,4.9,5.4c1.5,1.3,2.6,2,2.9,1.7
		c0.2-0.2-0.6-1.2-1.9-2.6c-1.3-1.5-2.9-3.4-4.5-5.6c-1.6-2.1-3.1-4.4-4.4-6.2c-0.7-1-1.3-1.9-1.8-2.6c0.1,0,0.2,0,0.4,0.1
		c0.5,0.9,1.5,2.5,2.9,4.5c0.8,1.1,1.8,2.3,2.9,3.5c1.1,1.2,2.3,2.3,3.6,3.4c2.5,2.1,5.4,3.8,7.6,4.7c0.3,0.1,0.5,0.2,0.8,0.3
		c0.3,0.1,0.5,0.2,0.7,0.3c0.5,0.2,0.9,0.3,1.2,0.3c0.7,0.1,1.1,0.2,1.2,0c0.1-0.3-1.3-0.9-3.3-2.1c-2-1.1-4.7-2.8-7.1-4.9
		c-1.2-1-2.4-2.2-3.4-3.3c-1-1.1-2-2.3-2.8-3.3c-0.9-1.1-1.6-2.2-2.1-3c0.6,0.1,1.2,0.2,1.7,0.3c0,0.1-0.1,0.2,0,0.3
		c0.4,0.5,1.3,1.9,2.6,3.6c0.7,0.8,1.5,1.7,2.3,2.7c0.9,0.9,1.8,1.8,2.8,2.6c1.9,1.7,4,3.1,5.6,4c1.6,0.9,2.8,1.3,3,1.1
		c0,0,0-0.1,0-0.1c1.3,0.7,2.3,1,2.4,0.7c0.2-0.3-0.7-1-2.1-2.1c-1.4-1.1-3.2-2.6-4.8-4.3c-0.8-0.9-1.6-1.8-2.4-2.7
		c-0.7-0.9-1.4-1.8-1.9-2.6c0.1,0.1,0.2,0.2,0.3,0.4c1.1,1.1,2.5,2.4,3.9,3.6c1.5,1.1,3,2.1,4.2,2.6c1.2,0.6,2.1,0.8,2.3,0.5
		c0.1-0.3-0.5-0.8-1.6-1.6c-1-0.8-2.5-1.8-3.8-2.9c-0.4-0.3-0.7-0.6-1-0.9c0.4,0.3,0.9,0.7,1.4,1c1.3,0.9,2.7,1.6,3.8,2
		c1.1,0.4,1.9,0.5,2,0.2c0.1-0.2-0.2-0.5-0.7-0.9c0.1,0.1,0.2,0.1,0.3,0.2c1.9,1,3.8,1.8,5.3,2.3c1.5,0.5,2.5,0.6,2.6,0.3
		c0.1-0.3-0.7-0.8-2.1-1.5c-1.3-0.7-3.1-1.6-4.9-2.7c-0.9-0.5-1.8-1.1-2.6-1.6c1.1,0.5,2.3,1,3.6,1.4c3.4,1.2,6.7,1.9,6.9,1.3
		c0.2-0.5-3-1.6-6.3-2.9c-1.3-0.5-2.6-1-3.7-1.5c2.5,0.4,5.7,0.8,8.9,0.9c5.6,0.3,10.8-0.2,10.8-0.8C152.6,27.6,147.4,27.6,142,27.2
		z M8,4.2C8,4.2,8,4.1,8,4.2c0,0,0.1,0,0.1,0C8.1,4.2,8.1,4.2,8,4.2z M7.6,2.1c0-0.1,0-0.1,0-0.2c0-0.1,0-0.2,0-0.2
		C8,1.8,8.4,2,8.8,2.2c0,0.1,0,0.2,0,0.3C8.3,2.3,7.9,2.2,7.6,2.1z M8.7,4.4C8.7,4.4,8.7,4.4,8.7,4.4c-0.2,0-0.4-0.1-0.5-0.2
		C8.4,4.3,8.6,4.3,8.7,4.4z M8.8,14.1c-0.1-0.5-0.2-1-0.3-1.5c0-0.2-0.1-0.4-0.1-0.5c0.1-0.3,0.2-0.6,0.3-0.9c0.2,0.5,0.4,1,0.6,1.5
		C9.2,13,9,13.5,8.8,14.1z M39.7,64.3C39.6,64.3,39.6,64.3,39.7,64.3C39.6,64.2,39.6,64.2,39.7,64.3C39.6,64.2,39.6,64.2,39.7,64.3z
		 M37.8,62.4C37.8,62.4,37.8,62.4,37.8,62.4C37.7,62.4,37.7,62.4,37.8,62.4C37.8,62.4,37.8,62.4,37.8,62.4z M37.5,55.5
		c1.2,0.2,2.4,0.5,3.7,0.9c1.3,0.4,2.6,0.8,3.9,1.3c2.5,0.9,4.9,2,6.6,2.9c-0.5-0.1-0.9-0.3-1.4-0.4c-1.4-0.4-2.9-0.8-4.4-1.1
		c-1.4-0.3-2.8-0.6-4.1-0.8c-2.5-0.4-4.6-0.6-5.3-0.7c-0.1,0-0.2,0.1-0.3,0.1c-0.6-0.9-1.3-1.8-1.9-2.7
		C35.1,55.1,36.2,55.2,37.5,55.5z M31.8,61.9c0-1.3,0.1-2.5,0.2-3.6c0.1-1.3,0.3-2.3,0.4-3.2c0.4,0.5,0.7,1,1.1,1.5
		c-0.2,0.7-0.7,2.2-1.2,4.3c-0.2,1.1-0.4,2.3-0.6,3.5C31.8,63.6,31.8,62.7,31.8,61.9z M65.2,40.2C65.2,40.2,65.2,40.2,65.2,40.2
		C65.2,40.2,65.2,40.2,65.2,40.2C65.2,40.1,65.2,40.2,65.2,40.2z M63,39C63,39,63,39,63,39C63,39,62.9,39,63,39C63,39,63,39,63,39z
		 M69.1,5.7c0.2-0.1,0.3-0.1,0.5-0.2C69.4,5.6,69.2,5.7,69.1,5.7c-1.8,0.8-3.1,1.6-3.9,2c-0.2-0.1-0.3-0.2-0.5-0.2
		C65.7,7,67.2,6.4,69.1,5.7z M67.3,8.5C67.2,8.5,67.2,8.6,67.3,8.5c-0.1,0.1-0.1,0.1-0.1,0.1C67.2,8.6,67.2,8.5,67.3,8.5z M63.3,8.8
		c0.3,0.8,0.8,2.3,1.5,4.1c0.4,0.9,0.8,1.9,1.2,2.9c-0.2-0.1-0.5-0.1-1-0.1c-0.7-1.5-1.3-3-1.8-4.4c-0.4-1.2-0.7-2.2-0.9-3
		C62.6,8.5,63,8.6,63.3,8.8z M63,23.7c0.3,0.5,0.6,1,1,1.4c-0.4,0-0.8,0.1-1.2,0.1c-0.3-0.4-0.6-0.9-0.9-1.4
		C62.2,23.8,62.6,23.8,63,23.7z M60.9,22.4c-0.1-0.3-0.3-0.5-0.4-0.8c-0.1-0.2-0.2-0.4-0.4-0.6c-0.1-0.2-0.2-0.4-0.3-0.7
		c0,0,0,0,0,0c0.5-0.1,0.9-0.2,1.2-0.2c0.3,0.8,0.7,1.5,1.1,2.2C61.7,22.3,61.3,22.3,60.9,22.4z M63.3,17.7
		c-0.1-0.3-0.3-0.6-0.4-0.9c0.2,0,0.5-0.1,0.7-0.1c0.3,0.5,0.6,1.1,0.8,1.6c0.8,1.4,1.6,2.7,2.4,3.7c-0.1,0-0.3,0-0.4,0
		c-0.1,0-0.3,0-0.4,0c-0.2-0.3-0.4-0.5-0.6-0.8c-0.3-0.4-0.5-0.8-0.8-1.2c-0.1-0.2-0.3-0.4-0.4-0.6c-0.1-0.2-0.2-0.4-0.3-0.6
		C63.7,18.5,63.5,18.1,63.3,17.7z M66,24.9c-0.1,0-0.3,0-0.4,0c-0.3-0.5-0.6-0.9-0.9-1.5c0.1,0,0.1,0,0.2,0c0,0,0,0,0,0
		C65.2,24,65.6,24.5,66,24.9z M65.1,26.7c0.1,0.2,0.3,0.3,0.4,0.5c0.4,0.4,0.8,0.8,1.1,1.2c0.1,0.1,0.1,0.1,0.2,0.1
		c-0.2,0-0.4,0-0.6,0c-0.4,0-0.8,0.1-1.2,0.1c-0.3-0.4-0.6-0.7-0.8-1.1c-0.1-0.1-0.1-0.2-0.2-0.3C64.6,27,65,26.9,65.1,26.7z
		 M66.5,26.3C66.5,26.3,66.5,26.3,66.5,26.3c0.2-0.1,0.4-0.2,0.6-0.2c0.7,0.8,1.5,1.5,2.3,2.1c-0.5,0-0.9,0.1-1.4,0.1
		c-0.2-0.2-0.3-0.5-0.5-0.8C67.2,27.2,66.9,26.8,66.5,26.3z M66.9,23.2c0.3,0,0.5-0.1,0.8-0.1c0.2,0.2,0.4,0.5,0.6,0.7
		c0.3,0.4,0.6,0.7,0.9,1c-0.3,0-0.6,0-1,0C67.7,24.3,67.3,23.8,66.9,23.2z M69.1,25.8c0.4-0.1,0.7-0.2,1-0.3
		c0.2,0.1,0.4,0.2,0.5,0.1c0.1-0.1,0.1-0.2,0-0.3c0.2-0.1,0.3-0.2,0.3-0.3c0-0.1-0.2-0.2-0.5-0.2c-0.2-0.5-0.6-1.1-1.1-1.8
		c0-0.1-0.1-0.1-0.1-0.2c0.2-0.1,0.3-0.2,0.3-0.2c0-0.1-0.2-0.2-0.7-0.3c-0.9-1.3-1.9-3-2.8-4.7c-0.2-0.4-0.4-0.8-0.6-1.2
		c0.4-0.1,0.7-0.3,0.8-0.4c0.6,1.3,1.3,2.7,2,4.1c1.9,3.6,4.1,6.8,5.4,8.1c-0.6,0-1.2,0-1.9,0C70.8,27.5,69.9,26.6,69.1,25.8z
		 M60.6,7.5c-0.1,0.1-0.1,0.1-0.1,0.2c0.1,0.6,0.5,2.2,1.1,4.1c0.4,1.2,0.9,2.5,1.5,3.9c-0.2,0-0.5,0-0.8,0
		c-0.1-0.1-0.1-0.3-0.2-0.4c-0.2-0.4-0.3-0.8-0.5-1.2c-0.1-0.4-0.3-0.8-0.4-1.1c-0.1-0.2-0.1-0.4-0.2-0.5c0-0.2-0.1-0.4-0.1-0.5
		c-0.1-0.4-0.2-0.7-0.3-1c-0.1-0.7-0.3-1.3-0.3-1.8c-0.1-0.5-0.1-1-0.2-1.4c0-0.2,0-0.3,0-0.4C60.3,7.4,60.5,7.5,60.6,7.5z
		 M60.6,19.2c-0.4,0-0.8,0-1.2,0c0,0-0.1,0-0.2,0c-0.3-0.5-0.5-1.1-0.8-1.6c0.5-0.1,1-0.1,1.4-0.2C60.1,18,60.3,18.6,60.6,19.2z
		 M59.4,16c-0.5,0-1,0.1-1.6,0.1c-0.2-0.4-0.3-0.8-0.5-1.1c-0.2-0.6-0.4-1.1-0.6-1.7c1,0,1.6-0.1,1.7-0.3c0.2,0.7,0.4,1.4,0.6,2.2
		C59.2,15.4,59.3,15.7,59.4,16z M44.1,34.4c0.2,1.5,0.6,3,1,4.5c-0.2-0.1-0.4-0.1-0.7-0.2c-0.2,0-0.4-0.1-0.6-0.1
		c-0.2-1.2-0.4-2.5-0.6-3.7c-0.4-3.1-0.7-6.3-0.9-9c-0.1-1.3-0.1-2.5-0.1-3.4c0.7,0.7,1.4,1.3,2.1,1.9c-0.1,0-0.1,0.1-0.1,0.2
		c-0.1,0.4-0.2,1.1-0.3,2.1c-0.1,1-0.2,2.1-0.2,3.5C43.7,31.4,43.9,32.8,44.1,34.4z M43.2,20.9c-0.5-0.5-1.1-1-1.6-1.6
		c1.4,0.1,3.8,0.3,6,0.4c0.8,0,1.5,0.1,2.2,0.1c-1.1,0.1-2.2,0.3-3.2,0.5C45.1,20.6,43.9,20.8,43.2,20.9z M29.2,36.4
		c-0.5-0.2-1.1-0.4-1.6-0.7c2,0.7,4.2,1.4,6.5,2c0.3,0.5,0.5,0.7,0.6,0.7c0.1,0,0.1-0.2,0-0.5c1.2,0.3,2.5,0.6,3.7,0.9
		c0.2,0.7,0.4,1.3,0.5,1.9c-1.2-0.3-2.7-0.7-4.2-1C35,39.2,32.2,37.7,29.2,36.4z M27.1,7.3c0,0.1,0,0.1,0,0.2c0-0.2,0-0.4,0-0.6
		c0-0.1,0-0.2,0-0.2c0.1,0.1,0.2,0.2,0.3,0.3C27.2,7.1,27.1,7.2,27.1,7.3z M27.8,29.3C27.8,29.3,27.8,29.3,27.8,29.3
		c-0.1,0-0.1,0-0.1-0.1c0-0.6-0.2-1.6-0.5-3c0,0,0.1,0,0.1,0C27.4,27.4,27.6,28.4,27.8,29.3z M27,24.3c-0.1,0-0.2-0.1-0.3-0.1
		c0-0.1-0.1-0.3-0.1-0.5c0.1,0,0.2,0.1,0.3,0.1C27,24,27,24.2,27,24.3z M26.3,22c0-0.2-0.1-0.5-0.1-0.7c0.2,0.1,0.4,0.1,0.6,0.2
		c0,0.2,0,0.5,0.1,0.7C26.7,22.1,26.5,22,26.3,22z M25.9,19.3c0-0.2-0.1-0.4-0.1-0.7c0.3,0.1,0.6,0.2,0.9,0.3c0,0.2,0,0.4,0,0.6
		C26.4,19.5,26.1,19.4,25.9,19.3z M25.5,16.6c0-0.2-0.1-0.4-0.1-0.6c0.4,0.2,0.8,0.4,1.2,0.6c0,0.2,0,0.4,0,0.6
		C26.2,17,25.9,16.8,25.5,16.6z M25.2,14.2c0-0.5-0.1-0.9-0.1-1.4c0.4,0.2,0.7,0.4,1,0.6c0.1,0.5,0.2,1,0.3,1.6
		C26,14.7,25.6,14.5,25.2,14.2z M25,11.2C25,11.2,25,11.2,25,11.2C25,11.1,25,11.1,25,11.1c0.3,0.2,0.6,0.4,0.8,0.6
		c0,0.1,0,0.2,0,0.3C25.6,11.7,25.3,11.5,25,11.2z M24.8,8.9c0-0.3,0-0.6,0-0.9c0.2,0.1,0.3,0.2,0.5,0.3c0,0,0.1,0.1,0.1,0.1
		c0,0.3,0.1,0.6,0.1,1C25.3,9.2,25.1,9.1,24.8,8.9z M25,23.3c0,0.1,0.1,0.2,0.1,0.4c0,0-0.1,0-0.1,0c-1.5-0.5-3-1-4.4-1.5
		c-0.1,0-0.3-0.1-0.4-0.1c0-0.1,0-0.2,0-0.2c0.8,0.3,1.6,0.5,2.3,0.8C23.3,22.8,24.2,23,25,23.3z M22,28.4c-1.6-0.2-2.9-0.2-3.5-0.2
		c0,0,0,0,0,0c-0.3-0.6-0.6-1.1-0.9-1.7c0.5,0.2,1.2,0.5,1.8,0.8C20.3,27.6,21.1,28,22,28.4z M20.9,25.9c-0.1-0.5-0.2-1.2-0.3-1.9
		c1.6,0.5,3.3,1.1,5.1,1.8c0,0.2,0.1,0.3,0.1,0.5c0.3,1,0.7,1.9,1,2.5c-0.2-0.1-0.5-0.3-0.7-0.4C24.3,27.4,22.5,26.6,20.9,25.9z
		 M32.4,34.4c0.2,0.4,0.3,0.8,0.5,1.2c-1-0.3-1.9-0.6-2.8-0.9c0-0.3-0.1-0.6-0.1-0.9C30.8,34,31.7,34.2,32.4,34.4z M31,25.4
		c0,0.1,0,0.1,0.1,0.2c0,0.1,0.1,0.2,0.1,0.3c0,0-0.1,0-0.1,0C31.1,25.7,31,25.6,31,25.4z M36.2,27.9c-0.5-0.2-1-0.4-1.5-0.6
		c-0.3-1.6-0.6-3.3-1-5.1c-0.1-0.5-0.2-1-0.3-1.5c0.2,0,0.3,0,0.5,0c0.7,0,1.1,0,1.1-0.2c0-0.1-0.3-0.3-0.9-0.5
		c-0.3-0.1-0.6-0.2-0.9-0.3c-0.6-2.9-1.1-5.7-1.5-7.7c1,1.1,2,2.1,3.1,3.2C34.7,16.8,35.4,22.3,36.2,27.9z M34.9,32.9
		c0.1,0.3,0.3,0.4,0.4,0.4c0.1,0,0.1-0.1,0.1-0.2c0.6,0.2,1.2,0.4,1.8,0.5c0.1,0.4,0.2,0.8,0.2,1.2c-0.4-0.3-1.1-0.6-2-1
		c-0.6-0.3-1.3-0.5-2.1-0.8c-0.1-0.2-0.1-0.4-0.2-0.6C33.8,32.6,34.4,32.8,34.9,32.9z M32.5,30.5c-0.3-0.8-0.5-1.7-0.8-2.6
		c0.6,0.2,1.2,0.4,1.7,0.6c0.2,0.9,0.5,1.8,0.7,2.5C33.6,30.8,33.1,30.6,32.5,30.5z M34.9,35c1.3,0.3,2.3,0.5,2.6,0.3
		c0.1,0.6,0.2,1.1,0.4,1.7c-0.9-0.2-1.8-0.5-2.7-0.7c-0.3-0.1-0.7-0.2-1-0.3c-0.1-0.4-0.2-0.8-0.4-1.2C34.2,34.9,34.6,35,34.9,35z
		 M37.7,18.1c0,0.6-0.2,2.3-0.3,4.5c0,0.2,0,0.5,0,0.7c-0.4-2.5-0.7-4.7-0.8-6.3C36.9,17.3,37.3,17.7,37.7,18.1
		C37.7,18.1,37.7,18.1,37.7,18.1z M36.9,32c-0.5-0.2-1-0.4-1.5-0.6c-0.1-0.7-0.2-1.5-0.3-2.4c0.5,0.2,1,0.3,1.4,0.5
		C36.6,30.3,36.8,31.2,36.9,32z M33,26.6c-0.1,0-0.2-0.1-0.3-0.1c-0.1-0.4-0.2-0.8-0.4-1.3c-0.2-0.6-0.4-1.4-0.6-2.1
		c0.2,0.1,0.4,0.1,0.6,0.1C32.5,24.3,32.7,25.5,33,26.6z M29.4,29.6c-0.1-0.8-0.2-1.8-0.3-2.7c0.2,0.1,0.5,0.2,0.7,0.3
		c0.3,1,0.6,1.9,0.9,2.8C30.3,29.9,29.8,29.8,29.4,29.6z M29.2,34.4c-1.3-0.4-2.5-0.9-3.6-1.3c-0.9-0.3-1.8-0.7-2.5-1
		c1.8,0.4,3.8,0.9,5.8,1.4C29,33.9,29.1,34.1,29.2,34.4z M35.9,13.7C35.9,13.7,35.9,13.7,35.9,13.7c-0.4-0.4-0.9-0.9-1.3-1.3
		c0.5,0.1,1.2,0.1,1.9,0.2c0.8,0.1,1.7,0.2,2.6,0.3C37.6,13.2,36.4,13.6,35.9,13.7z M40.1,36.7c0.2,0.4,0.5,0.8,0.7,1.1
		c-0.4-0.1-0.9-0.2-1.4-0.4c-0.1-0.8-0.2-1.8-0.4-2.7C39.4,35.5,39.7,36.1,40.1,36.7z M52.8,14c-0.8-0.1-1.7-0.1-2.7-0.1
		c-0.2-0.1-0.4-0.3-0.8-0.4c2.1-0.1,4.1-0.1,5.7-0.1c0.2,0.7,0.5,1.5,0.8,2.3c0.1,0.2,0.2,0.4,0.2,0.6c-0.9,0-1.7,0.1-2.6,0.1
		c-3.3,0.1-6.8,0-9.6-0.1c-0.9,0-1.8-0.1-2.5-0.2c1.7-0.2,3.8-0.3,5.7-0.4c2.1-0.1,4.2-0.2,5.7-0.3c1.5-0.1,2.5-0.3,2.6-0.6
		C55.3,14.3,54.3,14.1,52.8,14z M40.8,14.3c1.1-0.2,2.3-0.3,3.6-0.5c0.1,0,0.2,0,0.4,0c0.3,0.1,0.7,0.1,1,0.2
		C44,14,42.3,14.1,40.8,14.3z M42,17.7c-0.7,0-1.2,0-1.5,0c-0.1,0-0.2,0.2-0.2,0.4c-0.2-0.2-0.4-0.4-0.6-0.6
		C40.3,17.6,41.1,17.6,42,17.7z M41.4,34.3c-0.2-0.2-0.6-0.4-1.1-0.7c-0.3-1-0.6-2-0.8-3.2c0.6,0.1,1.1,0.2,1.4,0.2
		C41,31.8,41.2,33,41.4,34.3z M40.6,20.8c0,1,0,2.8,0,5.2c0,1.3,0.1,2.7,0.3,4.1c-0.3-0.2-0.8-0.5-1.5-0.8c-0.3-2.3-0.3-4.7-0.3-6.8
		c0-1.2,0.1-2.2,0.1-2.9c0,0,0.1,0.1,0.1,0.1C39.8,20.1,40.2,20.5,40.6,20.8z M40.7,34.6c0.3,0.1,0.6,0.1,0.8,0.1
		c0,0.1,0,0.3,0.1,0.4c0.1,0.9,0.3,1.8,0.5,2.6c-0.2-0.4-0.4-1-0.7-1.6C41.1,35.7,40.9,35.2,40.7,34.6z M47.8,18.1
		c-0.5-0.1-1.1-0.1-1.6-0.1c2.2,0.1,4.6,0.1,7,0c1.1,0,2.3-0.1,3.4-0.2c0.2,0.5,0.4,1,0.7,1.5c-1.1,0-2.3,0.1-3.5,0.2
		C53.9,18.9,51,18.4,47.8,18.1z M58.6,6.6c0,0.1-0.1,0.1-0.1,0.2c0,0.1,0,0.2,0,0.2c-0.1-0.2-0.1-0.4-0.2-0.5
		C58.5,6.5,58.6,6.5,58.6,6.6z M56.4,5.5c0,0,0,0.1,0,0.1c0.3,0.7,0.8,2.7,1.5,5.3c0.2,0.6,0.3,1.3,0.5,1.9c-0.2-0.2-0.9-0.4-2-0.6
		c-0.1-0.4-0.3-0.8-0.4-1.2c-0.1-0.4-0.2-0.8-0.3-1.2c0,0,0-0.1,0-0.1C56.5,9.6,57,9.5,57,9.3c0-0.2-0.5-0.3-1.5-0.5
		c-0.4-1.6-0.6-3-0.7-4.1C55.3,5,55.9,5.2,56.4,5.5z M44.9,9.6c3.5,0.1,6.8,0.2,9.1,0.2c0,0.1,0.1,0.3,0.1,0.4
		c0.1,0.4,0.2,0.8,0.3,1.3c0,0.2,0.1,0.3,0.1,0.5c-1.7-0.2-3.9-0.2-6.1-0.2c-1.3,0-2.6,0.1-3.9,0.3c-0.6-0.1-1.2-0.2-1.8-0.4
		c-2-0.4-4.2-0.6-5.9-0.8c-1.8-0.2-3.1-0.2-3.7-0.3c0,0-0.1,0-0.1,0c-0.5-0.5-0.9-1-1.4-1.5C34.3,9.3,39.8,9.4,44.9,9.6z M32,22
		c-0.2-0.1-0.5-0.2-0.7-0.4c-0.1-0.4-0.2-0.9-0.4-1.4c0.1,0,0.2,0,0.3,0.1c0.2,0,0.3,0.1,0.5,0.1C31.8,20.9,31.9,21.5,32,22z
		 M30.6,15.2c0.2,1.2,0.5,2.5,0.7,3.9c-0.3-0.1-0.6-0.2-0.8-0.3c-0.3-1.2-0.5-2.3-0.6-3.5c0-0.2,0-0.4-0.1-0.7
		C30.1,14.8,30.4,15,30.6,15.2z M29.7,10c0.1,0.7,0.3,2,0.6,3.5c-0.2-0.2-0.4-0.4-0.6-0.6c0-0.3,0-0.6,0-0.9
		C29.6,11.2,29.7,10.6,29.7,10z M28.9,24.4c0.1,0.2,0.1,0.5,0.2,0.7C29,25,28.9,25,28.8,25c0-0.2,0-0.4-0.1-0.6
		C28.8,24.4,28.8,24.4,28.9,24.4z M28.3,31.5C28.3,31.5,28.3,31.5,28.3,31.5c-1.7-0.4-3.5-0.8-5-1.1c1.2,0.2,2.5,0.4,3.8,0.6
		c0.1,0,0.3,0.1,0.4,0.1C27.7,31.2,28,31.4,28.3,31.5z M26.6,2.8c0.5,0.3,0.9,0.6,1.3,0.9c-0.4,0-0.7,0-0.9,0.1
		c-0.1,0-0.1,0.1-0.2,0.1c-0.5-0.6-1-1.2-1.5-1.8C25.8,2.3,26.2,2.6,26.6,2.8z M24.8,4.2C24.8,4.2,24.8,4.2,24.8,4.2
		c0.3,0.3,0.5,0.5,0.7,0.8c-0.1,0.1-0.1,0.2-0.1,0.3c0,0.3,0,0.6,0,1.1c0,0.1,0,0.2,0,0.3c-0.2-0.1-0.4-0.3-0.6-0.4
		C24.8,5.5,24.8,4.8,24.8,4.2z M24.5,21.3c-0.4-0.2-0.9-0.3-1.3-0.5c-0.1,0-0.2-0.1-0.3-0.1c0-0.2,0-0.4,0-0.6
		c0.3,0.1,0.5,0.2,0.8,0.3c0.2,0.1,0.5,0.2,0.7,0.2C24.4,20.9,24.5,21.1,24.5,21.3z M24,18.6c-0.4-0.1-0.8-0.3-1.3-0.4
		c0-0.3,0-0.6-0.1-0.9c0.1,0,0.2,0.1,0.3,0.1c0.3,0.1,0.6,0.3,0.9,0.4C23.9,18.1,24,18.4,24,18.6z M23.6,15.8
		c-0.4-0.2-0.7-0.3-1.1-0.5c0-0.2,0-0.5-0.1-0.7c0.3,0.2,0.7,0.4,1,0.5C23.5,15.3,23.6,15.5,23.6,15.8z M23.3,12.6
		c0,0.1,0,0.3,0,0.4c-0.3-0.2-0.6-0.4-0.9-0.6c0-0.3,0-0.7,0-1c0-0.1,0-0.2,0-0.4c0.3,0.2,0.6,0.4,0.9,0.6
		C23.2,12,23.3,12.3,23.3,12.6z M22.2,3.4c0-0.3,0-0.6,0-0.8c0.3,0.2,0.6,0.4,0.9,0.6c0,0.5-0.1,1.1-0.1,1.8
		c-0.3-0.2-0.6-0.4-0.9-0.6C22.2,4,22.2,3.7,22.2,3.4z M23.1,7c0,0.2,0,0.5,0,0.7c-0.3-0.2-0.6-0.4-0.9-0.6c0-0.2,0-0.5,0-0.7
		C22.5,6.6,22.8,6.8,23.1,7z M21.8,20.3c-0.7-0.2-1.3-0.5-2-0.7c0-0.2,0-0.3-0.1-0.5c0.6,0.2,1.3,0.4,1.9,0.6
		C21.7,20,21.7,20.2,21.8,20.3z M21.3,17.7c-0.2-0.1-0.4-0.1-0.6-0.2c-0.4-0.1-0.8-0.2-1.2-0.4c-0.1-0.5-0.1-0.9-0.1-1.4
		c0.6,0.3,1.1,0.5,1.7,0.8C21.1,17,21.2,17.3,21.3,17.7z M20.8,14.4c-0.4-0.2-0.8-0.4-1.2-0.6c-0.1-0.1-0.2-0.1-0.4-0.2
		c0,0,0-0.1,0-0.1c0-0.3,0-0.6,0-0.9c0.5,0.3,1,0.6,1.6,0.9C20.8,13.8,20.8,14.1,20.8,14.4z M19.8,1.2c0.3,0.1,0.5,0.3,0.8,0.4
		c0,0.5-0.1,1-0.1,1.6c-0.3-0.2-0.6-0.4-0.9-0.6C19.7,2.1,19.7,1.7,19.8,1.2z M19.4,4.7c0.4,0.2,0.7,0.4,1.1,0.7c0,0.2,0,0.5,0,0.7
		c-0.3-0.2-0.7-0.4-1-0.6c0,0-0.1,0-0.1-0.1C19.3,5.1,19.4,4.9,19.4,4.7z M19.1,9.2c0.5,0.3,0.9,0.5,1.4,0.8c0,0.4,0,0.9,0.1,1.3
		c-0.2-0.1-0.4-0.3-0.6-0.4c-0.3-0.2-0.5-0.3-0.8-0.5C19.1,10,19.1,9.6,19.1,9.2z M18.1,18.6c0,0.1,0,0.3,0.1,0.4
		c-0.3-0.1-0.7-0.2-1-0.4c-0.4-0.1-0.8-0.3-1.1-0.4c0-0.1-0.1-0.1-0.1-0.2c0,0,0-0.1-0.1-0.1c0.2,0.1,0.5,0.1,0.7,0.2
		C17.1,18.3,17.6,18.5,18.1,18.6z M16.9,3.2c0.3,0.2,0.6,0.3,0.9,0.5c0,0.2-0.1,0.5-0.1,0.7c-0.2-0.1-0.4-0.2-0.6-0.3
		C17,4,16.9,4,16.9,4C16.9,3.7,16.9,3.5,16.9,3.2z M17.4,12.8c-0.2-0.1-0.4-0.2-0.6-0.3c0-0.4,0-0.8,0-1.2c0.2,0.1,0.4,0.2,0.6,0.3
		C17.4,12,17.4,12.4,17.4,12.8z M17.4,8.2c0,0.4,0,0.8,0,1.2c-0.2-0.1-0.4-0.2-0.6-0.3c0-0.4,0-0.8,0-1.1C17,8,17.2,8.1,17.4,8.2z
		 M16.5,16.2c0.2,0,0.3-0.6,0.3-1.6c0.2,0.1,0.5,0.2,0.7,0.4c0.1,0.6,0.1,1.2,0.2,1.7c-0.2-0.1-0.4-0.1-0.5-0.2
		c-0.8-0.2-1.6-0.5-2.3-0.6c-0.3-0.8-0.7-1.7-1-2.7c0.3,0.1,0.5,0.2,0.8,0.3c0.3,0.1,0.7,0.3,1,0.5C16,15.4,16.3,16.2,16.5,16.2z
		 M14.5,6.8c0.2,0.1,0.4,0.2,0.6,0.3c0,0.3,0,0.7,0,1C15,8,14.8,7.8,14.6,7.7C14.6,7.4,14.5,7.1,14.5,6.8z M15.4,11.8
		c-0.2-0.1-0.5-0.2-0.7-0.3c0.1-0.2,0.1-0.7,0.1-1.5c0.2,0.1,0.3,0.2,0.5,0.3C15.3,10.9,15.4,11.4,15.4,11.8z M14.4,1.9
		C14.4,1.9,14.4,1.9,14.4,1.9c0.3,0.2,0.6,0.3,0.8,0.4c0,0.3,0,0.5,0,0.8c-0.3-0.1-0.5-0.3-0.8-0.4c0-0.1,0-0.2,0-0.4
		C14.3,2.2,14.3,2,14.4,1.9z M13,6.8c-0.1,0-0.2-0.1-0.2-0.1c-0.2-0.1-0.3-0.2-0.5-0.3c0-0.2-0.1-0.4-0.1-0.7
		c0.2,0.1,0.5,0.2,0.7,0.3C12.9,6.3,13,6.5,13,6.8z M11.9,0.8c0.2,0.1,0.5,0.2,0.7,0.3c0,0.3,0,0.5,0,0.8c0,0-0.1,0-0.1-0.1
		c-0.2-0.1-0.4-0.2-0.6-0.3c0-0.1,0-0.2,0-0.2C11.9,1.1,11.9,1,11.9,0.8z M12,3.6C12,3.6,12,3.6,12,3.6C12,3.6,12,3.6,12,3.6
		C12,3.6,12,3.6,12,3.6z M10.7,10c-0.1-0.8-0.2-1.6-0.2-2.5c0.1,0,0.1,0.1,0.2,0.1c0.2,0.9,0.3,1.7,0.6,2.6
		C11.1,10.1,10.9,10.1,10.7,10z M11.6,18.9c0,0.1-0.1,0.1-0.1,0.2c0-0.2,0.1-0.4,0.1-0.6c0-0.1,0-0.2,0.1-0.3
		c0.1,0.1,0.1,0.3,0.2,0.4C11.8,18.7,11.7,18.8,11.6,18.9z M12.7,15.3c-0.1,0-0.1,0-0.2,0.1c-0.5-1.1-0.9-2.2-1.4-3.3
		c0.2,0.1,0.5,0.2,0.8,0.3c0.4,1.1,0.8,2.1,1.2,3C13,15.4,12.9,15.3,12.7,15.3z M12.7,8.8C13,9,13.2,9.1,13.5,9.3
		c0.3,1,0.5,1.7,0.8,2.1c-0.4-0.2-0.7-0.3-1.1-0.4C13,10.2,12.9,9.5,12.7,8.8z M13.5,17.3C13.5,17.3,13.4,17.3,13.5,17.3
		C13.4,17.3,13.4,17.3,13.5,17.3c0.2,0,0.5,0.1,0.8,0.2c0,0,0.1,0.1,0.1,0.1C14,17.5,13.7,17.4,13.5,17.3z M14.7,20.3
		c-0.1-0.2-0.2-0.5-0.3-0.7c0.6,0.2,1.2,0.5,2,0.8c0,0,0,0,0,0c0.2,0.2,0.4,0.3,0.5,0.3c0,0,0-0.1,0-0.1c0.5,0.2,1.1,0.4,1.6,0.6
		c0,0.1,0,0.2,0.1,0.3c-1.7-0.6-3-1-3.6-1.2C14.9,20.2,14.8,20.3,14.7,20.3z M16.7,24.2c0,0-0.1,0-0.1,0c-0.3-0.6-0.6-1.3-0.9-1.9
		c0.9,0.3,2.1,0.7,3.5,1.2c0.2,0.7,0.4,1.4,0.6,1.9C18.3,24.8,17.1,24.4,16.7,24.2z M18.1,31.7c0.3,0.5,0.5,1,0.8,1.5c0,0,0,0,0,0
		c-0.2,0.6-0.9,2.2-1.7,4.4c-0.1,0.2-0.2,0.5-0.3,0.7C17.4,35.7,17.8,33.3,18.1,31.7z M19.3,42.1c-0.8,2.7-1.5,6.1-2,9.5
		c-0.1,0.9-0.3,1.9-0.4,2.8c-0.1-0.5-0.1-1.1-0.2-1.8c-0.2-1.9-0.2-4.5,0.2-7.1c0.4-2.6,1.2-5.2,2-7.4c0.4-1.1,0.8-2.1,1.1-2.9
		c0,0.1,0.1,0.1,0.1,0.2c0.3,0.5,0.6,1,0.8,1.5C20.6,37.8,20,39.7,19.3,42.1z M21.8,33.6c-0.1,0-0.2,0.1-0.4,0.4
		c-0.1-0.3-0.3-0.5-0.4-0.8c0.6,0.3,1.4,0.6,2.3,0.9C22.6,33.9,22.1,33.7,21.8,33.6z M23.5,37.8c-0.4-0.7-0.8-1.4-1.1-2.1
		c1.4,0.6,3.7,1.5,6,2.3c0.8,0.3,1.5,0.6,2.2,0.8c-1.2-0.2-2.4-0.4-3.4-0.6C25.6,38,24.4,37.9,23.5,37.8z M39.3,44.6
		c-1.4-0.3-2.8-0.4-4.2-0.6c-1.4-0.2-2.7-0.3-3.9-0.4c-1.8-0.1-3.3-0.1-4.3-0.2c-0.3-0.4-0.5-0.9-0.8-1.3c1.5,0.1,3.7,0.4,5.8,0.6
		c3.2,0.3,6.1,0.7,6.3,0.1c0.2-0.5-2.7-1.3-6-1.8c-2.9-0.4-5.9-0.6-7.2-0.7c-0.1-0.2-0.3-0.5-0.4-0.7c0.6,0.1,1.4,0.2,2.1,0.3
		c2,0.3,4.5,0.8,6.9,1.2c2.4,0.4,4.7,0.9,6.4,1.1c1.7,0.3,2.9,0.3,3,0c0.1-0.3-0.9-0.7-2.6-1.3c-0.2-0.1-0.4-0.1-0.6-0.2
		c0-0.5-0.1-1.1-0.2-1.9c0.9,0.2,1.8,0.4,2.7,0.5c0.3,1.4,0.7,2.7,1,3.9c0.3,0.9,0.5,1.6,0.8,2.2C42.7,45.3,41,44.9,39.3,44.6z
		 M48.3,46.9C48.3,47,48.3,47,48.3,46.9c-0.4-0.1-1-0.3-1.6-0.6c-0.5-0.1-1-0.3-1.5-0.5c-0.1-0.7-0.2-1.6-0.5-2.7
		c-0.2-1-0.4-2.1-0.6-3.3c0.5,0.1,1,0.1,1.4,0.2C46.3,42.7,47.3,45.1,48.3,46.9z M47.7,39.6c-0.2-0.1-0.4-0.1-0.6-0.2
		c-0.1-0.3-0.2-0.6-0.2-0.8c-0.4-1.5-0.7-3-1-4.5c-0.2-1.5-0.4-2.9-0.4-4.2c-0.1-1.9,0.1-3.4,0.2-4.4c0.1,0.1,0.1,0.1,0.2,0.2
		c0,0,0,0,0,0c0,0.6-0.1,2.2,0.1,4.3c0.1,2,0.5,4.5,1,6.9C47.2,37.8,47.4,38.7,47.7,39.6z M46.7,24.1c1.4-0.3,3.4-0.7,5.4-1.1
		c3-0.6,5.7-1.1,5.7-1.7c0-0.5-2.8-0.4-5.9,0.1c-2.7,0.4-5.5,1.1-6.6,1.4c-0.2-0.2-0.4-0.3-0.6-0.5c0.6-0.1,1.3-0.2,2-0.3
		c1.9-0.3,4.3-0.6,6.5-0.9c1.7-0.2,3.3-0.4,4.7-0.6c0.1,0.2,0.2,0.4,0.3,0.6c0.1,0.2,0.2,0.5,0.4,0.7c0.1,0.2,0.3,0.4,0.4,0.7
		c0,0,0.1,0.1,0.1,0.1c-1.3,0.2-2.5,0.4-3.7,0.6c-1.3,0.3-2.5,0.5-3.6,0.8c-1.7,0.4-3,0.8-3.9,1.1C47.4,24.8,47.1,24.5,46.7,24.1z
		 M50.5,27.5C50.5,27.5,50.5,27.5,50.5,27.5c-0.4-0.4-0.9-0.7-1.3-1.1c0.8-0.2,1.7-0.5,2.8-0.7c1.1-0.3,2.3-0.5,3.5-0.8
		c1.3-0.2,2.6-0.5,3.9-0.7c0.2,0,0.4-0.1,0.6-0.1c0.3,0.5,0.6,0.9,0.9,1.4c-2.1,0.3-4.3,0.6-6.1,1c-1,0.2-1.9,0.4-2.7,0.6
		C51.4,27.2,50.8,27.4,50.5,27.5z M53.3,29.8c-0.4-0.3-0.8-0.6-1.2-1c1.3-0.2,4.2-0.5,6.9-0.9c1.2-0.1,2.4-0.3,3.4-0.5
		c0.2,0.3,0.5,0.6,0.7,0.9c0.1,0.1,0.2,0.3,0.3,0.4C59.1,29.1,55,29.6,53.3,29.8z M55.1,31.2c2.4-0.2,6-0.6,9.7-0.9
		c0.2,0.2,0.4,0.4,0.6,0.6c-0.3,0-0.6,0-0.9,0c-1.3,0.1-2.6,0.1-3.8,0.3c-2.2,0.3-3.9,0.6-4.6,0.8C55.7,31.7,55.4,31.5,55.1,31.2z
		 M57.5,40.3c-0.3-1.2-0.6-2.3-0.8-3.3c-0.2-1.2-0.4-2.2-0.5-3c0.5,0.4,1,0.7,1.4,1c0,0.7,0,2.2,0.2,4.2c0.1,1,0.3,2.2,0.5,3.3
		C58,41.8,57.7,41,57.5,40.3z M73.6,33.4c-1.4,0-2.9,0.1-4.2,0.2c-1.4,0.1-2.7,0.3-3.9,0.5c-2.4,0.3-4.3,0.7-5,0.9
		c-0.1,0-0.1,0.1-0.2,0.2c-0.8-0.6-1.6-1.2-2.5-1.9c0.8-0.1,1.9-0.3,3-0.4c1.1-0.1,2.3-0.2,3.6-0.3c0.9,0,1.9,0,2.8,0
		c0.7,0.5,1.1,0.8,1.2,0.7c0.1-0.1,0-0.3-0.3-0.7c0,0,0.1,0,0.1,0c2.6,0.1,5,0.4,6.7,0.8C74.5,33.4,74,33.4,73.6,33.4z M75.5,32.3
		c-1.8-0.6-4.3-1.1-7-1.2c-0.5,0-1.1-0.1-1.6-0.1c-0.2-0.3-0.4-0.5-0.6-0.8c1.7-0.2,3.4-0.3,4.9-0.5c0.5,0.4,1,0.7,1.4,1
		c0.6,0.4,1.1,0.7,1.6,1C74.7,31.9,75.1,32.1,75.5,32.3c0.2,0.1,0.3,0.1,0.4,0.1C75.7,32.3,75.6,32.3,75.5,32.3z M76,29
		c1.3,1.8,2.6,3.4,3.8,4.6c-0.5-0.1-1.1-0.1-1.7-0.1c-0.1-0.1-0.3-0.2-0.6-0.4c-0.2-0.1-0.5-0.3-0.9-0.4c-0.2-0.1-0.4-0.1-0.6-0.2
		c0,0,0,0,0,0c0.4,0.1,0.7,0.2,0.7,0.1c0.1-0.1-0.3-0.5-0.9-0.9c-0.3-0.2-0.7-0.5-1.1-0.8c-0.4-0.3-0.9-0.7-1.5-1.1
		c-0.1,0-0.1-0.1-0.2-0.2c0.3,0,0.5-0.1,0.8-0.1C74.7,29.2,75.4,29.1,76,29z M71.3,21.2c0.8,1.6,1.7,3.3,2.7,4.8
		c0.4,0.7,0.9,1.4,1.4,2.1c-0.3,0-0.7,0-1.1,0c-0.5-1.4-2.7-5-4.7-8.9c-1.2-2.4-2.4-4.9-3.3-7c-0.4-0.9-0.7-1.7-1-2.4
		c0.4,0.2,0.9,0.4,1.3,0.6c0.3,0.1,0.5,0.2,0.8,0.4c0.3,1,0.8,3.2,1.9,5.9C69.9,18,70.6,19.6,71.3,21.2z M79.3,15.7
		c0-0.1-0.1-0.1-0.1-0.2c0.1,0.1,0.3,0.1,0.4,0.2c-0.1,0.1-0.1,0.2-0.1,0.3c0,0.1,0.1,0.1,0.1,0.2C79.5,16,79.4,15.8,79.3,15.7z
		 M97.5,18.2c-0.6,0.3-1.1,0.5-1.4,0.7c-0.1,0-0.1,0.2,0,0.5c-0.3-0.1-0.5-0.2-0.8-0.2C96,18.8,96.7,18.5,97.5,18.2z M97.9,13.5
		c0.1-0.1,0.2-0.1,0.3-0.2c0.3-0.1,0.6-0.2,0.9-0.3c-1.5,0.9-3,1.8-4.2,2.7C95.8,15,96.8,14.3,97.9,13.5z M90.3,17.5
		c-0.6-0.2-1.1-0.4-1.7-0.6c0.5-0.2,1.1-0.5,1.8-0.7c0.7-0.3,1.6-0.6,2.4-0.9C91.5,16.3,90.7,17.1,90.3,17.5
		C90.3,17.5,90.3,17.5,90.3,17.5z M92.4,20c0.5,0.2,1,0.3,1.5,0.5c0,0,0,0,0,0c0.3,0.6,0.9,2.1,1.8,4.1c0.1,0.2,0.2,0.4,0.3,0.7
		C94.6,23.2,93.3,21.4,92.4,20z M100.2,26.1c1.3,2.3,3.1,5.1,5,7.6c0.5,0.7,1.1,1.4,1.6,2.1c-0.4-0.3-0.8-0.6-1.3-1.1
		c-1.4-1.1-3.1-2.8-4.6-4.8c-1.5-2-2.7-4.3-3.6-6.2c-0.5-1-0.9-1.9-1.3-2.7c0.1,0,0.1,0,0.2,0c0.5,0.2,1,0.3,1.6,0.4
		C98.2,22.4,99,24.1,100.2,26.1z M97.9,19.8c1.3-0.6,3.5-1.5,5.5-2.5c0.7-0.3,1.4-0.6,2-0.9c-0.9,0.7-1.8,1.3-2.6,1.9
		c-1.2,0.9-2.1,1.6-2.7,2.1C99.4,20.2,98.6,20,97.9,19.8z M123.5,32.5c-0.6-0.6-1.2-1.1-1.7-1.7c-0.8-0.9-1.6-1.7-2.3-2.5
		c-0.8-0.9-1.4-1.7-1.9-2.4c0.6,0.1,1.2,0.2,1.8,0.3c0.3,0.6,1,2,2.1,3.6C122.1,30.6,122.8,31.6,123.5,32.5z M121.9,24.8
		c-0.1,0.1-0.1,0.2-0.1,0.3c-1-0.2-2-0.3-3.1-0.5c0.7-0.5,1.5-1.1,2.5-1.8c0.9-0.6,2-1.3,3.1-1.9c1.1-0.6,2.3-1.3,3.4-1.8
		c2.3-1.1,4.6-1.9,6.3-2.5c-0.4,0.2-0.8,0.4-1.2,0.7c-1.2,0.7-2.5,1.4-3.6,2.2c-1.2,0.8-2.3,1.5-3.3,2.2
		C123.9,23.1,122.4,24.3,121.9,24.8z M126.1,27.2C126.1,27.1,126,27.1,126.1,27.2C126,27.1,126.1,27.1,126.1,27.2
		C126.1,27.1,126.1,27.1,126.1,27.2z M128.6,27.1C128.5,27.1,128.5,27.1,128.6,27.1C128.5,27.1,128.6,27.1,128.6,27.1
		C128.6,27.1,128.6,27.1,128.6,27.1z"/>
</g>
</svg>
