<?xml version="1.0" encoding="utf-8"?>
<!-- Generator: Adobe Illustrator 22.1.0, SVG Export Plug-In . SVG Version: 6.00 Build 0)  -->
<svg version="1.1" id="Layer_1" xmlns="http://www.w3.org/2000/svg" xmlns:xlink="http://www.w3.org/1999/xlink" x="0px" y="0px"
	 viewBox="0 0 96.9 99.1" style="enable-background:new 0 0 96.9 99.1;" xml:space="preserve">
<style type="text/css">
	.st0{fill:#FFFFFF;}
</style>
<g>
	<path class="st0" d="M66.4,68.3c2.3-0.5,3.5-3.3,1.9-5.3l-4.6-6h0.9c2.4,0,3.8-2.8,2.3-4.7l-8-10.4c-0.5-0.6-1.2-1-1.9-1.1
		c0,0,0,0,0,0V0h-0.9v40.8c0,0,0,0,0,0c-0.7,0.1-1.4,0.5-1.9,1.1l-8,10.4c-1.5,1.9-0.1,4.7,2.3,4.7h0.9l-4.7,6
		c-1.5,2-0.4,4.8,1.9,5.3l-4.3,5.6c-2,2.6-0.1,6.4,3.2,6.4h21.9c3.3,0,5.2-3.8,3.2-6.4L66.4,68.3z"/>
	<path class="st0" d="M37,35.6l-6.6-0.9c-0.6-0.1-1-0.4-1.3-0.9l-2.9-6c-0.2-0.4-0.6-0.7-1-0.9V0h-1.1v26.9c-0.4,0.1-0.8,0.4-1,0.9
		l-2.9,6c-0.2,0.5-0.7,0.8-1.3,0.9l-6.6,0.9c-1.4,0.2-2,1.9-0.9,2.9l4.8,4.6c0.4,0.4,0.6,1,0.5,1.5l-1.1,6.5
		c-0.2,1.4,1.2,2.5,2.5,1.8l5.9-3.1c0.5-0.3,1.1-0.3,1.6,0l5.9,3.1c1.2,0.7,2.7-0.4,2.5-1.8l-1.1-6.5c-0.1-0.6,0.1-1.1,0.5-1.5
		l4.8-4.6C38.9,37.5,38.4,35.8,37,35.6z"/>
	<g>
		<path class="st0" d="M88.8,26.7c6.8,0.5,9.2-3.2,7-7.1c-2.4-4-7.7,1.2-10.4,4.2V0h-0.9v23.8c-2.7-3.1-8-8.3-10.4-4.2
			c-2.3,3.8,0.2,7.6,7,7.1c-4.7,1.6-8,6-8,11.2c0,6.6,5.3,11.9,11.9,11.9c6.6,0,11.9-5.3,11.9-11.9C96.9,32.7,93.5,28.3,88.8,26.7z
			 M94.3,20.6c1.7,3-1.2,6.3-8.2,4.3C86.1,24.9,92.3,17.1,94.3,20.6z M75.6,20.6c2.1-3.5,8.2,4.3,8.2,4.3
			C76.8,26.9,73.9,23.5,75.6,20.6z M94,37.7h-1l0.7,0.7c0.1,0.1,0.1,0.2,0,0.3c0,0-0.1,0.1-0.2,0.1c-0.1,0-0.1,0-0.2-0.1l-1-1h-1
			l1.3,1.3c0.1,0.1,0.1,0.2,0,0.3c0,0-0.1,0.1-0.2,0.1c-0.1,0-0.1,0-0.2-0.1l-1.6-1.6h-2.9c0,0,0,0.1-0.1,0.1l-0.9,0.6l0.1,0.7
			l2.3,2.3l2.3,0c0.1,0,0.2,0.1,0.2,0.2c0,0.1-0.1,0.2-0.2,0.2l-1.8,0l0.7,0.7l1.4,0c0.1,0,0.2,0.1,0.2,0.2c0,0.1-0.1,0.2-0.2,0.2
			l-0.9,0l0.7,0.7c0.1,0.1,0.1,0.2,0,0.3c0,0-0.1,0.1-0.2,0.1c-0.1,0-0.1,0-0.2-0.1l-0.7-0.7l0,0.9c0,0.1-0.1,0.2-0.2,0.2
			c0,0,0,0,0,0c-0.1,0-0.2-0.1-0.2-0.2l0-1.4l-0.7-0.7l0,1.8c0,0.1-0.1,0.2-0.2,0.2c0,0,0,0,0,0c-0.1,0-0.2-0.1-0.2-0.2l0-2.3l-2-2
			c-0.1,0-0.1,0.1-0.2,0.1l-1-0.2l-0.6,0.8v2.9l1.6,1.6c0.1,0.1,0.1,0.2,0,0.3c0,0-0.1,0.1-0.2,0.1c-0.1,0-0.1,0-0.2-0.1l-1.3-1.3v1
			l1,1c0.1,0.1,0.1,0.2,0,0.3c0,0-0.1,0.1-0.2,0.1c-0.1,0-0.1,0-0.2-0.1l-0.7-0.7v1c0,0.1-0.1,0.2-0.2,0.2c-0.1,0-0.2-0.1-0.2-0.2
			v-1L84,46.2c-0.1,0.1-0.2,0.1-0.3,0c-0.1-0.1-0.1-0.2,0-0.3l1-1v-1l-1.3,1.3c-0.1,0.1-0.2,0.1-0.3,0c-0.1-0.1-0.1-0.2,0-0.3
			l1.6-1.6v-2.8c0,0,0,0,0,0l-0.6-0.9l-0.7,0.1l-2.1,2.1l0,2.3c0,0.1-0.1,0.2-0.2,0.2c0,0,0,0,0,0c-0.1,0-0.2-0.1-0.2-0.2l0-1.8
			L80,43l0,1.4c0,0.1-0.1,0.2-0.2,0.2c0,0,0,0,0,0c-0.1,0-0.2-0.1-0.2-0.2l0-0.9l-0.7,0.7c0,0-0.1,0.1-0.2,0.1s-0.1,0-0.2-0.1
			c-0.1-0.1-0.1-0.2,0-0.3l0.7-0.7l-0.9,0c-0.1,0-0.2-0.1-0.2-0.2c0-0.1,0.1-0.2,0.2-0.2l1.4,0l0.7-0.7l-1.8,0
			c-0.1,0-0.2-0.1-0.2-0.2c0-0.1,0.1-0.2,0.2-0.2c0,0,0,0,0,0l2.3,0l1.9-1.9c0-0.1-0.1-0.1,0-0.2l0.2-1L82,37.8c0,0,0,0,0,0h-2.7
			l-1.6,1.6c0,0-0.1,0.1-0.2,0.1c-0.1,0-0.1,0-0.2-0.1c-0.1-0.1-0.1-0.2,0-0.3l1.3-1.3h-1l-1,1c0,0-0.1,0.1-0.2,0.1
			c-0.1,0-0.1,0-0.2-0.1c-0.1-0.1-0.1-0.2,0-0.3l0.7-0.7h-1c-0.1,0-0.2-0.1-0.2-0.2c0-0.1,0.1-0.2,0.2-0.2h1l-0.7-0.7
			c-0.1-0.1-0.1-0.2,0-0.3c0.1-0.1,0.2-0.1,0.3,0l1,1h1L77.4,36c-0.1-0.1-0.1-0.2,0-0.3c0.1-0.1,0.2-0.1,0.3,0l1.6,1.6h2.8l0.8-0.5
			l-0.2-1l-2-2l-2.3,0c0,0,0,0,0,0c-0.1,0-0.2-0.1-0.2-0.2c0-0.1,0.1-0.2,0.2-0.2l1.8,0l-0.7-0.7l-1.4,0c0,0,0,0,0,0
			c-0.1,0-0.2-0.1-0.2-0.2c0-0.1,0.1-0.2,0.2-0.2l0.9,0l-0.7-0.7c-0.1-0.1-0.1-0.2,0-0.3c0.1-0.1,0.2-0.1,0.3,0l0.7,0.7l0-0.9
			c0-0.1,0.1-0.2,0.2-0.2c0,0,0,0,0,0c0.1,0,0.2,0.1,0.2,0.2l0,1.4l0.7,0.7l0-1.8c0-0.1,0.1-0.2,0.2-0.2c0,0,0,0,0,0
			c0.1,0,0.2,0.1,0.2,0.2l0,2.3l2,2l1,0.2l0.6-0.9c0,0,0,0,0,0v-2.9L83,30.3C83,30.2,83,30,83,29.9c0.1-0.1,0.2-0.1,0.3,0l1.3,1.3
			v-1l-1-1c-0.1-0.1-0.1-0.2,0-0.3c0.1-0.1,0.2-0.1,0.3,0l0.7,0.7v-1c0-0.1,0.1-0.2,0.2-0.2c0.1,0,0.2,0.1,0.2,0.2v1l0.7-0.7
			c0.1-0.1,0.2-0.1,0.3,0s0.1,0.2,0,0.3l-1,1v1l1.3-1.3c0.1-0.1,0.2-0.1,0.3,0c0.1,0.1,0.1,0.2,0,0.3l-1.6,1.6v2.9l0.6,0.8l1-0.2
			l2.1-2.1l0-2.3c0-0.1,0.1-0.2,0.2-0.2c0,0,0,0,0,0c0.1,0,0.2,0.1,0.2,0.2l0,1.8l0.7-0.7l0-1.4c0-0.1,0.1-0.2,0.2-0.2c0,0,0,0,0,0
			c0.1,0,0.2,0.1,0.2,0.2l0,0.9l0.7-0.7c0.1-0.1,0.2-0.1,0.3,0c0.1,0.1,0.1,0.2,0,0.3L90.7,32l0.9,0c0.1,0,0.2,0.1,0.2,0.2
			c0,0.1-0.1,0.2-0.2,0.2c0,0,0,0,0,0l-1.4,0l-0.7,0.7l1.8,0c0.1,0,0.2,0.1,0.2,0.2c0,0.1-0.1,0.2-0.2,0.2c0,0,0,0,0,0l-2.3,0
			L87,35.7c0,0,0,0,0,0l-0.2,1l0.7,0.5h3.2l1.6-1.6c0.1-0.1,0.2-0.1,0.3,0c0.1,0.1,0.1,0.2,0,0.3l-1.3,1.3h1l1-1
			c0.1-0.1,0.2-0.1,0.3,0c0.1,0.1,0.1,0.2,0,0.3L93,37.2h1c0.1,0,0.2,0.1,0.2,0.2C94.2,37.6,94.1,37.7,94,37.7z"/>
		<path class="st0" d="M86.2,36.8l0.1-0.8l-0.8,0.1c-0.1,0-0.2,0-0.3-0.1l-0.5-0.7l-0.5,0.7c-0.1,0.1-0.2,0.1-0.3,0.1L83.3,36
			c0,0,0,0,0,0c0,0,0,0,0,0l0.1,0.8c0,0.1,0,0.2-0.1,0.3l-0.6,0.4c0,0,0,0,0,0.1l0.6,0.4c0.1,0.1,0.1,0.2,0.1,0.3l-0.1,0.8l0.8-0.1
			c0,0,0,0,0,0c0.1,0,0.2,0,0.2,0.1l0.5,0.7l0.5-0.7c0.1-0.1,0.2-0.1,0.3-0.1l0.8,0.1l-0.1-0.8c0-0.1,0-0.2,0.1-0.3l0.7-0.5
			l-0.7-0.5C86.3,37,86.2,36.9,86.2,36.8z"/>
	</g>
	<circle class="st0" cx="62.5" cy="97.4" r="1.8"/>
	<path class="st0" d="M85.1,95.6c0,1.2-1,2.2-2.2,2.2c-1.2,0-2.2-1-2.2-2.2c0-1.2,1-2.2,2.2-2.2C84.1,93.5,85.1,94.4,85.1,95.6z"/>
	<path class="st0" d="M43.2,89.9c0,0.6-0.5,1.2-1.2,1.2c-0.6,0-1.2-0.5-1.2-1.2c0-0.6,0.5-1.2,1.2-1.2
		C42.7,88.7,43.2,89.2,43.2,89.9z"/>
	<path class="st0" d="M84.1,64.5c0,0.7-0.6,1.3-1.3,1.3s-1.3-0.6-1.3-1.3c0-0.7,0.6-1.3,1.3-1.3S84.1,63.7,84.1,64.5z"/>
	<circle class="st0" cx="2.5" cy="60" r="2"/>
	<circle class="st0" cx="29.9" cy="62.2" r="1.5"/>
	<g>
		<path class="st0" d="M89.7,84c-0.2,0-0.4-0.2-0.4-0.4v-7.5c0-0.2,0.2-0.4,0.4-0.4s0.4,0.2,0.4,0.4v7.5C90.1,83.8,89.9,84,89.7,84z
			"/>
		<path class="st0" d="M93.4,80.2h-7.5c-0.2,0-0.4-0.2-0.4-0.4s0.2-0.4,0.4-0.4h7.5c0.2,0,0.4,0.2,0.4,0.4S93.6,80.2,93.4,80.2z"/>
		<path class="st0" d="M87,82.9c-0.1,0-0.2,0-0.3-0.1c-0.2-0.2-0.2-0.4,0-0.6l5.3-5.3c0.2-0.2,0.4-0.2,0.6,0c0.2,0.2,0.2,0.4,0,0.6
			l-5.3,5.3C87.2,82.8,87.1,82.9,87,82.9z"/>
		<path class="st0" d="M92.3,82.9c-0.1,0-0.2,0-0.3-0.1l-5.3-5.3c-0.2-0.2-0.2-0.4,0-0.6c0.2-0.2,0.4-0.2,0.6,0l5.3,5.3
			c0.2,0.2,0.2,0.4,0,0.6C92.5,82.8,92.4,82.9,92.3,82.9z"/>
	</g>
	<g>
		<path class="st0" d="M39.2,51.2c-0.1,0-0.2-0.1-0.2-0.2v-3c0-0.1,0.1-0.2,0.2-0.2c0.1,0,0.2,0.1,0.2,0.2v3
			C39.3,51.1,39.3,51.2,39.2,51.2z"/>
		<path class="st0" d="M40.7,49.6h-3c-0.1,0-0.2-0.1-0.2-0.2c0-0.1,0.1-0.2,0.2-0.2h3c0.1,0,0.2,0.1,0.2,0.2
			C40.9,49.6,40.8,49.6,40.7,49.6z"/>
		<path class="st0" d="M38.1,50.7c0,0-0.1,0-0.1,0c-0.1-0.1-0.1-0.2,0-0.2l2.2-2.2c0.1-0.1,0.2-0.1,0.2,0c0.1,0.1,0.1,0.2,0,0.2
			l-2.2,2.2C38.2,50.7,38.1,50.7,38.1,50.7z"/>
		<path class="st0" d="M40.2,50.7c0,0-0.1,0-0.1,0L38,48.5c-0.1-0.1-0.1-0.2,0-0.2c0.1-0.1,0.2-0.1,0.2,0l2.2,2.2
			c0.1,0.1,0.1,0.2,0,0.2C40.3,50.7,40.3,50.7,40.2,50.7z"/>
	</g>
	<g>
		<path class="st0" d="M3.6,46.6c-0.2,0-0.4-0.2-0.4-0.4v-6.5c0-0.2,0.2-0.4,0.4-0.4S4,39.5,4,39.7v6.5C4,46.5,3.8,46.6,3.6,46.6z"
			/>
		<path class="st0" d="M6.9,43.4H0.4C0.2,43.4,0,43.2,0,43s0.2-0.4,0.4-0.4h6.5c0.2,0,0.4,0.2,0.4,0.4S7.1,43.4,6.9,43.4z"/>
		<path class="st0" d="M1.3,45.7c-0.1,0-0.2,0-0.3-0.1c-0.1-0.1-0.1-0.4,0-0.5l4.6-4.6c0.1-0.1,0.4-0.1,0.5,0c0.1,0.1,0.1,0.4,0,0.5
			l-4.6,4.6C1.5,45.6,1.4,45.7,1.3,45.7z"/>
		<path class="st0" d="M5.9,45.7c-0.1,0-0.2,0-0.3-0.1l-4.6-4.6c-0.1-0.1-0.1-0.4,0-0.5c0.1-0.1,0.4-0.1,0.5,0l4.6,4.6
			c0.1,0.1,0.1,0.4,0,0.5C6.1,45.6,6,45.7,5.9,45.7z"/>
	</g>
	<g>
		<path class="st0" d="M50.1,92.4c-0.2,0-0.3-0.1-0.3-0.3v-5.2c0-0.2,0.1-0.3,0.3-0.3c0.2,0,0.3,0.1,0.3,0.3v5.2
			C50.4,92.3,50.3,92.4,50.1,92.4z"/>
		<path class="st0" d="M52.7,89.8h-5.2c-0.2,0-0.3-0.1-0.3-0.3c0-0.2,0.1-0.3,0.3-0.3h5.2c0.2,0,0.3,0.1,0.3,0.3
			C53,89.7,52.9,89.8,52.7,89.8z"/>
		<path class="st0" d="M48.3,91.6c-0.1,0-0.1,0-0.2-0.1c-0.1-0.1-0.1-0.3,0-0.4l3.7-3.7c0.1-0.1,0.3-0.1,0.4,0
			c0.1,0.1,0.1,0.3,0,0.4l-3.7,3.7C48.4,91.6,48.4,91.6,48.3,91.6z"/>
		<path class="st0" d="M52,91.6c-0.1,0-0.1,0-0.2-0.1l-3.7-3.7c-0.1-0.1-0.1-0.3,0-0.4c0.1-0.1,0.3-0.1,0.4,0l3.7,3.7
			c0.1,0.1,0.1,0.3,0,0.4C52.1,91.6,52,91.6,52,91.6z"/>
	</g>
</g>
</svg>
