<?xml version="1.0" encoding="utf-8"?>
<!-- Generator: Adobe Illustrator 22.1.0, SVG Export Plug-In . SVG Version: 6.00 Build 0)  -->
<svg version="1.1" id="Layer_1" xmlns="http://www.w3.org/2000/svg" xmlns:xlink="http://www.w3.org/1999/xlink" x="0px" y="0px"
	 viewBox="0 0 121.1 148.2" style="enable-background:new 0 0 121.1 148.2;" xml:space="preserve">
<style type="text/css">
	.st0{fill:#FFFFFF;}
</style>
<g>
	<rect x="66.7" class="st0" width="1" height="95.8"/>
	<path class="st0" d="M83.4,132.7l-4.9-6.4c2.6-0.6,4-3.8,2.2-6.1l-5.3-6.9h1c2.8,0,4.3-3.2,2.7-5.4l-9.2-11.9c-1.3-1.7-4-1.7-5.3,0
		L55.4,108c-1.7,2.2-0.1,5.4,2.7,5.4h1l-5.3,6.9c-1.8,2.3-0.4,5.5,2.2,6.1l-4.9,6.4c-2.3,3-0.2,7.4,3.6,7.4h25.1
		C83.5,140.1,85.7,135.8,83.4,132.7z M67.2,99.8c-0.8,0-1.5-0.7-1.5-1.5c0-0.8,0.7-1.5,1.5-1.5s1.5,0.7,1.5,1.5
		C68.7,99.1,68,99.8,67.2,99.8z"/>
	<g>
		<g>
			<g>
				<path class="st0" d="M99.3,62.2c0,5.3-8.8,9.7-14.4,9.7c-5.5,0-5.1-4.3-5.1-9.7c0-5.3-0.5-9.7,5.1-9.7
					C90.4,52.5,99.3,56.8,99.3,62.2z"/>
				<path class="st0" d="M101.6,62.2c0,5.3,8.8,9.7,14.4,9.7c5.5,0,5.1-4.3,5.1-9.7c0-5.3,0.5-9.7-5.1-9.7
					C110.4,52.5,101.6,56.8,101.6,62.2z"/>
			</g>
			<path class="st0" d="M104.3,62.4c0-2.7-1.7-3.4-3.9-3.4s-3.9,0.7-3.9,3.4c0,2.7,1.7,3.9,3.9,3.9S104.3,65.1,104.3,62.4z"/>
		</g>
		<g>
			<polygon class="st0" points="101.2,64.1 96.5,79.8 93.1,76.8 88.1,77 96.9,63.3 			"/>
			<polygon class="st0" points="99.7,64.1 104.4,79.8 107.8,76.8 112.8,77 104,63.3 			"/>
		</g>
	</g>
	<rect x="99.9" class="st0" width="1.3" height="60.8"/>
	<rect x="25.9" y="0.5" class="st0" width="1.3" height="65.2"/>
	<g>
		<path class="st0" d="M6.7,71v26.5h39.6V71H6.7z M35.6,80.9l-4.2,3c-0.3,0.2-0.5,0.7-0.3,1l1.6,4.9c0.3,0.8-0.7,1.6-1.4,1l-4.2-3
			c-0.3-0.2-0.8-0.2-1.1,0l-4.2,3c-0.7,0.5-1.7-0.2-1.4-1L22,85c0.1-0.4,0-0.8-0.3-1l-4.2-3c-0.7-0.5-0.4-1.7,0.5-1.7h5.2
			c0.4,0,0.8-0.3,0.9-0.6l1.6-4.9c0.3-0.9,1.5-0.9,1.8,0l1.6,4.9c0.1,0.4,0.5,0.6,0.9,0.6h5.2C35.9,79.2,36.3,80.4,35.6,80.9z"/>
		<rect x="3" y="64.5" class="st0" width="47" height="6.5"/>
		<path class="st0" d="M45.7,53.6c-4.2-7.2-13.8,2.2-18.5,7.6c-0.2,0.3-0.4,0.5-0.6,0.8c-0.2-0.2-0.4-0.5-0.6-0.8
			c-4.7-5.4-14.3-14.9-18.5-7.6c-2.5,4.3-1.8,8.5,2.2,10.8c3.3,1.9,8.7,2.5,16.3,0.8c0.2,0,0.4-0.1,0.6-0.1c0.2,0.1,0.4,0.1,0.6,0.1
			c7.6,1.7,13,1.1,16.3-0.8C47.5,62.2,48.2,57.9,45.7,53.6z M10,55.3c3.6-6.2,14.6,7.7,14.6,7.7C12.1,66.6,6.9,60.6,10,55.3z
			 M28.5,63c0,0,11-13.9,14.6-7.7C46.2,60.6,41,66.6,28.5,63z"/>
	</g>
	<g>
		<path class="st0" d="M112.9,132.4c-0.3,0-0.5-0.2-0.5-0.5v-10c0-0.3,0.2-0.5,0.5-0.5c0.3,0,0.5,0.2,0.5,0.5v10
			C113.4,132.2,113.2,132.4,112.9,132.4z"/>
		<path class="st0" d="M117.8,127.5h-10c-0.3,0-0.5-0.2-0.5-0.5c0-0.3,0.2-0.5,0.5-0.5h10c0.3,0,0.5,0.2,0.5,0.5
			C118.4,127.2,118.1,127.5,117.8,127.5z"/>
		<path class="st0" d="M109.3,131c-0.1,0-0.3-0.1-0.4-0.2c-0.2-0.2-0.2-0.6,0-0.8l7-7c0.2-0.2,0.6-0.2,0.8,0c0.2,0.2,0.2,0.6,0,0.8
			l-7,7C109.6,130.9,109.5,131,109.3,131z"/>
		<path class="st0" d="M116.4,131c-0.1,0-0.3-0.1-0.4-0.2l-7-7c-0.2-0.2-0.2-0.6,0-0.8c0.2-0.2,0.6-0.2,0.8,0l7,7
			c0.2,0.2,0.2,0.6,0,0.8C116.7,130.9,116.5,131,116.4,131z"/>
	</g>
	<g>
		<path class="st0" d="M36.9,148.2c-0.3,0-0.5-0.2-0.5-0.5v-9.5c0-0.3,0.2-0.5,0.5-0.5c0.3,0,0.5,0.2,0.5,0.5v9.5
			C37.4,148,37.2,148.2,36.9,148.2z"/>
		<path class="st0" d="M41.6,143.4h-9.5c-0.3,0-0.5-0.2-0.5-0.5c0-0.3,0.2-0.5,0.5-0.5h9.5c0.3,0,0.5,0.2,0.5,0.5
			C42.1,143.2,41.9,143.4,41.6,143.4z"/>
		<path class="st0" d="M33.5,146.8c-0.1,0-0.3-0.1-0.4-0.2c-0.2-0.2-0.2-0.5,0-0.7l6.7-6.7c0.2-0.2,0.5-0.2,0.7,0
			c0.2,0.2,0.2,0.5,0,0.7l-6.7,6.7C33.8,146.8,33.6,146.8,33.5,146.8z"/>
		<path class="st0" d="M40.2,146.8c-0.1,0-0.3-0.1-0.4-0.2l-6.7-6.7c-0.2-0.2-0.2-0.5,0-0.7c0.2-0.2,0.5-0.2,0.7,0l6.7,6.7
			c0.2,0.2,0.2,0.5,0,0.7C40.5,146.8,40.4,146.8,40.2,146.8z"/>
	</g>
	<g>
		<path class="st0" d="M81.9,95.6c-0.3,0-0.5-0.2-0.5-0.5v-10c0-0.3,0.2-0.5,0.5-0.5c0.3,0,0.5,0.2,0.5,0.5v10
			C82.4,95.4,82.2,95.6,81.9,95.6z"/>
		<path class="st0" d="M86.8,90.6h-10c-0.3,0-0.5-0.2-0.5-0.5c0-0.3,0.2-0.5,0.5-0.5h10c0.3,0,0.5,0.2,0.5,0.5
			C87.4,90.4,87.1,90.6,86.8,90.6z"/>
		<path class="st0" d="M78.3,94.2c-0.1,0-0.3-0.1-0.4-0.2c-0.2-0.2-0.2-0.6,0-0.8l7-7c0.2-0.2,0.6-0.2,0.8,0c0.2,0.2,0.2,0.6,0,0.8
			l-7,7C78.6,94.1,78.5,94.2,78.3,94.2z"/>
		<path class="st0" d="M85.4,94.2c-0.1,0-0.3-0.1-0.4-0.2l-7-7c-0.2-0.2-0.2-0.6,0-0.8c0.2-0.2,0.6-0.2,0.8,0l7,7
			c0.2,0.2,0.2,0.6,0,0.8C85.7,94.1,85.5,94.2,85.4,94.2z"/>
	</g>
	<g>
		<path class="st0" d="M6.4,125.9c-0.4,0-0.6-0.3-0.6-0.6v-11.5c0-0.4,0.3-0.6,0.6-0.6c0.4,0,0.6,0.3,0.6,0.6v11.5
			C7,125.7,6.8,125.9,6.4,125.9z"/>
		<path class="st0" d="M12.2,120.2H0.6c-0.4,0-0.6-0.3-0.6-0.6c0-0.4,0.3-0.6,0.6-0.6h11.5c0.4,0,0.6,0.3,0.6,0.6
			C12.8,119.9,12.5,120.2,12.2,120.2z"/>
		<path class="st0" d="M2.3,124.3c-0.2,0-0.3-0.1-0.4-0.2c-0.2-0.2-0.2-0.6,0-0.9L10,115c0.2-0.2,0.6-0.2,0.9,0
			c0.2,0.2,0.2,0.6,0,0.9l-8.2,8.2C2.6,124.2,2.5,124.3,2.3,124.3z"/>
		<path class="st0" d="M10.5,124.3c-0.2,0-0.3-0.1-0.4-0.2l-8.2-8.2c-0.2-0.2-0.2-0.6,0-0.9c0.2-0.2,0.6-0.2,0.9,0l8.2,8.2
			c0.2,0.2,0.2,0.6,0,0.9C10.8,124.2,10.6,124.3,10.5,124.3z"/>
	</g>
	<g>
		<path class="st0" d="M78.7,47.3c-0.2,0-0.4-0.2-0.4-0.4v-7.3c0-0.2,0.2-0.4,0.4-0.4c0.2,0,0.4,0.2,0.4,0.4v7.3
			C79.1,47.1,79,47.3,78.7,47.3z"/>
		<path class="st0" d="M82.4,43.6h-7.3c-0.2,0-0.4-0.2-0.4-0.4c0-0.2,0.2-0.4,0.4-0.4h7.3c0.2,0,0.4,0.2,0.4,0.4
			C82.8,43.4,82.6,43.6,82.4,43.6z"/>
		<path class="st0" d="M76.1,46.2c-0.1,0-0.2,0-0.3-0.1c-0.2-0.2-0.2-0.4,0-0.6l5.2-5.2c0.2-0.2,0.4-0.2,0.6,0
			c0.2,0.2,0.2,0.4,0,0.6l-5.2,5.2C76.4,46.2,76.2,46.2,76.1,46.2z"/>
		<path class="st0" d="M81.3,46.2c-0.1,0-0.2,0-0.3-0.1l-5.2-5.2c-0.2-0.2-0.2-0.4,0-0.6c0.2-0.2,0.4-0.2,0.6,0l5.2,5.2
			c0.2,0.2,0.2,0.4,0,0.6C81.5,46.2,81.4,46.2,81.3,46.2z"/>
	</g>
	<g>
		<path class="st0" d="M14.9,47.6c-0.2,0-0.4-0.2-0.4-0.4v-6.4c0-0.2,0.2-0.4,0.4-0.4c0.2,0,0.4,0.2,0.4,0.4v6.4
			C15.3,47.5,15.1,47.6,14.9,47.6z"/>
		<path class="st0" d="M18.1,44.4h-6.4c-0.2,0-0.4-0.2-0.4-0.4c0-0.2,0.2-0.4,0.4-0.4h6.4c0.2,0,0.4,0.2,0.4,0.4
			C18.5,44.2,18.3,44.4,18.1,44.4z"/>
		<path class="st0" d="M12.6,46.7c-0.1,0-0.2,0-0.2-0.1c-0.1-0.1-0.1-0.4,0-0.5l4.5-4.5c0.1-0.1,0.4-0.1,0.5,0
			c0.1,0.1,0.1,0.4,0,0.5l-4.5,4.5C12.8,46.6,12.7,46.7,12.6,46.7z"/>
		<path class="st0" d="M17.2,46.7c-0.1,0-0.2,0-0.2-0.1L12.4,42c-0.1-0.1-0.1-0.4,0-0.5c0.1-0.1,0.4-0.1,0.5,0l4.5,4.5
			c0.1,0.1,0.1,0.4,0,0.5C17.4,46.6,17.3,46.7,17.2,46.7z"/>
	</g>
	<circle class="st0" cx="31.3" cy="119.3" r="2"/>
	<path class="st0" d="M56.7,91.6c0,0.5-0.4,0.9-0.9,0.9c-0.5,0-0.9-0.4-0.9-0.9s0.4-0.9,0.9-0.9C56.3,90.6,56.7,91,56.7,91.6z"/>
	<circle class="st0" cx="57.8" cy="53.5" r="1.5"/>
	<circle class="st0" cx="112.2" cy="39.5" r="1.3"/>
	<path class="st0" d="M102.3,91.2c0,0.8-0.6,1.4-1.4,1.4c-0.8,0-1.4-0.6-1.4-1.4s0.6-1.4,1.4-1.4C101.7,89.8,102.3,90.4,102.3,91.2z
		"/>
	<path class="st0" d="M94.2,126.2c0,0.6-0.5,1.1-1.1,1.1c-0.6,0-1.1-0.5-1.1-1.1c0-0.6,0.5-1.1,1.1-1.1
		C93.7,125.1,94.2,125.6,94.2,126.2z"/>
</g>
</svg>
