<svg id="Слой_1" data-name="Слой 1" xmlns="http://www.w3.org/2000/svg" viewBox="0 0 90.77 90.77"><defs><style>.cls-1{fill:#231f20;}</style></defs><path class="cls-1" d="M73.41,29.4H12.47a4.67,4.67,0,0,0-3.22,1.29l-.1.09A4.7,4.7,0,0,0,7.77,34.1v.32a4.68,4.68,0,0,0,1.38,3.32h0a4.71,4.71,0,0,0,3.32,1.38h7.39a26.24,26.24,0,0,0,12,15.81L25.6,73.24h0A4.87,4.87,0,0,0,25.84,77a4.82,4.82,0,0,0,2.77,2.44l0,0a4.87,4.87,0,0,0,6.17-3.05l2-5.95,20.2,0,2,6a4.87,4.87,0,1,0,9.22-3.13L62.07,54.93A26.4,26.4,0,0,0,75,32.23V31A1.59,1.59,0,0,0,73.41,29.4ZM18.91,36H12.47a1.54,1.54,0,0,1-1.08-.44h0a1.5,1.5,0,0,1-.45-1.08V34.1A1.52,1.52,0,0,1,11.39,33l.06-.05a1.5,1.5,0,0,1,1-.4h6.44ZM59.24,56.43l6.08,17.84a1.71,1.71,0,0,1-1.07,2.16,1.72,1.72,0,0,1-2.17-1.07l-2.4-7.06a1.59,1.59,0,0,0-1.62-1.07l-22.35,0a1.58,1.58,0,0,0-1.49,1.07h0l-2.39,7a1.72,1.72,0,0,1-2.17,1.07h0a1.71,1.71,0,0,1-1.07-2.16h0l6.08-17.84.16.07.79.32c.2.08.41.18.62.25l.8.27c.24.08.47.17.71.24l.12,0-1.41,4.16a1.58,1.58,0,0,0,1,2,1.61,1.61,0,0,0,.61.08l17.88,0a1.58,1.58,0,0,0,1.58-1.58,1.7,1.7,0,0,0-.08-.51h0L56,57.62l.12,0,.7-.23.81-.28c.21-.07.42-.17.63-.25l.77-.32Zm-6.31,1.89.81,2.36-13.58,0L41,58.32a25.76,25.76,0,0,0,4.42.4h3.11A25.76,25.76,0,0,0,52.93,58.32ZM65,48.7a23.41,23.41,0,0,1-7,4.78c-.25.11-.49.23-.74.33a23,23,0,0,1-8.74,1.74H45.4a23,23,0,0,1-8.75-1.74l-.71-.32A23.26,23.26,0,0,1,22.08,32.57H71.83A23.25,23.25,0,0,1,65,48.7Z"/><path class="cls-1" d="M33.63,21.9a2.25,2.25,0,0,1-.38,1.56A1.58,1.58,0,1,0,35.18,26,5.09,5.09,0,0,0,36.8,21.9a9.48,9.48,0,0,0-1.21-4.53,4.73,4.73,0,0,1,0-4A1.58,1.58,0,1,0,32.8,12s-1.81,3.62,0,7A6.27,6.27,0,0,1,33.63,21.9Z"/><path class="cls-1" d="M46.19,21.9a2.25,2.25,0,0,1-.38,1.56A1.58,1.58,0,1,0,47.74,26a5.06,5.06,0,0,0,1.62-4.06,9.48,9.48,0,0,0-1.21-4.53,4.73,4.73,0,0,1,0-4A1.58,1.58,0,1,0,45.36,12s-1.81,3.62,0,7A6.27,6.27,0,0,1,46.19,21.9Z"/><path class="cls-1" d="M58.75,21.9a2.25,2.25,0,0,1-.38,1.56A1.58,1.58,0,1,0,60.3,26a5.06,5.06,0,0,0,1.62-4.06,9.48,9.48,0,0,0-1.21-4.53,4.68,4.68,0,0,1,0-4A1.58,1.58,0,1,0,57.92,12s-1.81,3.62,0,7A6.27,6.27,0,0,1,58.75,21.9Z"/></svg>