<svg id="Слой_1" data-name="Слой 1" xmlns="http://www.w3.org/2000/svg" viewBox="0 0 89.16 89.16"><path d="M82.23,69.37c-6.26,0-10.3-4.85-14.58-10a73.14,73.14,0,0,0-4.9-5.47V46.35a8.87,8.87,0,0,0-8.86-8.85H52.12V26.87h1.77a1.77,1.77,0,0,0,1-3.2L35.45,9.5a1.74,1.74,0,0,0-2.08,0L13.89,23.67a1.77,1.77,0,0,0,1,3.2H16.7V57a1.77,1.77,0,0,0,1.77,1.77h1.77V78.23a1.77,1.77,0,1,0,3.54,0V72.92H45v5.31a1.77,1.77,0,1,0,3.54,0V58.75h1.77c3.79,0,6.79,3.68,10.26,8C65.42,72.63,71.41,80,82.23,80A1.77,1.77,0,0,0,84,78.23V71.14A1.77,1.77,0,0,0,82.23,69.37ZM53.89,41a5.32,5.32,0,0,1,5.32,5.31V51a15.64,15.64,0,0,0-7.09-2.7V41ZM34.41,13.12l14,10.21H20.38ZM20.24,26.87H48.58V48.12H45V41a10.63,10.63,0,0,0-21.26,0v7.08H20.24ZM41.49,41v7.08H27.33V41a7.08,7.08,0,1,1,14.16,0ZM20.24,55.21V51.66H48.58v3.55Zm3.54,14.16V65.83H45v3.54ZM45,62.29H23.78V58.75H45ZM80.46,76.38c-8-.73-12.63-6.41-17.1-11.91-3.44-4.23-6.71-8.26-11.24-9.1V51.8c5.28.81,9,5.22,12.81,9.85C69.19,66.76,73.58,72,80.46,72.82Z"/></svg>