<svg id="Слой_1" data-name="Слой 1" xmlns="http://www.w3.org/2000/svg" viewBox="0 0 77.37 77.37"><defs><style>.cls-1{fill:#222;}</style></defs><path class="cls-1" d="M57.42,23.55H54.31V11.46a4.78,4.78,0,1,0-9.56,0V23.55H32.63V11.46a4.81,4.81,0,0,0-4.79-4.79,4.79,4.79,0,0,0-4.78,4.79V23.55H20a3.59,3.59,0,0,0-3.59,3.58v5.05a3.58,3.58,0,0,0,2.49,3.39V48a15,15,0,0,0,3.34,9.42L26,62.05A8.06,8.06,0,0,0,31.27,65v1.84a3.88,3.88,0,0,0,3.88,3.88h7.08a3.88,3.88,0,0,0,3.87-3.88V65a8,8,0,0,0,5.31-2.93l3.76-4.61A15,15,0,0,0,58.51,48V35.57A3.58,3.58,0,0,0,61,32.18V27.13A3.59,3.59,0,0,0,57.42,23.55ZM48,11.46a1.52,1.52,0,1,1,3,0V23.55H48Zm-21.69,0a1.52,1.52,0,0,1,1.52-1.52,1.5,1.5,0,0,1,1.52,1.52V23.55h-3ZM19.64,27.13a.32.32,0,0,1,.32-.32H57.42a.33.33,0,0,1,.32.32v5.05a.33.33,0,0,1-.32.32H20a.32.32,0,0,1-.32-.32Zm22.59,40.3H35.15a.61.61,0,0,1-.62-.61V65h8.31v1.78A.61.61,0,0,1,42.23,67.43ZM55.25,48a11.73,11.73,0,0,1-2.61,7.36L48.88,60a4.82,4.82,0,0,1-3.75,1.78H32.24A4.82,4.82,0,0,1,28.49,60l-3.76-4.61A11.75,11.75,0,0,1,22.12,48V35.76H55.25Z"/><path class="cls-1" d="M30.1,50.35H47.27a1.63,1.63,0,0,0,1.63-1.63V42.13a1.63,1.63,0,0,0-1.63-1.64H30.1a1.63,1.63,0,0,0-1.63,1.64v6.59A1.63,1.63,0,0,0,30.1,50.35Zm1.63-6.59H45.64v3.33H31.73Z"/></svg>