<svg id="Слой_1" data-name="Слой 1" xmlns="http://www.w3.org/2000/svg" viewBox="0 0 100 100"><path d="M49.1,71.92l.69,0H50A23.39,23.39,0,0,0,67.79,64.1c6.43-7.26,8.33-15.7,5.65-25.08C69.11,23.87,54,11.37,49.94,10.17A1.63,1.63,0,0,0,47.87,12c.07.53,1.67,13-10.44,19.11A21.85,21.85,0,0,0,25.64,47a19.67,19.67,0,0,0,5.58,17.18A26.71,26.71,0,0,0,49.1,71.92Zm9.76-7.2a11.46,11.46,0,0,1-5.33,3.42,13.74,13.74,0,0,1-13.48-3.49,9.42,9.42,0,0,1-2.72-8.36,10.87,10.87,0,0,1,5.88-7.93,14.24,14.24,0,0,0,7.91-11.47c3.26,2.51,8.82,8.27,10.67,14.76A13.2,13.2,0,0,1,58.86,64.72Zm-30-17.2A18.54,18.54,0,0,1,38.9,34C49.27,28.75,51,19.29,51.18,14.48,56.29,17.94,67,28.22,70.31,39.91c2.35,8.25.69,15.66-5,22a20.49,20.49,0,0,1-1.82,1.79,16.41,16.41,0,0,0,1.38-13C62.13,41,52.6,33.26,50,32.47a1.62,1.62,0,0,0-2.07,1.79,11.25,11.25,0,0,1-6.13,11.2,14.12,14.12,0,0,0-7.64,10.32,12.79,12.79,0,0,0,1.11,7.62,22.21,22.21,0,0,1-1.69-1.53A16.16,16.16,0,0,1,28.86,47.52Z"/><path d="M58,52.22a1.62,1.62,0,0,0-1.29,1.91,7.47,7.47,0,0,1-2,6.92,1.62,1.62,0,0,0,.15,2.29,1.56,1.56,0,0,0,1.07.41,1.6,1.6,0,0,0,1.22-.55,10.74,10.74,0,0,0,2.75-9.7A1.63,1.63,0,0,0,58,52.22Z"/><path d="M69.24,80.48l-.73-.2.73-.19A4.8,4.8,0,0,0,68,70.66a4.7,4.7,0,0,0-1.24.17L50,75.32,33.23,70.83a4.79,4.79,0,0,0-2.48,9.26l.72.19-.72.2a4.79,4.79,0,0,0-3.39,5.86,4.76,4.76,0,0,0,5.87,3.39L50,85.24l16.76,4.49A4.41,4.41,0,0,0,68,89.9a4.78,4.78,0,0,0,4.62-3.55,4.77,4.77,0,0,0-3.38-5.87ZM31.59,76.94a1.54,1.54,0,0,1-.37-2.82A1.52,1.52,0,0,1,32.38,74L43.7,77l-5.94,1.6Zm.8,9.65A1.56,1.56,0,0,1,30.5,85.5a1.48,1.48,0,0,1,.16-1.16,1.5,1.5,0,0,1,.93-.72L67.6,74a1.75,1.75,0,0,1,.4,0,1.54,1.54,0,0,1,.4,3ZM69.48,85.5a1.53,1.53,0,0,1-.71.94,1.55,1.55,0,0,1-1.17.15l-11.32-3L62.22,82l6.17,1.65a1.53,1.53,0,0,1,1.09,1.88Z"/></svg>