<svg id="Слой_1" data-name="Слой 1" xmlns="http://www.w3.org/2000/svg" viewBox="0 0 100 100"><defs><style>.cls-1{fill:#231f20;}</style></defs><g id="_1" data-name="1"><path class="cls-1" d="M96.5,49H3.5V35.7h93Zm-89-4H92.46V39.74H7.54Z"/><rect class="cls-1" x="3.74" y="61.6" width="40.82" height="4.04" transform="translate(-41.69 46.41) rotate(-54.56)"/><rect class="cls-1" x="73.83" y="43.21" width="4.04" height="40.82" transform="matrix(0.81, -0.58, 0.58, 0.81, -22.84, 55.77)"/><rect class="cls-1" x="16.22" y="58.8" width="67.55" height="4.04"/><path class="cls-1" d="M35.51,39.74h-5A10.72,10.72,0,0,1,19.8,29V18.58H46.22V29A10.73,10.73,0,0,1,35.51,39.74ZM23.83,22.62V29a6.68,6.68,0,0,0,6.68,6.67h5A6.67,6.67,0,0,0,42.18,29V22.62Z"/><path class="cls-1" d="M65.26,39.74H53.63V25.63H65.26Zm-7.59-4h3.55v-6H57.67Z"/><path class="cls-1" d="M81.19,39.74H69.57V25.63H81.19Zm-7.59-4h3.55v-6H73.6Z"/></g></svg>