<svg id="Слой_1" data-name="Слой 1" xmlns="http://www.w3.org/2000/svg" viewBox="0 0 87.84 87.84"><path d="M18.23,50.39a4,4,0,1,0,2.85,1.17A4,4,0,0,0,18.23,50.39Zm1.84,5.86a2.66,2.66,0,0,1-3.68,0,2.61,2.61,0,1,1,3.68,0Z"/><path d="M60.94,24.76A9.23,9.23,0,0,0,47.88,11.7L11.7,47.88A9.23,9.23,0,0,0,24.76,60.94Zm-11-11a6.39,6.39,0,1,1,9,9L27.45,54.23a9.19,9.19,0,0,0-9-9ZM13.71,58.93a6.39,6.39,0,0,1,9-9,6.4,6.4,0,0,1,0,9,6.4,6.4,0,0,1-9,0Z"/><path d="M45.06,23a.7.7,0,0,0,.5-.21L50.33,18a.71.71,0,0,0-1-1l-4.77,4.77a.71.71,0,0,0,.5,1.21Z"/><path d="M37.11,31a.7.7,0,0,0,.5-.21l3.85-3.85a.7.7,0,0,0,0-1,.71.71,0,0,0-1,0L36.6,29.76a.72.72,0,0,0,0,1A.73.73,0,0,0,37.11,31Z"/><path d="M33.67,37.75a.71.71,0,0,0,.51-.21L38,33.69a.71.71,0,1,0-1-1l-3.85,3.85a.72.72,0,0,0,0,1A.7.7,0,0,0,33.67,37.75Z"/><path d="M37.27,40.64l-3.85,3.85a.73.73,0,0,0,0,1,.74.74,0,0,0,1,0l3.85-3.86a.7.7,0,0,0,0-1A.71.71,0,0,0,37.27,40.64Z"/><path d="M48.57,29.34l-3.85,3.85a.73.73,0,0,0,0,1,.74.74,0,0,0,1,0l3.85-3.85a.71.71,0,1,0-1-1Z"/><path d="M23.88,43.49a.7.7,0,0,0,.5.21.73.73,0,0,0,.51-.21l6.69-6.7a.71.71,0,0,0-1-1l-6.7,6.69A.71.71,0,0,0,23.88,43.49Z"/><path d="M45,29.59a.69.69,0,0,0,.5.21.7.7,0,0,0,.5-.21l8-7.95a.71.71,0,0,0-1-1l-8,8A.7.7,0,0,0,45,29.59Z"/><path d="M37.62,35.94a.71.71,0,0,0,0,1,.7.7,0,0,0,.5.21.69.69,0,0,0,.5-.21l3.85-3.85a.71.71,0,1,0-1-1Z"/><path d="M35.18,39.39a.7.7,0,0,0-1,0l-6.7,6.69a.71.71,0,0,0,0,1,.74.74,0,0,0,1,0l6.69-6.7A.7.7,0,0,0,35.18,39.39Z"/><path d="M33.43,65.59a4,4,0,0,0-2.84,1.17,4,4,0,0,0,0,5.7,4,4,0,0,0,6.87-2.85,4,4,0,0,0-1.18-2.85A4,4,0,0,0,33.43,65.59Zm1.84,5.86a2.65,2.65,0,0,1-3.68,0A2.6,2.6,0,1,1,36,69.61,2.55,2.55,0,0,1,35.27,71.45Z"/><path d="M76.14,26.9a9.25,9.25,0,0,0-13.06,0L26.9,63.08A9.23,9.23,0,0,0,40,76.14L76.14,40a9.22,9.22,0,0,0,0-13.06ZM28.91,74.13a6.4,6.4,0,0,1,0-9,6.39,6.39,0,1,1,0,9ZM74.13,38,42.66,69.43a9.21,9.21,0,0,0-9-9L65.09,28.91a6.39,6.39,0,1,1,9,9Z"/><path d="M60.26,38.22a.7.7,0,0,0,.5-.21l4.77-4.77a.71.71,0,0,0-1-1L59.76,37a.71.71,0,0,0,.5,1.21Z"/><path d="M52.31,46.17a.7.7,0,0,0,.5-.21l3.85-3.85a.71.71,0,0,0-1-1L51.81,45a.7.7,0,0,0,0,1A.69.69,0,0,0,52.31,46.17Z"/><path d="M48.88,53a.7.7,0,0,0,.5-.21l3.85-3.85a.7.7,0,0,0,0-1,.71.71,0,0,0-1,0l-3.85,3.85a.72.72,0,0,0,0,1A.71.71,0,0,0,48.88,53Z"/><path d="M52.47,55.84l-3.85,3.85a.73.73,0,0,0,0,1,.74.74,0,0,0,1,0l3.85-3.85a.71.71,0,0,0-1-1Z"/><path d="M63.78,44.54l-3.86,3.85a.73.73,0,0,0,0,1,.72.72,0,0,0,.51.2.69.69,0,0,0,.5-.2l3.85-3.85a.71.71,0,0,0-1-1Z"/><path d="M46.78,51a.7.7,0,0,0-1,0l-6.7,6.69a.71.71,0,0,0,0,1,.71.71,0,0,0,1,0L46.78,52A.7.7,0,0,0,46.78,51Z"/><path d="M68.13,35.84l-7.95,7.95a.7.7,0,0,0,0,1,.69.69,0,0,0,.5.21.7.7,0,0,0,.5-.21l7.95-7.95a.71.71,0,0,0-1-1Z"/><path d="M56.67,47.29l-3.85,3.85a.71.71,0,0,0,0,1,.7.7,0,0,0,.5.21.69.69,0,0,0,.5-.21l3.85-3.85a.71.71,0,0,0-1-1Z"/><path d="M50.38,54.59a.7.7,0,0,0-1,0l-6.7,6.69a.71.71,0,0,0,0,1,.69.69,0,0,0,.5.2.72.72,0,0,0,.51-.2l6.69-6.7A.7.7,0,0,0,50.38,54.59Z"/></svg>