<svg id="Слой_1" data-name="Слой 1" xmlns="http://www.w3.org/2000/svg" viewBox="0 0 89.72 89.72"><defs><style>.cls-1{fill:#2b2b2b;stroke:#000;stroke-miterlimit:10;stroke-width:0.83px;}</style></defs><path class="cls-1" d="M66,42.92a1.06,1.06,0,0,0,1-1.06V37.48a1,1,0,0,0-1-1h-.53v-.56a7.4,7.4,0,0,0-3.17-6.06L50.4,21.59a1,1,0,0,1-.46-.86V17.61h.44a1.06,1.06,0,0,0,1.06-1.05V10.14a1.06,1.06,0,0,0-1.06-1.05h-11a1,1,0,0,0-1.05,1.05v6.42a1,1,0,0,0,1.05,1.05h.44v3.12a1,1,0,0,1-.46.86L27.48,29.81a7.39,7.39,0,0,0-3.18,6.06v.56h-.52a1.05,1.05,0,0,0-1.06,1v4.38a1.06,1.06,0,0,0,1.06,1.06h.52v7.69h-.52a1.05,1.05,0,0,0-1.06,1.06V56a1.05,1.05,0,0,0,1.06,1.06h.52v7.69h-.52a1.06,1.06,0,0,0-1.06,1.06v4.38a1.05,1.05,0,0,0,1.06,1h.52V76a4.61,4.61,0,0,0,4.6,4.6H60.82a4.61,4.61,0,0,0,4.6-4.6V71.28H66a1,1,0,0,0,1-1V65.85a1.06,1.06,0,0,0-1-1.06h-.53V57.1H66A1.05,1.05,0,0,0,67,56V51.67a1.05,1.05,0,0,0-1-1.06h-.53V42.92ZM40.39,11.19h8.94v4.32H40.39Zm-14,24.68a5.29,5.29,0,0,1,2.27-4.33l11.85-8.21a3.18,3.18,0,0,0,1.36-2.6V17.61h5.94v3.12a3.18,3.18,0,0,0,1.36,2.6L61,31.54a5.29,5.29,0,0,1,2.27,4.33v.56H26.41ZM60.82,78.53H28.9A2.5,2.5,0,0,1,26.41,76V71.28h36.9V76A2.5,2.5,0,0,1,60.82,78.53Zm4.07-9.36H24.83V66.9H64.89ZM26.41,57.1h36.9v7.69H26.41ZM64.89,55H24.83V52.72H64.89ZM26.41,42.92h36.9v7.69H26.41Zm38.48-2.11H24.83V38.54H64.89Z"/></svg>