<?xml version="1.0" encoding="utf-8"?>
<!-- Generator: Adobe Illustrator 21.1.0, SVG Export Plug-In . SVG Version: 6.00 Build 0)  -->
<svg version="1.1" id="Layer_1" xmlns="http://www.w3.org/2000/svg" xmlns:xlink="http://www.w3.org/1999/xlink" x="0px" y="0px"
	 viewBox="0 0 326.4 240.1" style="enable-background:new 0 0 326.4 240.1;" xml:space="preserve">
<g>
	<path d="M116.4,123.1c-0.7,0.4-1.9-0.5-2.5-0.1c-1.1,0.8-1.9,1.3-2.3,1.6c-0.6,0.4,0.4-1.2-0.2-2.1c-0.6-0.8-1.4-1.9-2.2-3.2
		c1.3,0,2.5,0.1,3.6,0.5c1.3,0.5,2.4,1.4,3.2,2.6C116.2,122.7,116.3,122.9,116.4,123.1z"/>
	<path d="M229.3,134.3c-0.4,1.3-0.8,2.5-1.1,3.6c-0.8,0.5-1.8,1.3-3,2.4c-0.3,0.2-0.5,0.5-0.8,0.7c-0.2-0.6-0.6-1.2-1.1-1.5
		c0.8-0.8,1.5-1.5,2.3-2.2C226.9,136.1,228.1,135.1,229.3,134.3z"/>
	<path d="M225.2,140.4c1.2-1.1,2.2-1.9,3-2.4c-0.3,1-0.6,1.9-0.8,2.8c-0.6,2.1-1.2,4.3-1.9,6.4c-0.3,1.2-0.8,2.9-0.4,4.2
		c0.2,0.7,0.4,1.2,0.5,1.4c-1.1,0.1-2.2,0-3.2-0.2c-0.9-0.2-1.7-0.6-2.6-1.1c-0.9-0.6-1.5-1.5-2-2.6c-0.2-0.5-0.3-1.7,0.3-3.5
		c0.9-2.8,1.9-5.9,2.9-9c-0.7,0.9-1.5,1.8-2.4,2.7c-1.3,1.4-2.7,2.8-4.3,4.1c-1.6,1.3-3.2,2.4-5,3.4s-3.7,1.7-5.6,2
		c-2.9,0.5-5.3,0.2-7.1-0.9s-3.1-2.7-3.8-4.8c-0.5-1.3-0.7-2.7-0.8-4.2c-1.2,1.5-2.4,2.9-3.8,4.1c-2.1,1.9-4.2,3.3-6.6,4.3
		c-2.3,1-4.8,1.5-7.2,1.6c-1.2,0-2.4-0.1-3.3-0.3s-1.8-0.6-2.5-1.1s-1.3-1-1.8-1.5c-0.5-0.6-0.8-1.2-1.1-1.8c-0.7-1.4-1.1-3-1.1-4.9
		c0.5-0.1,1.1,0,1.7,0.3s1.3,0.6,2.2,0.7c0.8,0.2,1.8,0,3-0.4s2.6-1.4,4.2-2.9c0.7-0.6,1.3-1.4,1.8-2.5c0.6-1.1,1-2.3,1.5-3.5
		c0.4-1.3,0.7-2.5,0.9-3.8c0.2-1.3,0.2-2.4,0-3.4s-0.5-1.8-1.1-2.4s-1.4-0.8-2.5-0.7c-2.3,0.3-4.3,1.5-6.1,3.5
		c-1.8,2-3.4,4.7-4.8,7.9c-1.5,3.2-2.8,6.9-3.9,11.1c-1.2,4.2-2.3,8.5-3.4,13.1c-0.6,2.8-1.1,5.3-1.2,7.5c-0.2,2.2-0.3,4-0.3,5.5
		s0,2.7-0.1,3.5c0,0.8-0.2,1.2-0.5,1.3s-0.8-0.1-1.5-0.5s-1.5-0.8-2.3-1.4s-1.6-1.2-2.3-1.7c-0.8-0.6-1.3-1.1-1.7-1.6
		c-0.2-0.3-0.2-1.3-0.1-2.9c0.2-1.6,0.5-3.6,0.9-6s0.9-4.9,1.5-7.8c0.6-2.8,1.2-5.5,1.8-8.2c0.3-1.4,0.7-2.7,1-4
		c-1,1.6-2,3.1-3.2,4.7c-1.1,1.5-2.2,2.8-3.2,3.8c-1.1,1-2.1,1.7-3.1,1.9c-1,0.2-2,0.2-2.8-0.1s-1.6-0.7-2.3-1.3
		c-0.6-0.6-1.1-1.1-1.4-1.7c-0.4-0.6-0.5-1.4-0.6-2.5c0-1.1,0-2.3,0-3.4c0-1.4,0.2-2.8,0.4-4.4c-0.3,0.8-0.7,1.7-1.2,2.7
		c-0.4,0.9-1,1.9-1.7,3.1s-1.5,2.6-2.5,4.1s-2,2.6-3.1,3.3c-1.1,0.7-2,1.2-2.8,1.5c-1,0.3-2,0.4-3,0.4c-1.8-0.1-3.1-0.7-3.9-1.8
		c-0.8-1.1-1.3-2.5-1.4-4.2s-0.1-3.6,0.3-5.6c1.3-5.8,4.6-12.4,5.4-17.8c0.2-1,0.2-2,0.1-3c-0.2-1.4,0.2-1.8,1.6-1.8
		c2.4,0,6.8,3.9,6.5,7.3c-0.1,1.2-0.4,2.4-0.8,3.8c-0.5,1.3-0.9,2.6-1.4,3.9c-0.5,1.2-0.9,2.2-1.1,2.9c-0.2,0.7-0.5,1.6-1,2.6
		c-0.4,1-0.8,2.1-1,3.1c-0.3,1-0.5,2-0.6,2.9s0.1,1.6,0.5,2s0.9,0.6,1.4,0.5s0.9-0.3,1.4-0.6c0.5-0.3,0.9-0.7,1.3-1.1
		s0.7-0.8,0.9-1.1c1-1.2,2-2.7,3-4.5s2-3.6,2.9-5.6c0.9-1.9,1.8-3.9,2.6-5.8s1.5-3.7,2.1-5.3c0.6-1.6,1.1-2.9,1.5-3.9
		s0.6-1.6,0.6-1.8c0.1-0.3,0.2-0.6,0.6-0.7c0.2,0,0.3,0,0.5,0c1.3,0.2,2.3,0.6,3,1.1c0.8,0.6,1.3,1.3,1.7,2.2
		c0.3,0.8,0.6,1.8,0.6,2.9s0,2.2-0.2,3.3c-0.1,0.9-0.5,2.1-1.1,3.8c-0.6,1.7-1.2,3.4-1.9,5.3c-0.7,1.8-1.3,3.7-1.9,5.5
		s-0.9,3.3-1,4.4c0,0.5,0,0.9,0.2,1.1s0.4,0.3,0.7,0.3c0.3,0,0.5,0,0.7-0.1s0.4-0.2,0.5-0.3c1.5-1.2,2.9-2.5,4.1-4.1
		s2.2-3.1,3.1-4.5c0.7-1.3,1.3-2.4,1.8-3.4c0.2-0.8,0.4-1.5,0.6-2.1c0.5-2.2,0.9-4,1.1-5.6s0.3-2.9,0.3-3.9c0-1.2-0.1-2.2-0.3-3
		c1.1-0.2,2.2-0.4,3.1-0.5c0.9-0.2,1.8-0.3,2.5-0.3s1.3,0,1.9,0.1c0.5,0.1,1,0.4,1.3,0.9c0.6,0.8,0.8,1.8,0.8,2.9s-0.2,2.4-0.5,3.5
		c-0.3,1.3-0.8,2.8-1.4,4.2c1.8-3,3.5-5.5,5.3-7.3s3.5-3.3,5.1-4.3c1.7-1,3.2-1.8,4.8-2.2c1.5-0.4,2.9-0.7,4.2-0.8
		c1-0.1,2,0.2,3,0.8c1,0.6,1.8,1.5,2.5,2.7s1.1,2.6,1.4,4.4c0.2,1.7,0.1,3.6-0.3,5.7c-0.4,2.2-1.1,4.1-2.1,5.9c-1,1.7-2,3.3-3,4.6
		c-1.2,1.5-2.5,2.9-3.9,4.1c0.8,0.5,1.9,0.3,3.3-0.4c1.4-0.7,2.9-1.8,4.5-3.2c1.2-1.1,2.3-2.4,3.5-3.9c0.3-2.7,1.1-5.4,2.4-8.2
		c1.4-2.9,3.1-5.3,5.3-7.1c2.2-1.8,4.4-3.2,6.8-4c2.3-0.8,4.6-1.1,6.8-0.9c2.2,0.2,4.1,0.8,5.6,2c1.2,0.9,1.9,1.9,2.2,3.2
		c0.3,1.2,0.3,2.5,0,3.7c-0.3,1.3-0.9,2.4-1.7,3.6c-0.8,1.1-1.8,2-2.9,2.6c-1.6,0.9-3,1.5-4.3,1.5c-1.2,0.1-2-0.2-2.4-0.9
		c1.5-1.8,2.7-3.3,3.6-4.8c0.4-0.6,0.7-1.2,1-1.9s0.5-1.2,0.6-1.8s0.1-1,0-1.5s-0.4-0.8-0.9-1c-1-0.5-2-0.3-3.3,0.5
		c-1.2,0.8-2.5,1.9-3.7,3.4c-1.3,1.5-2.5,3.1-3.6,4.9s-2.1,3.5-2.8,5.1c-0.8,1.6-1.3,3.1-1.6,4.7c-0.3,1.6-0.2,3,0.1,4.1
		c0.3,1.2,1,2,1.9,2.6s2.2,0.7,3.9,0.3c1.6-0.4,3.4-1.2,5.3-2.3s3.8-2.6,5.6-4.2c1.8-1.6,3.5-3.3,5-5.2c0.4-0.5,0.9-1,1.2-1.6
		c2.3-6.7,4.5-13.1,5.2-17.3c0.9-4.7-4.6-2.2-5.6-1.1c1.1-6.3,7.2-9.1,10.7-7.2c2,1.1,2.7,3.1,2.6,5.4c-0.1,4.5-3.2,11.7-4.4,16.8
		c1.3-1.4,2.9-2.8,4.8-4.2c1.9-1.4,3.8-2.5,5.7-3.4c1.9-0.9,3.6-1.4,5.2-1.4c1.6-0.1,2.7,0.5,3.4,1.7c0.6,1,0.7,2,0.4,3
		c-0.3,1-0.9,1.9-1.8,2.8c-1.9,1.9-6.2,5-8.8,3c0.5-0.6,0.8-1.3,0.9-2.1c0.1-0.7,0-1.2-0.5-1.5c-1.1-0.7-3.1,0.1-4.1,0.7
		c-2,1-3.7,2.4-5.1,4.1c-0.7,0.9-1.3,1.8-1.6,2.8v0.1c-1.1,0.8-2.4,1.8-3.6,3c-0.8,0.7-1.6,1.5-2.3,2.2c0.5,0.4,0.9,0.9,1.1,1.5
		C224.7,140.8,224.9,140.6,225.2,140.4z"/>
	<path d="M263.6,155.2c-0.2,1.1-1.5,2.2-3.4,2.7c-7,2.1-13.6,0.8-19.5-3.6c-1.8-1.4-3.3-3-4.6-4.8c-1.2-1.8-2.2-3.6-3-5.3
		c-2.2-5.1-0.8-9.2-5.1-6.2c0.3-1.1,0.7-2.3,1.1-3.6c0.1-0.1,0.2-0.1,0.2-0.2c1.2-0.8,2.4-1.2,3.4-1.2s2,0.2,2.8,0.7s1.5,1,2,1.7
		c2.4,3.3,0.6,6.3,6.6,13.5c1.7,2,3.2,3.5,4.7,4.6C253.4,156.8,260.3,155.9,263.6,155.2z"/>
	<path d="M229.3,134.3c-0.4,1.3-0.8,2.5-1.1,3.6c-0.8,0.5-1.8,1.3-3,2.4c-0.3,0.2-0.5,0.5-0.8,0.7c-0.2-0.6-0.6-1.2-1.1-1.5
		c0.8-0.8,1.5-1.5,2.3-2.2C226.9,136.1,228.1,135.1,229.3,134.3z"/>
	<path d="M116.4,123.1c-0.7,0.4-1.9-0.5-2.5-0.1c-1.1,0.8-1.9,1.3-2.3,1.6c-0.6,0.4,0.4-1.2-0.2-2.1c-0.6-0.8-1.4-1.9-2.2-3.2
		c1.3,0,2.5,0.1,3.6,0.5c1.3,0.5,2.4,1.4,3.2,2.6C116.2,122.7,116.3,122.9,116.4,123.1z"/>
	<path d="M92.8,231.8c-14.8,9.1-25.6,1.1-32.3-11.5c-2.8-5.3-5.5-11.1-7.9-16.7c-2.4,3.7-4.2,7.2-5.4,10.5c-1.2,3.3-2.1,6.3-2.5,8.9
		c-0.5,2.6-0.7,4.7-0.8,6.4c0,1.6-0.1,2.6-0.1,2.8c-0.1,0.3-0.6,0.6-1.5,1s-2,0.8-3.1,1.1c-1.2,0.3-2.2,0.6-3.3,0.8
		c-1,0.2-1.8,0.1-2.1-0.2c-0.2-0.1-0.5-0.7-0.7-1.5c-0.2-0.9-0.3-2.1-0.2-3.6c0.1-1.5,0.4-3.3,0.9-5.4s1.3-4.4,2.4-7
		s2.6-5.4,4.5-8.4s4.3-6.3,7.1-9.7c0.3-0.4,0.7-0.8,1-1.2c0.3-0.4,0.7-0.8,1-1.1c-0.7-1.6-1.4-3.1-2.2-4.5c-0.7-1.4-1.5-2.7-2.3-3.8
		c-0.8-1.1-1.6-2.1-2.4-2.8c-0.8-0.7-1.7-1.2-2.5-1.5c-0.9-0.2-1.8-0.3-2.6-0.2c-0.8,0.1-1.5,0.3-2.1,0.6c-0.6,0.3-1.2,0.7-1.8,1.2
		c-0.5,0.5-1,1-1.4,1.5c-0.9,1.2-1.7,2.7-2.2,4.5c-0.5-0.9-0.8-1.8-0.9-3c-0.1-0.9,0-2,0.3-3.2s1-2.5,2.1-3.9
		c2.2-2.7,4.8-4.4,7.8-4.9c3.1-0.6,6.2,0,9.4,1.8c1.1,0.6,2.3,1.9,3.7,3.8c1.3,1.9,2.7,4.3,4.2,7.1c6.8-6.3,16.2-16.9,25-16
		c-1.9,1.4-4.1,3.1-6.4,5.1c-2,1.7-4.4,3.9-7.1,6.6s-5.7,5.8-8.9,9.5c1.2,2.5,2.5,5.2,3.7,7.9c1.2,2.7,2.4,5.4,3.6,7.9
		c1.1,2.5,2.2,4.8,3.2,7c2.6,5.5,4.6,8.8,7.2,10.7C80.6,231,84.5,232.2,92.8,231.8"/>
	<path d="M102.6,205.7c0.5-1,1.1-2.2,1.6-3.7c0.5-1.4,1-2.8,1.5-4.2c0.5-1.4,0.9-2.7,1.2-3.8c0.4-1.2,0.6-2,0.8-2.5
		c0.1-0.2,0.2-0.4,0.4-0.5c0.2-0.1,0.4-0.1,0.6,0s0.3,0.3,0.4,0.5c0.1,0.3,0.1,0.6,0,0.9c-0.2,0.7-0.5,1.6-0.8,2.7
		c-0.4,1.2-0.7,2.3-1.1,3.5s-0.8,2.3-1.2,3.4c-0.4,1.1-0.7,1.9-0.9,2.4c-0.9,2.2-2.1,3.9-3.6,4.9c-1.5,1.1-3.3,1.5-5.3,1.3
		c-1.5-0.2-2.6-0.8-3.4-1.9s-1.2-2.4-1.3-4c0-0.7,0-1.5,0-2.5s0.1-2,0.1-2.9c0.1-1,0.1-1.8,0.1-2.6c0-0.7,0.1-1.2,0.1-1.3
		c-0.3,0.7-0.6,1.6-0.9,2.7c-0.4,1.1-0.7,2.2-1.1,3.2c-0.4,1.1-0.7,2-1,2.9c-0.3,0.8-0.5,1.4-0.6,1.6c-0.9,2-1.7,3.7-2.4,4.9
		c-0.7,1.2-1.5,2.3-2.4,3.2c-0.4,0.4-1,0.7-1.8,1.1c-0.9,0.4-1.8,0.6-2.9,0.7c-1,0.1-2.1,0-3.1-0.3s-1.8-0.9-2.4-1.8
		c-0.7-1-1.1-2.2-1.3-3.7c-0.2-1.4-0.2-2.8-0.1-4.3c0.1-1.4,0.3-2.7,0.5-4c0.3-1.2,0.5-2.2,0.7-2.9c1.1-3.5,2.7-6.8,4.8-9.9
		c2.2-3,5-5.4,8.6-7.2c3.2-1.6,6.4-2.4,9.4-2.4c0.4,0,0.9,0.1,1.3,0.2s0.8,0.3,1.1,0.5c0.3,0.2,0.5,0.5,0.5,0.7
		c0,0.3-0.1,0.6-0.5,0.9c-0.2,0.1-0.6,0.4-1.3,0.7c-0.7,0.4-1.5,0.8-2.4,1.3s-1.8,1.1-2.7,1.7c-0.9,0.6-1.7,1.2-2.4,1.9
		c-1.7,1.7-3.1,3.5-4.3,5.4c-1.1,1.9-2,3.8-2.6,5.6c-0.6,1.8-1.1,3.4-1.4,4.9c-0.3,1.4-0.4,2.5-0.5,3.1c-0.1,1.2-0.1,2.2,0.1,2.8
		c0.1,0.7,0.3,1.1,0.6,1.4c0.2,0.3,0.5,0.4,0.8,0.4s0.6-0.1,0.9-0.4c0.5-0.4,1.1-1.1,1.7-2.2s1.2-2.3,1.8-3.7
		c0.6-1.4,1.1-2.8,1.6-4.2c0.5-1.4,0.9-2.7,1.2-3.7c0.9-3.1,1.7-5.5,2.5-7.1s1.5-2.6,2.1-3c1.1-0.7,2.1-1.3,3.2-1.7
		c1.1-0.4,2-0.6,2.7-0.5c0.4,0,0.7,0.3,0.8,1.1c0.1,0.7,0.1,1.7,0,2.9c-0.1,1.2-0.3,2.5-0.5,4c-0.3,1.5-0.5,3-0.8,4.6
		s-0.5,3.1-0.8,4.6c-0.2,1.5-0.4,2.9-0.5,4.1c-0.1,0.7,0.1,1.2,0.4,1.6s0.7,0.6,1.1,0.6c0.5,0,0.9-0.1,1.5-0.5
		C101.7,207.2,102.2,206.5,102.6,205.7"/>
	<path d="M108.9,178c1.1-0.2,2.2-0.3,3.1-0.5s1.8-0.3,2.5-0.3s1.3,0,1.8,0.2c0.5,0.1,0.9,0.4,1.3,0.9c0.6,0.8,0.8,1.8,0.7,3
		c-0.1,1.2-0.2,2.4-0.6,3.5c-0.3,1.4-0.8,2.8-1.5,4.2c1.8-3,3.6-5.4,5.4-7.3c1.8-1.8,3.5-3.2,5.2-4.3c1.7-1,3.3-1.7,4.8-2.1
		s2.9-0.7,4.2-0.8c1-0.1,2,0.2,3,0.8c1,0.6,1.8,1.5,2.4,2.7c0.7,1.2,1.1,2.7,1.3,4.4c0.2,1.7,0.1,3.6-0.3,5.7s-1.1,4.1-2.1,5.8
		c-1,1.7-2,3.2-3,4.5c-1.2,1.5-2.5,2.8-3.9,4c0.8,0.5,1.9,0.3,3.3-0.3c1.4-0.7,3-1.7,4.5-3.1c1.6-1.4,3.1-3.2,4.6-5.2
		s2.7-4.2,3.6-6.6c0.4-0.8,0.6-1.3,0.9-1.3c0.2,0,0.4,0,0.5,0c0.1,0.1,0.2,0.2,0.3,0.3c0,0.1,0.1,0.3,0,0.4c0,0.2-0.1,0.4-0.1,0.5
		c-1.3,3.2-2.8,6.1-4.5,8.7s-3.6,4.8-5.7,6.6c-2.1,1.8-4.3,3.2-6.7,4.2c-2.4,1-4.8,1.5-7.2,1.5c-1.3,0-2.4-0.1-3.3-0.4
		c-1-0.3-1.8-0.6-2.5-1.1s-1.3-1-1.7-1.6c-0.5-0.6-0.8-1.2-1.1-1.8c-0.7-1.4-1-3.1-1-4.9c0.5-0.1,1.1,0,1.6,0.3
		c0.6,0.3,1.3,0.6,2.1,0.8c0.8,0.2,1.8,0.1,3-0.3s2.6-1.3,4.2-2.9c0.7-0.6,1.3-1.4,1.8-2.5c0.6-1.1,1.1-2.3,1.5-3.5
		c0.4-1.3,0.7-2.5,0.9-3.8c0.2-1.3,0.2-2.4,0.1-3.4s-0.5-1.8-1.1-2.4s-1.4-0.8-2.5-0.7c-2.3,0.3-4.4,1.4-6.2,3.5
		c-1.8,2-3.5,4.6-4.9,7.8c-1.5,3.2-2.8,6.9-4.1,11c-1.2,4.1-2.4,8.5-3.5,13c-0.7,2.8-1.1,5.3-1.3,7.5c-0.2,2.2-0.3,4-0.4,5.5
		c0,1.5-0.1,2.7-0.1,3.5s-0.2,1.2-0.5,1.3c-1.7,0.3-8.4-3.6-7.8-8.2c0.2-1.6,0.5-3.6,1-5.9c0.5-2.4,1-4.9,1.6-7.7
		c0.6-2.8,1.3-5.5,1.9-8.2c0.7-2.6,1.3-5.1,1.8-7.3c0.6-2.2,1-3.9,1.4-5.1c0.5-2.2,0.9-4,1.1-5.6s0.3-2.9,0.3-3.9
		C109.2,179.8,109.1,178.8,108.9,178"/>
	<path d="M174.8,201c0.7-0.9,1.4-2.1,2.1-3.4s1.4-2.6,2.1-4c0.7-1.3,1.2-2.5,1.8-3.6c0.5-1.1,0.9-1.9,1.2-2.3
		c0.1-0.2,0.3-0.4,0.5-0.4s0.4,0,0.6,0.1s0.3,0.3,0.3,0.6c0.1,0.3,0,0.6-0.1,0.9c-0.3,0.6-0.7,1.5-1.2,2.6s-1.1,2.2-1.6,3.3
		c-0.6,1.1-1.1,2.2-1.6,3.2s-0.9,1.8-1.2,2.3c-1.2,2.1-2.6,3.5-4.3,4.4c-1.7,0.9-3.5,1-5.4,0.5c-1.4-0.4-2.4-1.2-3.1-2.4
		c-0.6-1.2-0.9-2.6-0.7-4.1c0.1-0.7,0.2-1.5,0.3-2.5c0.2-1,0.3-2,0.5-2.9s0.4-1.8,0.5-2.5s0.2-1.2,0.3-1.3c-0.4,0.7-0.8,1.5-1.3,2.6
		c-0.5,1-1,2-1.5,3s-1,1.9-1.4,2.7c-0.4,0.8-0.7,1.3-0.9,1.5c-1.2,1.9-2.2,3.4-3.1,4.5s-1.8,2-2.9,2.8c-0.4,0.3-1.1,0.6-2,0.8
		c-0.9,0.2-1.9,0.3-2.9,0.3c-1-0.1-2-0.3-3-0.7c-0.9-0.4-1.7-1.1-2.1-2.1c-0.5-1.1-0.8-2.4-0.8-3.8s0.2-2.8,0.5-4.2
		c0.3-1.4,0.7-2.7,1.1-3.9c0.4-1.2,0.8-2.1,1.1-2.7c1.6-3.3,3.7-6.4,6.2-9.1c2.6-2.7,5.8-4.6,9.6-5.9c3.4-1.1,6.7-1.4,9.7-1
		c0.4,0.1,0.9,0.2,1.3,0.4c0.4,0.2,0.8,0.4,1.1,0.6c0.3,0.3,0.4,0.5,0.4,0.8s-0.2,0.5-0.7,0.8c-0.2,0.1-0.7,0.3-1.4,0.5
		c-0.8,0.2-1.6,0.6-2.6,0.9c-1,0.4-1.9,0.8-3,1.3c-1,0.5-1.9,1-2.7,1.5c-1.9,1.4-3.6,3-5,4.7c-1.4,1.8-2.5,3.5-3.4,5.2
		s-1.6,3.2-2.1,4.6s-0.8,2.4-0.9,3c-0.3,1.2-0.4,2.1-0.3,2.8c0,0.7,0.2,1.2,0.4,1.5c0.2,0.3,0.5,0.5,0.8,0.5s0.6-0.1,1-0.2
		c0.6-0.3,1.3-0.9,2-1.9c0.8-1,1.5-2.1,2.3-3.4s1.5-2.6,2.2-3.9s1.3-2.5,1.7-3.5c1.3-3,2.5-5.2,3.5-6.7s1.8-2.3,2.5-2.7
		c1.2-0.6,2.3-1,3.4-1.2s2-0.3,2.7-0.1c0.4,0,0.6,0.4,0.6,1.2c0,0.7-0.1,1.7-0.4,2.8c-0.3,1.1-0.7,2.4-1.1,3.9
		c-0.5,1.4-0.9,2.9-1.4,4.4s-1,3-1.4,4.5c-0.5,1.5-0.8,2.8-1,4c-0.2,0.7-0.1,1.2,0.1,1.6s0.6,0.7,1,0.8c0.4,0.1,1,0,1.5-0.3
		C173.7,202.3,174.2,201.8,174.8,201"/>
	<path d="M276.3,185.1c-0.5,0.4-1.2,0.9-2.2,1.7c-1,0.8-2,1.9-3.1,3.2c-1.1,1.3-2.2,3-3.4,5c-1.1,2-2.2,4.3-3.1,7c1,0,2-0.3,3.1-0.7
		c1-0.5,2.1-1.1,3.1-1.8c1-0.7,1.9-1.5,2.8-2.4c0.9-0.9,1.6-1.8,2.3-2.6c1.2-1.5,2.1-3.1,2.8-4.6c0.7-1.6,1-3,1.1-4.2
		c0-0.3-0.1-0.6-0.1-0.9c-0.1-0.3-0.3-0.5-0.5-0.6s-0.6-0.1-1,0C277.6,184.3,277,184.6,276.3,185.1 M264.3,203.9
		c-0.2,0.9-0.4,1.8-0.4,2.7c0,0.9,0.1,1.7,0.3,2.2s0.5,0.9,0.9,1.3s0.9,0.7,1.6,0.9c0.7,0.2,1.5,0.1,2.5-0.1s2.2-0.7,3.6-1.5
		c1.3-0.8,2.6-1.7,3.8-2.8c1.2-1.1,2.3-2.2,3.3-3.4c1-1.2,2-2.4,2.8-3.6c0.9-1.2,1.6-2.3,2.2-3.3c0.1-0.1,0.2-0.2,0.4-0.4
		c0.2-0.2,0.3-0.3,0.4-0.2c0.1,0,0.3,0.2,0.4,0.4c0.1,0.3,0,0.7-0.3,1.4c-0.3,0.6-0.7,1.2-1,1.8c-0.3,0.6-0.8,1.3-1.3,2
		s-1.1,1.6-1.9,2.4c-0.7,0.9-1.7,1.9-2.8,3c-2,2-3.9,3.4-5.7,4.4s-3.4,1.7-4.8,2.1c-1.4,0.4-2.7,0.6-3.8,0.6s-1.9-0.1-2.6-0.1
		c-3.4-0.3-5.6-1.7-6.5-4.2c-0.9-2.5-0.6-6.1,0.9-10.6c1.4-4.3,3.1-7.9,5.3-10.8s4.9-5.1,8.1-6.5c1.4-0.6,2.8-1,4.2-1.2
		c1.5-0.2,2.8-0.2,4-0.1c1.2,0.2,2.3,0.5,3.1,0.9c0.9,0.4,1.4,1,1.6,1.6c0.4,1.6,0.3,3.2-0.3,4.8c-0.6,1.6-1.3,3.1-2.1,4.5
		c-0.2,0.3-0.7,1.1-1.5,2.1c-0.8,1.1-1.9,2.2-3.2,3.4c-1.4,1.2-3,2.4-5,3.5C269.1,202.5,266.8,203.4,264.3,203.9z"/>
	<path d="M286.1,185.7c1.2,0,2.2,0,3.2-0.1c0.9,0,1.8,0,2.5,0c0.7,0.1,1.3,0.2,1.8,0.4c0.5,0.2,0.9,0.6,1.1,1.1
		c0.4,0.9,0.6,1.9,0.3,3c-0.2,1.2-0.6,2.3-1,3.4c-0.5,1.3-1.2,2.6-2,4c2.2-2.7,4.3-4.9,6.3-6.5s3.9-2.7,5.7-3.5s3.5-1.3,5-1.5
		c1.6-0.2,3-0.3,4.3-0.2c1,0.1,2,0.5,2.9,1.2s1.5,1.7,2,3s0.7,2.8,0.7,4.5s-0.4,3.6-1.1,5.6c-0.7,2.1-1.7,3.9-2.9,5.5
		s-2.4,2.9-3.6,4.1c-1.4,1.3-2.9,2.5-4.4,3.5c0.7,0.6,1.8,0.6,3.3,0.1s3.2-1.3,4.9-2.5s3.5-2.7,5.2-4.6c1.7-1.8,3.2-3.8,4.4-6.1
		c0.5-0.8,0.8-1.2,1-1.2s0.4,0,0.5,0.1s0.2,0.2,0.2,0.4c0,0.2,0,0.3,0,0.4c0,0.2-0.1,0.3-0.2,0.5c-1.7,3-3.6,5.6-5.6,8
		c-2.1,2.3-4.2,4.3-6.5,5.8s-4.7,2.6-7.2,3.3c-2.5,0.7-4.9,0.8-7.4,0.5c-1.2-0.2-2.3-0.4-3.2-0.8s-1.7-0.9-2.3-1.4
		c-0.6-0.6-1.1-1.1-1.5-1.8c-0.4-0.6-0.7-1.3-0.8-1.9c-0.5-1.5-0.6-3.2-0.3-5c0.5,0,1,0.1,1.6,0.6c0.5,0.4,1.2,0.8,2,1
		c0.8,0.3,1.8,0.3,3,0.1c1.2-0.2,2.8-1,4.6-2.3c0.7-0.5,1.4-1.2,2.2-2.2c0.7-1,1.4-2.1,2-3.3c0.6-1.2,1.1-2.4,1.4-3.7
		c0.4-1.3,0.6-2.4,0.5-3.4c0-1-0.3-1.8-0.7-2.5c-0.5-0.7-1.3-1-2.4-1c-2.3,0-4.5,0.9-6.6,2.6s-4,4.1-5.9,7.1s-3.7,6.4-5.5,10.4
		c-1.8,3.9-3.5,8.1-5.2,12.5c-1,2.7-1.8,5.1-2.3,7.2s-0.9,3.9-1.1,5.4c-0.2,1.5-0.4,2.6-0.6,3.4c-0.1,0.8-0.4,1.2-0.7,1.2
		c-1.9,0-7.7-5.1-6.6-9.2c0.4-1.6,1-3.5,1.8-5.8s1.6-4.8,2.6-7.5s2-5.3,3-7.8s1.9-4.8,2.8-7c0.9-2.1,1.5-3.7,2-4.9
		c0.8-2.1,1.5-3.9,1.9-5.4s0.7-2.8,0.9-3.8C286.2,187.5,286.2,186.5,286.1,185.7"/>
	<path d="M213.9,177c2.1-0.5,4-0.9,5.8-0.9c1.8-0.1,3.2,0.3,4.2,1.1c0.4,0.3,0.6,0.9,0.6,1.8s-0.2,1.9-0.4,3
		c-0.3,1.1-0.6,2.3-1.1,3.5c-0.4,1.2-0.9,2.4-1.3,3.4c-0.5,1.1-0.9,2-1.2,2.8c-0.3,0.8-0.5,1.3-0.6,1.5c-0.3,0.6-0.3,0.9-0.1,0.9
		c0,0,0.1,0,0.3-0.1c1.2-1.7,2.7-3.6,4.5-5.4c1.8-1.9,3.6-3.6,5.4-5.2s3.6-2.8,5.2-3.8c1.7-1,3-1.4,4-1.3s1.6,0.6,1.8,1.5
		c0.1,0.9,0,1.9-0.3,3.1s-0.8,2.4-1.3,3.5c-0.6,1.1-1,2-1.4,2.6s-0.6,1-0.7,1.2s-0.1,0.4,0,0.5s0.2,0.1,0.5-0.1
		c2.7-3.8,5.1-6.7,7.2-8.6c2.2-1.9,4.1-3.2,5.7-3.9c1.6-0.7,2.9-0.9,3.9-0.6s1.7,0.7,2,1.3c0.2,0.4,0.3,1.1,0.1,2.1
		c-0.1,1-0.4,2.1-0.8,3.4c-0.4,1.3-0.9,2.6-1.4,4.1c-0.5,1.4-1.1,2.8-1.7,4.2c-0.6,1.3-1.1,2.5-1.6,3.6s-0.8,1.8-1,2.4
		c-0.4,0.8-0.8,1.8-1.2,2.9c-0.4,1.2-0.7,2.2-0.9,3.2c-0.1,0.9,0,1.6,0.4,2.1c0.4,0.4,1.3,0.3,2.6-0.3c0.9-0.4,1.8-1.3,2.7-2.6
		c1-1.3,1.9-2.7,2.7-4.2c1-1.7,1.9-3.6,2.9-5.6c0-0.2,0.1-0.4,0.3-0.6c0.3-0.3,0.6-0.4,0.9-0.3c0.3,0.1,0.5,0.3,0.6,0.4
		c0.1,0.2,0.1,0.4,0.1,0.6s-0.1,0.5-0.2,0.7c-1.8,3.6-3.5,6.4-4.9,8.6c-1.4,2.2-2.7,3.8-4,5c-1.2,1.2-2.5,1.9-3.7,2.3
		s-2.6,0.5-4.2,0.5c-1.5,0-2.7-0.2-3.6-0.6c-0.8-0.4-1.4-1-1.7-1.8c-0.3-0.8-0.3-1.8-0.1-3c0.2-1.2,0.5-2.7,1-4.3
		c0.5-1.6,1.1-3.3,1.8-4.9c0.7-1.6,1.3-3.1,1.9-4.5c0.6-1.3,1-2.4,1.2-3.3s0.1-1.4-0.4-1.5c-0.6-0.1-1.2,0-1.8,0.4
		c-0.6,0.4-1.3,1-1.9,1.7c-0.7,0.7-1.3,1.6-2,2.5c-0.7,1-1.3,2-1.9,3c-1.4,2.4-2.8,5.2-4.2,8.4c-0.5,0.1-1.1,0.1-1.6,0
		s-1-0.3-1.6-0.6c-0.6-0.3-1.2-0.8-1.7-1.6c-0.4-0.5-0.5-1.1-0.4-1.9s0.3-1.7,0.6-2.6c0.3-1,0.7-1.9,1.2-3c0.5-1,0.9-2,1.3-2.9
		s0.6-1.8,0.8-2.5c0.1-0.8,0.1-1.3-0.2-1.8c-0.3-0.4-0.8-0.5-1.4-0.2s-1.4,0.8-2.2,1.6c-0.8,0.8-1.7,1.8-2.6,3s-1.9,2.5-2.8,3.9
		s-1.8,2.9-2.6,4.5c-0.8,1.6-1.5,3.1-2.1,4.5c-0.5,1.4-0.9,2.5-1.1,3.5c-0.2,0.9-0.3,1.7-0.4,2.3c-0.1,0.7,0,1.2,0.1,1.7
		c-3.8,0.4-9.4-2.6-8.6-7c0.2-1,0.5-2.1,0.9-3.5c0.4-1.3,1-2.7,1.6-4.3c0.6-1.5,1.2-3,1.8-4.5c0.6-1.5,1.1-2.8,1.6-4.1
		c0.5-1.3,0.9-2.3,1.1-3.1c0.4-1.3,0.6-2.4,0.6-3.3c0-1-0.1-1.8-0.2-2.4C214.4,178.1,214.1,177.5,213.9,177"/>
	<path d="M185.8,172.7c0.9-4.7-4.6-2.3-5.6-1.1c1.1-6.3,7.3-9,10.7-7.1c2,1.2,2.7,3.1,2.6,5.4c-0.2,4.5-3.4,11.7-4.5,16.7
		c1.3-1.4,2.9-2.8,4.8-4.2c1.9-1.4,3.8-2.5,5.7-3.4c1.9-0.9,3.6-1.3,5.2-1.4s2.7,0.5,3.4,1.8c0.6,1,0.7,2,0.4,3
		c-0.3,1-0.9,1.9-1.8,2.8c-1.9,1.9-6.3,5-8.9,2.9c0.5-0.6,0.8-1.3,1-2.1c0.1-0.7,0-1.2-0.4-1.5c-1.1-0.7-3.1,0.1-4.2,0.6
		c-2,1-3.7,2.4-5.1,4.1c-0.7,0.9-1.3,1.8-1.7,2.8c-0.9,2.6-1.5,4.7-2,6.4c-0.6,2.1-1.3,4.3-1.9,6.4c-0.4,1.2-0.8,2.9-0.5,4.2
		c0.2,0.7,0.4,1.2,0.5,1.4c-1.1,0.1-2.2,0-3.2-0.3c-0.9-0.2-1.7-0.6-2.6-1.2s-1.5-1.5-2-2.7c-0.2-0.5-0.3-1.7,0.3-3.5
		C179.2,192.8,184.5,179.6,185.8,172.7"/>
	<path d="M198.7,212.1c-1.8-1.4-3.3-3-4.5-4.8s-2.2-3.6-2.9-5.4c-2.5-6.1-0.1-10.7-8-3.9c-0.3,0.2-0.5,0.5-0.8,0.7
		c-0.2-0.6-0.6-1.2-1.1-1.6c0.8-0.8,1.5-1.5,2.3-2.2c1.4-1.3,2.7-2.3,3.9-3.1c1.3-0.8,2.4-1.2,3.4-1.2s2,0.2,2.7,0.7
		c0.8,0.5,1.4,1,1.9,1.7c2.4,3.3,0.5,6.3,6.5,13.6c1.7,2,3.2,3.5,4.6,4.6c4.4,3.4,11.3,2.6,14.6,1.9c-0.2,1.1-1.5,2.2-3.4,2.7
		C211.1,217.9,204.5,216.6,198.7,212.1"/>
	<path d="M325.3,143.5v0.5c-0.5,0.9-1.2,2-2.1,3.4c-1,1.4-2.1,2.7-3.3,4.1c-1.3,1.4-2.6,2.8-3.9,4.1c-1.4,1.3-2.6,2.4-3.8,3.2
		c-1.2,0.9-2.4,1.3-3.4,1.3s-2-0.2-2.8-0.6s-1.5-1-2-1.7s-0.9-1.3-1.1-1.9c-0.3-0.6-0.3-1.5-0.2-2.6s0.4-2.2,0.6-3.4
		c0.3-1.3,0.6-2.7,1.1-4.2c-0.4,0.8-1,1.6-1.7,2.5c-0.6,0.8-1.3,1.7-2.2,2.8c-0.9,1.1-1.9,2.3-3.1,3.6c-1.2,1.3-2.4,2.3-3.6,2.8
		c-1.2,0.5-2.2,0.9-3,1c-1.1,0.1-2.1,0.1-3-0.1c-1.8-0.4-3-1.2-3.6-2.5s-0.8-2.7-0.7-4.4c0.1-1.5,0.4-3.1,1-4.7
		c-0.5,0.6-1,1.2-1.6,1.8c-1.3,1.4-2.5,2.5-3.6,3.5c-1.2,0.9-2.3,1.4-3.3,1.5s-2-0.1-2.8-0.4c-0.8-0.4-1.5-0.9-2.1-1.6
		s-1-1.3-1.2-1.8c-0.3-0.6-0.4-1.5-0.3-2.6c0.1-1.1,0.2-2.3,0.4-3.4c0.2-1.3,0.5-2.8,0.9-4.3c-0.4,0.8-0.9,1.6-1.5,2.5
		c-0.5,0.8-1.2,1.8-2,2.9c-0.8,1.2-1.8,2.4-2.9,3.8c-1.1,1.4-2.3,2.4-3.4,3c-1.1,0.6-2.1,1-3,1.2c-1.1,0.2-2.1,0.2-3,0.1
		c-1.8-0.3-3-1-3.7-2.3c-0.7-1.2-1-2.7-0.9-4.4c0.1-1.7,0.3-3.6,1-5.5c1.9-5.7,5.9-11.8,7.3-17.1c0.2-1,0.4-2,0.4-3
		c0-1.4,0.4-1.7,1.8-1.6c2.4,0.2,6.4,4.6,5.6,8c-0.3,1.2-0.7,2.4-1.3,3.7c-0.6,1.3-1.2,2.5-1.8,3.7c-0.7,1.2-1.1,2.1-1.4,2.8
		c-0.3,0.7-0.7,1.5-1.2,2.5s-1,2-1.4,3s-0.7,1.9-0.9,2.8s-0.1,1.6,0.3,2c0.4,0.5,0.8,0.7,1.3,0.7s1-0.2,1.5-0.5s1-0.6,1.4-1
		s0.8-0.7,1-1c1.1-1.1,2.3-2.5,3.5-4.1c1.2-1.7,2.4-3.4,3.5-5.2c1.1-1.8,2.2-3.7,3.2-5.5s1.9-3.5,2.7-5s1.4-2.8,1.9-3.7
		c0.5-1,0.7-1.6,0.8-1.7c0.1-0.3,0.3-0.6,0.7-0.6c0.2,0,0.3,0,0.5,0.1c1.2,0.3,2.2,0.8,2.9,1.5s1.2,1.4,1.4,2.3
		c0.3,0.9,0.4,1.9,0.3,3c-0.1,1.1-0.2,2.1-0.5,3.2c-0.2,0.9-0.7,2.1-1.5,3.6s-1.6,3.2-2.5,5s-1.7,3.5-2.5,5.2s-1.3,3.1-1.5,4.3
		c-0.1,0.5-0.1,0.9,0.1,1.1c0.2,0.2,0.4,0.3,0.6,0.4c0.2,0,0.5,0,0.7,0c0.2-0.1,0.4-0.2,0.5-0.2c1.7-1,3.2-2.2,4.5-3.6
		c1.4-1.4,2.5-2.8,3.5-4.1c1-1.3,1.8-2.5,2.4-3.5c0.2-0.4,0.4-0.7,0.5-0.9c0.1-0.1,0.1-0.2,0.2-0.3c1.4-2.5,2.6-4.9,3.3-7.2
		c0.3-1,0.5-2,0.6-2.9c0.1-1.4,0.5-1.7,1.8-1.5c2.4,0.4,6.1,5,5.2,8.3c-0.3,1.1-0.8,2.3-1.5,3.6c-0.7,1.2-1.3,2.4-2.1,3.6
		c-0.7,1.1-1.2,2-1.6,2.7c-0.4,0.7-0.8,1.5-1.4,2.4s-1.1,1.9-1.5,2.9c-0.5,1-0.8,1.9-1.1,2.8c-0.2,0.9-0.2,1.5,0.2,2
		s0.8,0.8,1.2,0.7c0.5,0,1-0.1,1.5-0.4c0.5-0.2,1-0.5,1.4-0.9s0.8-0.7,1.1-0.9c1.2-1,2.5-2.3,3.7-3.9c1.3-1.6,2.5-3.3,3.8-5
		c1.2-1.8,2.4-3.5,3.5-5.3s2.1-3.4,3-4.8c0.9-1.5,1.6-2.7,2.1-3.6c0.5-1,0.8-1.5,0.9-1.7c0.1-0.3,0.3-0.5,0.7-0.6
		c0.2,0,0.3,0,0.4,0.1c1.2,0.4,2.1,1,2.8,1.6c0.6,0.7,1.1,1.5,1.3,2.4s0.2,1.9,0.1,3c-0.1,1.1-0.4,2.1-0.7,3.2
		c-0.3,0.8-0.9,2-1.7,3.6c-0.8,1.5-1.8,3.1-2.8,4.9c-1,1.7-1.9,3.4-2.8,5.1c-0.9,1.6-1.5,3-1.7,4.2c-0.1,0.5-0.1,0.9,0,1.1
		s0.3,0.3,0.6,0.4s0.5,0.1,0.8,0c0.2-0.1,0.4-0.1,0.6-0.2c1.7-0.9,3.3-2,4.7-3.4c1.4-1.3,2.7-2.6,3.8-3.9s1.9-2.4,2.6-3.4
		c0.6-1,1-1.5,1.1-1.6c0.3-0.5,0.8-0.7,1.3-0.7C325.2,143,325.3,143.1,325.3,143.5z"/>
	<path d="M116.4,123.1c-0.7,0.4-1.9-0.5-2.5-0.1c-1.1,0.8-1.9,1.3-2.3,1.6c-0.6,0.4,0.4-1.2-0.2-2.1c-0.6-0.8-1.4-1.9-2.2-3.2
		c-0.2,0-0.5,0-0.7,0c-1.6,0.2-3.1,0.5-4.6,1s-2.8,1.1-3.9,1.8s-1.9,1.3-2.3,1.9c1.6-0.8,3.2-1.3,4.6-1.6c1.2-0.2,2.5-0.2,3.6,0.1
		c1.2,0.3,2,1.2,2.5,2.6c0.5,1.5,0.9,3.2,0.9,5.1c0.1,1.8,0,3.7-0.3,5.6s-0.7,3.7-1.3,5.5c-0.6,1.8-1.3,3.4-2.2,4.8
		c-0.8,1.5-1.8,2.7-2.8,3.6s-2,1.5-3.2,1.8c-1.1,0.2-1.9,0.1-2.6-0.5c-0.6-0.5-1-1.2-1.3-2.2c-0.3-0.9-0.5-2-0.5-3.2
		s0.1-2.4,0.2-3.6s0.3-2.3,0.5-3.4c0.2-1,0.4-1.8,0.6-2.4c0.2-0.8,0.5-1.7,0.8-2.6s0.7-1.8,1.1-2.6c0.5-0.9,1-1.8,1.6-2.6
		c0.6-0.8,1.4-1.7,2.3-2.4c-1.5-0.2-3-0.1-4.4,0.2c-0.6,0.2-1.2,0.4-1.9,0.8c-0.6,0.4-1.3,0.8-1.9,1.4s-1.2,1.3-1.8,2.1
		c-0.6,0.8-1.1,1.8-1.6,3c-0.6,1.5-1.1,2.9-1.5,4.2c-0.2,0.2-0.4,0.4-0.5,0.7c-0.1,0.1-0.3,0.8-0.6,1.9c-0.3,1.1-0.9,2.4-1.6,3.9
		s-1.6,3.1-2.6,4.8c-1,1.7-2.3,3.2-3.7,4.5c-0.1,0.1-0.3,0.2-0.5,0.4c-0.2,0.1-0.5,0.2-0.7,0.2c-0.3,0-0.5-0.1-0.7-0.2
		c-0.2-0.2-0.3-0.5-0.3-1c0-1.2,0.1-2.7,0.5-4.5s0.9-3.7,1.4-5.6s1-3.7,1.4-5.4c0.4-1.7,0.7-3,0.7-3.9c0-1.1,0-2.2-0.2-3.2
		c-0.2-1.1-0.5-2-0.9-2.8s-1.1-1.5-1.8-2c-0.8-0.5-1.8-0.8-3.1-0.8c-0.1,0-0.3,0-0.5,0c-0.3,0.1-0.5,0.4-0.5,0.8
		c0,0.2-0.1,0.8-0.4,1.9s-0.6,2.4-1.1,4s-1,3.5-1.6,5.5s-1.3,4-2,6s-1.5,4-2.3,5.8c-0.8,1.9-1.7,3.5-2.6,4.8
		c-0.2,0.3-0.5,0.7-0.8,1.2s-0.7,0.9-1.1,1.3s-0.9,0.6-1.3,0.8c-0.5,0.1-0.9,0-1.4-0.4s-0.7-1-0.7-1.9s0.1-1.9,0.3-3
		c0.2-1.1,0.4-2.1,0.7-3.2c0.3-1.1,0.5-2,0.7-2.7s0.4-1.7,0.8-3s0.7-2.6,1.1-4c0.3-1.4,0.5-2.7,0.5-3.8c0-3.5-4.8-6.9-7.2-6.6
		c-1.3,0.2-1.7,0.5-1.4,1.9c0.2,1,0.2,2,0.2,3c-0.2,5.5-2.9,12.3-3.6,18.2c-0.2,2-0.1,3.9,0.2,5.6c0,0.3,0.1,0.6,0.2,0.9
		c-0.7,1.2-1.5,2.4-2.4,3.6c-1.4,1.9-3.1,3.6-5.1,5.2s-4.3,2.7-6.9,3.5s-4.9,1-6.8,0.6c-1.9-0.4-3.6-1.2-4.9-2.4
		c-1.3-1.2-2.4-2.7-3.3-4.4c-0.8-1.7-1.5-3.6-2-5.4c-0.5-1.9-0.8-3.7-1-5.6c-0.2-1.8-0.3-3.4-0.3-4.7c0-1.3,0-2.7,0-4.4
		c0-1.7,0-3.5,0.2-5.3c0.1-1.9,0.3-3.8,0.7-5.8c0.3-2,0.8-4,1.4-6c5.9,2.5,13.8,3.5,20.6,2c6.9-1.5,17.8-8.3,12.2-16.5
		c-1-1.5-2.4-2.6-4.1-3.5s-3.8-1.4-6.1-1.6c-2.3-0.2-4.7,0-7.3,0.5c-2.5,0.5-5,1.4-7.6,2.7c-2.5,1.3-4.9,2.9-7.1,5
		c-0.6,0.5-1.2,1.1-1.7,1.7s-1,1.2-1.5,1.8c-3.1-1.4-6.5-3.4-10-3.3c-6.9,0.2-9.8,6.3-9,10c1-1.4,1.8-2.1,2.7-2.6
		c4.1-2.1,8.6,0.3,12.3,2.1c-1.5,2.8-2.5,5.7-3.3,8.7c-0.7,3-1.2,6-1.4,8.9c-0.2,2.9-0.2,5.8,0.1,8.5c0.2,2.8,0.6,5.3,1,7.6
		c0.6,3,1.7,5.7,3.3,8.2c1.6,2.5,3.6,4.4,6.1,5.8s5.3,2.3,8.5,2.5s6.8-0.4,10.6-1.8c2.6-0.9,4.8-2.3,6.8-4.1c2-1.8,3.7-3.7,5.2-5.9
		c0.6-0.8,1.1-1.6,1.6-2.4c0.1,0.1,0.1,0.1,0.2,0.2c0.9,1,2.3,1.5,4.1,1.5c0.9,0,1.9-0.3,2.9-0.7c0.8-0.4,1.7-1,2.7-1.8
		s1.9-2,2.7-3.6c0.8-1.6,1.5-3,2.1-4.3c0.5-1.3,1-2.4,1.3-3.3c0.4-1,0.7-2,1-2.8c0,1.6,0,3,0.1,4.4c0,1.2,0.1,2.3,0.3,3.4
		c0.2,1.1,0.4,1.9,0.8,2.5c0.4,0.5,0.9,1,1.6,1.5s1.5,0.9,2.4,1.1s1.8,0.1,2.8-0.2c1-0.3,2-1,2.9-2.2c0.9-1.1,1.9-2.5,2.8-4.1
		c1-1.6,1.9-3.3,2.7-5c0.1-0.3,0.3-0.5,0.4-0.8c-0.1,1.4,0,2.6,0.2,3.6c0.2,1.2,0.6,2.2,1.1,3c2.3,3.7,10.7,1.6,13.9,0.2
		c4.9-2.2,8.6-6.2,11.2-11.5c0.8-1.7,1.6-3.8,2.1-6c0.6-2.3,0.9-4.8,1-7.7C117.3,125.9,117,124.3,116.4,123.1z M26.3,117.2
		c0.8-1.1,1.7-2.1,2.7-3c2.4-2.2,4.7-3.6,6.8-4.1c2.1-0.5,4-0.5,5.5,0s2.7,1.4,3.5,2.6s1.1,2.4,0.9,3.7c-0.2,1.2-0.7,2.4-1.7,3.6
		c-0.9,1.2-2.1,2.2-3.5,2.9c-1.4,0.8-3,1.3-4.9,1.5c-1.8,0.2-3.8-0.1-5.8-0.8c-0.9-0.4-1.8-0.8-2.8-1.3s-2-1-3.1-1.6
		C24.8,119.4,25.5,118.2,26.3,117.2z"/>
	<path d="M112.8,119.9c-1.1-0.4-2.3-0.6-3.6-0.5c-2.8-4-6.5-9.5-6.9-11.9c-0.3-2,0-3.6,0.7-4.9s1.8-2.4,3.1-3.3
		c1.3-0.9,2.8-1.6,4.5-2.1s3.4-1,5-1.4c1.7-0.4,3.2-0.9,4.7-1.6s2.8-1.4,3.9-2c1.3-0.8,2.5-1.5,3.6-2.3c0.5,2,0.5,3.7,0.3,5.1
		c-0.3,1.4-0.8,2.6-1.5,3.6s-1.6,1.8-2.6,2.4s-2,1.1-3,1.4c-3,1.1-5.4,1.3-8.2,3c-0.8,0.5-1.5,1.1-2,1.9c-0.6,0.8-0.9,1.7-0.9,2.8
		c0.2,5.3,4.6,8.4,6.5,13.1l0,0c-0.1-0.2-0.2-0.4-0.3-0.6C115.2,121.3,114.1,120.4,112.8,119.9z"/>
	<path d="M299.3,119.3c7.6,0.6,16.3-3.3,19.4-6.6c3.5,5.6,1,8.4-3.1,9.8c-2,0.7-10.1,2.1-12.1,1.5
		C301.5,123.4,300.1,121.1,299.3,119.3z"/>
	<path d="M306.6,82.7l4.8,1.2l-1-6.2L306.6,82.7z M296.5,87.9l0.2-0.8l14.7-18.2l2.3,0.6l4.3,23l-0.2,0.8l-5.3-1.3l-0.6-3l-8.3-2.1
		l-1.9,2.3L296.5,87.9z M274.9,83.6l0.2-0.8l9-9.1l-4.3-10.5l0.2-0.8l5.7,1.2l2.3,6.2h0.1l4.6-4.9l5.6,1.1l-0.2,0.9l-8,8l4.8,11.9
		l-0.2,0.8l-5.9-1.2l-2.5-7.5h-0.2l-5.3,5.9L274.9,83.6z M266.2,82.2l3.2-21.6l5.5,0.8L271.7,83L266.2,82.2z M251.2,74.9l3.9,0.6
		c0.4,0.1,0.8,0,1.2-0.1c0.4-0.1,0.7-0.4,0.9-0.6c0.2-0.3,0.4-0.6,0.5-1s0.2-0.7,0.2-1.1c0-0.4-0.1-0.7-0.2-1.1
		c-0.1-0.3-0.3-0.6-0.7-0.9c-0.3-0.2-0.7-0.4-1.1-0.5l-3.9-0.6L251.2,74.9z M245,79l3.2-21.6l5.5,0.8l-1,6.5l4,0.6
		c1.1,0.2,2.1,0.5,3,1s1.6,1.1,2.1,1.7c0.5,0.7,0.9,1.4,1.2,2.2s0.4,1.7,0.4,2.5s-0.2,1.7-0.4,2.5s-0.6,1.6-1.1,2.3
		c-0.5,0.7-1.1,1.3-1.8,1.8s-1.5,0.8-2.5,1.1c-1,0.2-2,0.2-3.1,0.1L245,79z M228.7,72.3l6.1,0.6l-2.3-8.1L228.7,72.3z M220.2,78.8
		l0.8-7.2l2.2,0.2l9.2-16.4l2.4,0.2l5.9,17.9l2.3,0.2l-0.8,7.2l-4.6-0.5l0.2-2.4L225,76.7l-0.2,2.4L220.2,78.8z M205.7,58.4l0.4-5
		l16.2,1.2l-0.4,5l-5.3-0.4L215.4,76l-5.5-0.4l1.2-16.8L205.7,58.4z M186.2,63.3c0,0.9,0.1,1.8,0.4,2.6s0.7,1.4,1.2,1.9
		s1.1,0.9,1.7,1.2s1.3,0.4,2,0.5c0.7,0,1.4-0.1,2-0.3c0.7-0.2,1.3-0.6,1.8-1c0.5-0.5,1-1.1,1.3-1.8c0.3-0.8,0.5-1.6,0.6-2.6
		c0-0.9-0.1-1.8-0.4-2.6s-0.7-1.4-1.2-1.9s-1.1-0.9-1.7-1.2s-1.3-0.4-2-0.5c-0.7,0-1.4,0.1-2,0.3c-0.7,0.2-1.3,0.6-1.8,1
		c-0.5,0.5-1,1.1-1.3,1.8C186.5,61.5,186.3,62.4,186.2,63.3z M180.5,63.1c0.1-1.8,0.5-3.4,1.2-4.9c0.7-1.4,1.6-2.6,2.7-3.4
		c1.1-0.9,2.3-1.5,3.7-1.9c1.4-0.4,2.7-0.6,4.1-0.6c1.4,0.1,2.8,0.4,4.1,0.9c1.3,0.5,2.5,1.3,3.5,2.2s1.8,2.2,2.4,3.7s0.8,3.1,0.8,5
		c-0.1,1.8-0.5,3.5-1.2,4.9s-1.6,2.6-2.7,3.5s-2.3,1.5-3.7,1.9c-1.4,0.4-2.7,0.6-4.1,0.6c-1.4-0.1-2.8-0.4-4.1-0.9
		c-1.3-0.5-2.5-1.3-3.5-2.2c-1-1-1.8-2.2-2.4-3.7C180.7,66.6,180.5,64.9,180.5,63.1z M151.9,63.3c0,0.9,0.2,1.8,0.5,2.6
		s0.7,1.4,1.3,1.9c0.5,0.5,1.1,0.8,1.8,1.1c0.7,0.2,1.3,0.4,2,0.4s1.4-0.1,2-0.4c0.7-0.3,1.2-0.6,1.7-1.1s0.9-1.1,1.2-1.9
		c0.3-0.8,0.5-1.6,0.4-2.6c0-0.9-0.2-1.8-0.5-2.6s-0.7-1.4-1.3-1.8c-0.5-0.5-1.1-0.8-1.8-1.1c-0.7-0.2-1.3-0.4-2-0.4s-1.4,0.1-2,0.4
		c-0.7,0.3-1.2,0.6-1.7,1.1s-0.9,1.1-1.2,1.9C152.1,61.5,151.9,62.3,151.9,63.3z M146.2,63.3c0-1.8,0.3-3.5,0.9-4.9
		c0.6-1.5,1.5-2.7,2.5-3.6c1-0.9,2.2-1.6,3.6-2.1c1.3-0.5,2.7-0.8,4.1-0.8s2.8,0.2,4.1,0.7c1.3,0.5,2.6,1.2,3.6,2.1
		c1.1,0.9,1.9,2.1,2.6,3.5c0.7,1.5,1,3.1,1,4.9c0,1.8-0.3,3.5-0.9,5s-1.5,2.7-2.5,3.6c-1,0.9-2.2,1.6-3.6,2.1
		c-1.3,0.5-2.7,0.8-4.1,0.8s-2.8-0.2-4.1-0.7c-1.3-0.5-2.5-1.2-3.6-2.1c-1.1-0.9-1.9-2.1-2.6-3.5C146.6,66.8,146.2,65.1,146.2,63.3z
		 M130.2,74.7l-0.9-21.8l13.6-0.6l0.2,5l-7.9,0.3l0.7,16.8L130.2,74.7z M108.5,65.3c0.1,0.9,0.3,1.8,0.7,2.5
		c0.4,0.7,0.8,1.3,1.4,1.8c0.5,0.4,1.2,0.8,1.8,1c0.7,0.2,1.4,0.3,2,0.2c0.7-0.1,1.3-0.2,2-0.5c0.6-0.3,1.2-0.7,1.7-1.2
		s0.8-1.2,1.1-2c0.3-0.8,0.4-1.7,0.3-2.6c-0.1-0.9-0.3-1.8-0.7-2.5c-0.4-0.7-0.8-1.3-1.4-1.8c-0.5-0.4-1.2-0.7-1.8-1
		c-0.7-0.2-1.4-0.3-2-0.2c-0.7,0.1-1.3,0.2-2,0.5c-0.6,0.3-1.2,0.7-1.7,1.2s-0.8,1.2-1.1,1.9C108.6,63.5,108.5,64.4,108.5,65.3z
		 M102.8,65.7c-0.1-1.8,0.1-3.5,0.6-5s1.3-2.8,2.3-3.7c1-1,2.1-1.8,3.4-2.3c1.3-0.6,2.6-0.9,4-1s2.8,0,4.2,0.4
		c1.4,0.4,2.6,1,3.7,1.8s2,1.9,2.8,3.4c0.7,1.4,1.2,3,1.3,4.8c0.1,1.8-0.1,3.5-0.6,5s-1.3,2.8-2.3,3.7c-1,1-2.1,1.8-3.4,2.4
		c-1.3,0.6-2.7,0.9-4,1c-1.4,0.1-2.8,0-4.1-0.4c-1.4-0.4-2.6-1-3.7-1.8s-2-2-2.8-3.4C103.4,69.2,103,67.6,102.8,65.7z M81.3,78.9
		l-2.4-21.7l5.7-0.6l0.9,7.9l6.7-0.7l-0.9-7.9l5.7-0.6L99.4,77l-5.7,0.6l-1-8.7L86,69.6l1,8.7L81.3,78.9z M57.9,82.2l-3.2-21.6
		l5.6-0.8l1.2,7.8l6.7-1L67,58.8l5.6-0.8l3.2,21.6l-5.6,0.8l-1.3-8.7l-6.7,1l1.3,8.7L57.9,82.2z M40.5,78l4.9-0.9L41.8,72L40.5,78z
		 M33.6,87l-0.2-0.8L39,63.5l2.4-0.5l13.7,19l0.2,0.8l-5.3,1l-1.8-2.4L39.7,83L39,85.9L33.6,87z M19.2,85.1l3.9-0.9
		c0.5-0.1,0.9-0.3,1.2-0.6c0.3-0.3,0.5-0.6,0.6-1c0.1-0.3,0.1-0.7,0-1.1s-0.2-0.7-0.5-0.9c-0.2-0.3-0.5-0.5-0.9-0.6s-0.8-0.1-1.3,0
		l-3.9,0.9L19.2,85.1z M14.9,91.3L9.7,70.1l15.2-3.7l1.2,4.8l-9.8,2.4l0.6,2.6l3.9-0.9c1.1-0.3,2.1-0.4,3.1-0.3
		c1,0.1,1.8,0.3,2.6,0.7c0.7,0.4,1.4,0.9,1.9,1.5c0.6,0.6,1,1.3,1.3,2c0.3,0.7,0.5,1.5,0.6,2.3s0,1.6-0.2,2.3
		c-0.2,0.8-0.6,1.5-1.1,2.2s-1.1,1.3-1.9,1.8s-1.8,0.9-2.9,1.2L14.9,91.3z"/>
	<path d="M2.3,59.8c31.4-5.6,62.5-11.4,94.2-14.9c-0.3,1.7-1,2.6-4.6,3.1c-29.2,3.7-56.2,9.1-82.2,13.5C5.6,62,2.9,61.9,2.3,59.8"/>
	<path d="M176.7,36.4V13.7h2.1l8.9,9.8l9-9.8h2.1v22.7h-5.9V26.3l-4.8,5.1h-0.6l-4.8-5.1v10.1H176.7z M155.1,25.1
		c0,1,0.2,1.9,0.5,2.7s0.8,1.4,1.3,1.9s1.1,0.9,1.8,1.1c0.7,0.3,1.4,0.4,2.1,0.4s1.4-0.1,2.1-0.4c0.7-0.3,1.3-0.6,1.8-1.1
		s1-1.1,1.3-1.9c0.3-0.8,0.5-1.7,0.5-2.7s-0.2-1.9-0.5-2.7s-0.8-1.4-1.3-1.9s-1.1-0.9-1.8-1.1c-0.7-0.3-1.4-0.4-2.1-0.4
		s-1.4,0.1-2.1,0.4c-0.7,0.3-1.3,0.6-1.8,1.1s-1,1.1-1.3,1.9C155.2,23.3,155.1,24.1,155.1,25.1z M149.2,25.1c0-1.9,0.3-3.6,1-5.1
		s1.5-2.8,2.6-3.7s2.3-1.7,3.7-2.2c1.4-0.5,2.8-0.8,4.3-0.8c1.4,0,2.9,0.3,4.3,0.8s2.6,1.2,3.7,2.2c1.1,0.9,2,2.2,2.6,3.7
		c0.7,1.5,1,3.2,1,5.1c0,1.9-0.3,3.6-1,5.1s-1.5,2.8-2.6,3.7s-2.3,1.7-3.7,2.2c-1.4,0.5-2.8,0.8-4.3,0.8c-1.4,0-2.9-0.3-4.3-0.8
		s-2.6-1.2-3.7-2.2c-1.1-0.9-2-2.2-2.6-3.7C149.5,28.7,149.2,27,149.2,25.1z M132.9,31.3h6.4l-3.3-8.2L132.9,31.3z M124.7,38.9v-7.5
		h2.3l7.7-17.9h2.5l8,17.9h2.4v7.5h-4.7v-2.5h-13.4v2.5H124.7z"/>
	<path d="M102.6,47.1c0.7-0.9,1-1.4,1.3-2.8c39.9-3.1,80.1-3.1,120,0c0.2,1.4,0.6,1.9,1.3,2.8C186.6,43.4,141.3,43.4,102.6,47.1"/>
	<path d="M58.6,37.5c-2.8,1.2-4.5,1.1-5.4,0C95.5,13.6,126.5,2.1,131,0c1.5-0.5-1.2,3.4-2.6,4c-26.6,12-41.8,19.3-67.8,32.5
		L58.6,37.5z"/>
	<path d="M68.2,49.3l-1.3,1.1l-1.7-1.1l1.5-10.9l0.3-2l0,0l12.9-6C79.5,32,79.2,32,77.7,33l-6.6,4.3c-1.4,0.9-1.4,1.3-1.6,2.9
		L68.2,49.3z"/>
	<path d="M106.9,44.9l-1.3,1.1l-1.9-0.5l1.9-18.1c0.3-2.5,0.1-2.9,2.3-4.2L106.9,44.9z"/>
	<path d="M79,47.1l-1.3,1.1l-1.5-0.8l1.9-9.2c0.4-1.9,0.4-2,1.9-2.8L79,47.1z"/>
	<path d="M86.7,46.7l-2,1.1l-1.1-1.2l1.5-18.3l0,0l23.7-11c-0.3,1.7-1.4,2.2-3.1,3.1l-15.5,7.9c-2.7,1.4-2.5,1.3-2.7,4.3L86.7,46.7z
		"/>
	<path d="M116,43.8l-2.3,1.4l-1.1-1.2l1.7-28.4l0,0l12.4-5.8c-0.2,2-0.7,2-2.5,3l-5.3,3c-2.6,1.5-2.1,2-2.2,5L116,43.8z"/>
	<path d="M269.3,37.5c2.8,1.2,4.5,1.1,5.4,0C232.4,13.6,201.4,2.1,196.9,0c-1.5-0.5,1.2,3.4,2.6,4c26.6,12,41.8,19.3,67.8,32.5
		L269.3,37.5z"/>
	<path d="M259.6,49.3l1.3,1.1l1.7-1.1l-1.5-10.9l-0.3-2l0,0l-12.9-6c0.4,1.6,0.7,1.6,2.2,2.6l6.6,4.3c1.4,0.9,1.4,1.3,1.6,2.9
		L259.6,49.3z"/>
	<path d="M220.9,44.9l1.3,1.1l1.9-0.5l-1.9-18.1c-0.3-2.5-0.1-2.9-2.3-4.2L220.9,44.9z"/>
	<path d="M248.9,47.6l1.3,1.1l1.5-0.8l-2-9.7c-0.4-1.9-0.4-2-1.9-2.8L248.9,47.6z"/>
	<path d="M241.2,46.7l2,1.1l1.1-1.2l-1.5-18.3l0,0l-23.7-11c0.3,1.7,1.4,2.2,3.1,3.1l15.5,7.9c2.7,1.4,2.5,1.3,2.7,4.3L241.2,46.7z"
		/>
	<path d="M211.8,43.8l2.3,1.4l1.1-1.2l-1.7-28.4l0,0l-12.4-5.8c0.2,2,0.7,2,2.5,3l5.3,3c2.6,1.5,2.1,2,2.2,5L211.8,43.8z"/>
	<path d="M324.2,59.8c-31.4-5.6-62.5-11.4-94.2-14.9c0.3,1.7,1,2.6,4.6,3.1c29.2,3.7,56.2,9.1,82.2,13.5
		C320.9,62,323.6,61.9,324.2,59.8"/>
</g>
</svg>
