<?xml version="1.0" encoding="utf-8"?>
<!-- Generator: Adobe Illustrator 22.1.0, SVG Export Plug-In . SVG Version: 6.00 Build 0)  -->
<svg version="1.1" id="Layer_1" xmlns="http://www.w3.org/2000/svg" xmlns:xlink="http://www.w3.org/1999/xlink" x="0px" y="0px"
	 viewBox="0 0 28.7 27.9" style="enable-background:new 0 0 28.7 27.9;" xml:space="preserve">
<style type="text/css">
	.st0{fill:#FFFFFF;}
	.st1{fill:#C0925E;}
	.st2{fill:#E0E0E0;}
	.st3{fill:url(#SVGID_1_);}
</style>
<rect y="22.3" class="st0" width="28.7" height="5.5"/>
<g>
	<path d="M3,26.6v-2.8h0.6v1.1h1.1v-1.1h0.6v2.8H4.7v-1.1H3.6v1.1H3z"/>
	<path d="M5.8,26.6L7,23.8h0.6l1.2,2.8H8.1L7.8,26H6.6l-0.3,0.6H5.8z M6.9,25.4h0.7l-0.4-0.9L6.9,25.4z"/>
	<path d="M9.2,26.6v-2.8h2.3v2.8h-0.6v-2.2H9.8v2.2H9.2z"/>
	<path d="M14.6,23.8v2.8H14v-1.8l-1.2,1.8h-0.6v-2.8h0.6v1.8l1.2-1.8H14.6z"/>
	<path d="M16.6,26.6c-0.4,0-0.8-0.1-1-0.4s-0.4-0.6-0.4-1c0-0.4,0.1-0.7,0.4-1c0.3-0.3,0.6-0.4,1-0.4c0.2,0,0.4,0,0.6,0.1
		c0.2,0.1,0.3,0.2,0.5,0.3l-0.4,0.4c-0.1-0.1-0.2-0.2-0.3-0.2c-0.1,0-0.2-0.1-0.4-0.1c-0.2,0-0.4,0.1-0.6,0.3
		c-0.2,0.2-0.2,0.4-0.2,0.6c0,0.2,0.1,0.5,0.2,0.6c0.2,0.2,0.3,0.3,0.6,0.3c0.1,0,0.3,0,0.4-0.1c0.1-0.1,0.2-0.1,0.3-0.2l0.4,0.4
		c-0.2,0.2-0.3,0.3-0.5,0.4C17,26.6,16.8,26.6,16.6,26.6z"/>
	<path d="M17.8,26.6l1.2-2.8h0.6l1.2,2.8h-0.6L19.9,26h-1.2l-0.3,0.6H17.8z M19,25.4h0.7l-0.4-0.9L19,25.4z"/>
	<path d="M21.5,26.6v-2.2h-0.9v-0.6H23v0.6h-0.9v2.2H21.5z"/>
	<path d="M23.5,26.6v-2.8h0.6v1h0.6c0.3,0,0.6,0.1,0.8,0.2c0.2,0.2,0.3,0.4,0.3,0.7c0,0.3-0.1,0.5-0.3,0.7s-0.5,0.3-0.8,0.3H23.5z
		 M24.6,25.3h-0.5V26h0.5c0.3,0,0.5-0.1,0.5-0.4C25.1,25.4,24.9,25.3,24.6,25.3z"/>
</g>
<g>
	<path class="st2" d="M22.2,3.4c-2.1-2.1-4.8-3.2-7.8-3.2c-6.1,0-11,4.9-11,11c0,1.9,0.5,3.8,1.5,5.5l-1.6,5.7l5.8-1.5
		c1.6,0.9,3.4,1.3,5.3,1.3h0h0c6.1,0,11-4.9,11-11C25.4,8.2,24.2,5.5,22.2,3.4L22.2,3.4z M14.4,20.3L14.4,20.3
		c-1.6,0-3.3-0.4-4.7-1.3l-0.3-0.2l-3.5,0.9l0.9-3.4L6.6,16c-0.9-1.5-1.4-3.1-1.4-4.9c0-5,4.1-9.1,9.1-9.1c2.4,0,4.7,1,6.5,2.7
		c1.7,1.7,2.7,4,2.7,6.5C23.5,16.2,19.4,20.3,14.4,20.3z"/>
	
		<linearGradient id="SVGID_1_" gradientUnits="userSpaceOnUse" x1="-385.0828" y1="236.578" x2="-385.0828" y2="246.9532" gradientTransform="matrix(2.0408 0 0 -2.0408 800.2109 504.5407)">
		<stop  offset="0" style="stop-color:#20B038"/>
		<stop  offset="1" style="stop-color:#60D66A"/>
	</linearGradient>
	<path class="st3" d="M3.8,21.7l1.5-5.4c-0.9-1.6-1.4-3.4-1.4-5.2c0-5.8,4.7-10.5,10.5-10.5c2.8,0,5.4,1.1,7.4,3.1
		c2,2,3.1,4.6,3.1,7.4c0,5.8-4.7,10.5-10.5,10.5c0,0,0,0,0,0h0c-1.8,0-3.5-0.4-5-1.3L3.8,21.7L3.8,21.7z"/>
	<path class="st0" d="M11.7,6.5C11.5,6.1,11.2,6,11.1,6c-0.2,0-0.3,0-0.5,0c-0.2,0-0.5,0.1-0.7,0.3c-0.2,0.3-1,0.9-1,2.3
		c0,1.3,1,2.6,1.1,2.8c0.1,0.2,1.9,3,4.6,4.1c2.3,0.9,2.8,0.7,3.3,0.7c0.5,0,1.6-0.7,1.8-1.3c0.2-0.6,0.2-1.2,0.2-1.3
		c-0.1-0.1-0.2-0.2-0.5-0.3c-0.3-0.1-1.6-0.8-1.9-0.9c-0.2-0.1-0.4-0.1-0.6,0.1c-0.2,0.3-0.7,0.9-0.9,1.1c-0.2,0.2-0.3,0.2-0.6,0.1
		c-0.3-0.1-1.1-0.4-2.2-1.3c-0.8-0.7-1.4-1.6-1.5-1.9c-0.2-0.3,0-0.4,0.1-0.6c0.1-0.1,0.3-0.3,0.4-0.5c0.1-0.2,0.2-0.3,0.3-0.5
		c0.1-0.2,0-0.3,0-0.5C12.4,8.4,11.9,7,11.7,6.5L11.7,6.5z"/>
	<path class="st0" d="M22.1,3.4c-2.1-2.1-4.8-3.2-7.7-3.2C8.4,0.2,3.5,5.1,3.5,11C3.5,13,4,14.8,5,16.5l-1.5,5.6l5.8-1.5
		c1.6,0.9,3.4,1.3,5.2,1.3h0h0c6,0,10.9-4.9,10.9-10.9C25.3,8.2,24.1,5.4,22.1,3.4L22.1,3.4z M14.4,20.1L14.4,20.1
		c-1.6,0-3.2-0.4-4.6-1.3l-0.3-0.2L6,19.5l0.9-3.3l-0.2-0.3c-0.9-1.4-1.4-3.1-1.4-4.8c0-5,4.1-9,9-9c2.4,0,4.7,0.9,6.4,2.6
		c1.7,1.7,2.6,4,2.6,6.4C23.4,16,19.4,20.1,14.4,20.1z"/>
</g>
</svg>
