<?xml version="1.0" encoding="utf-8"?>
<!-- Generator: Adobe Illustrator 22.1.0, SVG Export Plug-In . SVG Version: 6.00 Build 0)  -->
<svg version="1.1" id="Layer_1" xmlns="http://www.w3.org/2000/svg" xmlns:xlink="http://www.w3.org/1999/xlink" x="0px" y="0px"
	 viewBox="0 0 28.7 27.9" style="enable-background:new 0 0 28.7 27.9;" xml:space="preserve">
<style type="text/css">
	.st0{fill:#FFFFFF;}
	.st1{fill:#C0925E;}
	.st2{fill:#E0E0E0;}
	.st3{fill:url(#SVGID_1_);}
</style>
<rect y="22.3" class="st0" width="28.7" height="5.5"/>
<path class="st0" d="M21.9,3.2c-2-2.1-4.8-3.2-7.7-3.2l0,0l0,0C8.2,0,3.3,4.9,3.3,10.9c0,1,0.1,1.9,0.4,2.8l0,0
	c0.9,3.4,3.4,6.1,6.6,7.3c0,0,0,0,0.1,0c0.4,0.1,0.8,0.3,1.2,0.4c0.1,0,0.1,0,0.2,0.1c0.4,0.1,0.7,0.2,1.1,0.2c0.1,0,0.2,0,0.2,0
	c0.4,0,0.8,0.1,1.3,0.1l0,0l0,0l0,0c6,0,10.9-4.9,10.9-10.9C25.1,8,24,5.2,21.9,3.2z"/>
<path class="st1" d="M20.7,4.4c-1.7-1.8-4-2.7-6.5-2.7l0,0l0,0c-5,0-9.1,4.1-9.1,9.1c0,0.8,0.1,1.6,0.3,2.3l0,0
	c0.8,2.9,2.9,5.1,5.5,6.1c0,0,0,0,0.1,0c0.3,0.1,0.7,0.3,1,0.3c0.1,0,0.1,0,0.2,0.1c0.3,0.1,0.6,0.2,0.9,0.2c0.1,0,0.2,0,0.2,0
	c0.3,0,0.7,0.1,1.1,0.1l0,0l0,0l0,0c5,0,9.1-4.1,9.1-9.1C23.4,8.5,22.4,6.1,20.7,4.4z"/>
<path class="st0" d="M19.1,14.5c-0.2,0.6-1.2,1.1-1.7,1.2c-0.5,0-0.9,0.2-3-0.6c-2.5-1-4.1-3.6-4.3-3.8c-0.1-0.2-1-1.4-1-2.6
	S9.7,6.9,10,6.6c0.2-0.3,0.5-0.3,0.7-0.3s0.3,0,0.5,0s0.4,0,0.6,0.4c0.2,0.5,0.7,1.7,0.8,1.9c0.1,0.1,0.1,0.3,0,0.4
	c-0.1,0.2-0.1,0.3-0.2,0.4c-0.1,0.1-0.3,0.3-0.4,0.4c-0.1,0.1-0.3,0.3-0.1,0.5c0.1,0.2,0.6,1.1,1.4,1.7c1,0.9,1.8,1.1,2,1.2
	s0.4,0.1,0.5-0.1c0.1-0.2,0.6-0.7,0.8-1c0.2-0.2,0.3-0.2,0.6-0.1c0.2,0.1,1.5,0.7,1.7,0.8s0.4,0.2,0.5,0.3
	C19.3,13.4,19.3,13.9,19.1,14.5z"/>
<g>
	<path d="M1.3,26.6v-2.8h2.3v2.8H3v-2.2H1.9v2.2H1.3z"/>
	<path d="M6.7,26.2c-0.3,0.3-0.6,0.4-1.1,0.4c-0.4,0-0.8-0.1-1.1-0.4s-0.4-0.6-0.4-1c0-0.4,0.1-0.7,0.4-1s0.6-0.4,1.1-0.4
		s0.8,0.1,1.1,0.4c0.3,0.3,0.4,0.6,0.4,1C7.1,25.6,7,25.9,6.7,26.2z M5,25.8c0.2,0.2,0.4,0.3,0.6,0.3c0.2,0,0.4-0.1,0.6-0.3
		c0.2-0.2,0.2-0.4,0.2-0.6c0-0.2-0.1-0.5-0.2-0.6c-0.2-0.2-0.4-0.3-0.6-0.3c-0.2,0-0.4,0.1-0.6,0.3c-0.2,0.2-0.2,0.4-0.2,0.6
		C4.8,25.4,4.9,25.7,5,25.8z"/>
	<path d="M8.6,23.8c0.3,0,0.5,0.1,0.7,0.2c0.2,0.1,0.3,0.3,0.3,0.5c0,0.3-0.2,0.5-0.5,0.6c0.3,0.1,0.5,0.3,0.5,0.7
		c0,0.2-0.1,0.4-0.3,0.6c-0.2,0.2-0.5,0.2-0.8,0.2c-0.3,0-0.5,0-0.7-0.1c-0.2-0.1-0.4-0.2-0.5-0.4l0.3-0.4c0.2,0.2,0.5,0.4,0.9,0.4
		c0.1,0,0.2,0,0.3-0.1C9,26,9,25.9,9,25.8c0-0.1,0-0.2-0.2-0.2c-0.1-0.1-0.2-0.1-0.4-0.1H8.1v-0.5h0.3c0.3,0,0.5-0.1,0.5-0.3
		c0-0.1,0-0.2-0.1-0.2c-0.1-0.1-0.2-0.1-0.3-0.1c-0.3,0-0.6,0.1-0.8,0.3l-0.3-0.4C7.7,23.9,8.1,23.8,8.6,23.8z"/>
	<path d="M10.2,26.6v-2.8h1.3c0.3,0,0.6,0.1,0.7,0.2c0.1,0.1,0.2,0.3,0.2,0.5c0,0.3-0.1,0.5-0.4,0.6c0.2,0.1,0.3,0.2,0.4,0.3
		c0.1,0.1,0.1,0.3,0.1,0.4c0,0.2-0.1,0.4-0.3,0.6c-0.2,0.1-0.4,0.2-0.8,0.2H10.2z M10.8,24.9h0.6c0.3,0,0.4-0.1,0.4-0.3
		c0-0.1,0-0.2-0.1-0.2c-0.1,0-0.2-0.1-0.3-0.1h-0.6V24.9z M10.8,26.1h0.7c0.3,0,0.4-0.1,0.4-0.3c0-0.2-0.2-0.3-0.5-0.3h-0.7V26.1z"
		/>
	<path d="M15.5,26.2c-0.3,0.3-0.6,0.4-1.1,0.4c-0.4,0-0.8-0.1-1.1-0.4s-0.4-0.6-0.4-1c0-0.4,0.1-0.7,0.4-1s0.6-0.4,1.1-0.4
		s0.8,0.1,1.1,0.4c0.3,0.3,0.4,0.6,0.4,1C15.9,25.6,15.8,25.9,15.5,26.2z M13.8,25.8c0.2,0.2,0.4,0.3,0.6,0.3c0.2,0,0.4-0.1,0.6-0.3
		c0.2-0.2,0.2-0.4,0.2-0.6c0-0.2-0.1-0.5-0.2-0.6c-0.2-0.2-0.4-0.3-0.6-0.3c-0.2,0-0.4,0.1-0.6,0.3c-0.2,0.2-0.2,0.4-0.2,0.6
		C13.6,25.4,13.7,25.7,13.8,25.8z"/>
	<path d="M16.5,26.6v-2.8h0.6v1.1h1.1v-1.1h0.6v2.8h-0.6v-1.1h-1.1v1.1H16.5z"/>
	<path d="M21.9,23.8v2.8h-0.6v-1.8l-1.2,1.8h-0.6v-2.8h0.6v1.8l1.2-1.8H21.9z"/>
	<path d="M23.2,26.6v-2.2h-0.9v-0.6h2.3v0.6h-0.9v2.2H23.2z"/>
	<path d="M25.2,26.6v-2.8h0.6v1h0.6c0.3,0,0.6,0.1,0.8,0.2c0.2,0.2,0.3,0.4,0.3,0.7c0,0.3-0.1,0.5-0.3,0.7s-0.5,0.3-0.8,0.3H25.2z
		 M26.3,25.3h-0.5V26h0.5c0.3,0,0.5-0.1,0.5-0.4C26.8,25.4,26.6,25.3,26.3,25.3z"/>
</g>
</svg>
