<svg id="Layer_1" data-name="Layer 1" xmlns="http://www.w3.org/2000/svg" viewBox="0 0 28.68 27.86"><defs><style>.cls-1,.cls-2{opacity:0.2;}.cls-2,.cls-4{fill:#fff;}.cls-3{fill:#c0925e;}</style></defs><title>icon</title><rect class="cls-1" y="22.35" width="28.68" height="5.51"/><path class="cls-2" d="M21.91,3.2A10.57,10.57,0,0,0,14.21,0h0A10.93,10.93,0,0,0,3.31,10.9a8.63,8.63,0,0,0,.4,2.8h0a10.74,10.74,0,0,0,6.6,7.3h.1c.4.1.8.3,1.2.4.1,0,.1,0,.2.1a4.25,4.25,0,0,0,1.1.2h.2c.4,0,.8.1,1.3.1h0a10.93,10.93,0,0,0,10.9-10.9A11.63,11.63,0,0,0,21.91,3.2Z"/><path class="cls-3" d="M20.69,4.44a8.88,8.88,0,0,0-6.46-2.68h0A9.16,9.16,0,0,0,5.09,10.9a7.3,7.3,0,0,0,.33,2.35h0A9,9,0,0,0,11,19.37H11c.34.08.67.25,1,.34.08,0,.08,0,.17.08a3.64,3.64,0,0,0,.92.17h.17c.33,0,.67.08,1.09.08h0a9.16,9.16,0,0,0,9.14-9.14A9.79,9.79,0,0,0,20.69,4.44Z"/><path class="cls-4" d="M19.11,14.5a2.59,2.59,0,0,1-1.7,1.2,5.57,5.57,0,0,1-3-.6c-2.5-1-4.1-3.6-4.3-3.8a5.48,5.48,0,0,1-1-2.6A2.74,2.74,0,0,1,10,6.6a.74.74,0,0,1,.7-.3h.5c.2,0,.4,0,.6.4s.7,1.7.8,1.9a.3.3,0,0,1,0,.4c-.1.2-.1.3-.2.4l-.4.4c-.1.1-.3.3-.1.5a5.34,5.34,0,0,0,1.4,1.7,5.85,5.85,0,0,0,2,1.2c.2.1.4.1.5-.1s.6-.7.8-1,.3-.2.6-.1l1.7.8a2.19,2.19,0,0,1,.5.3C19.31,13.4,19.31,13.9,19.11,14.5Z"/><path class="cls-4" d="M1.34,26.6V23.8H3.68v2.8H3.06V24.36H2V26.6Z"/><path class="cls-4" d="M6.77,26.23a1.45,1.45,0,0,1-1.06.42,1.43,1.43,0,0,1-1.06-.42,1.37,1.37,0,0,1-.43-1,1.44,1.44,0,0,1,.43-1,1.45,1.45,0,0,1,1.07-.42,1.45,1.45,0,0,1,1.06.42,1.46,1.46,0,0,1,0,2.06Zm-1.66-.41a.8.8,0,0,0,.61.26.79.79,0,0,0,.6-.25.88.88,0,0,0,.24-.63.86.86,0,0,0-.24-.62.82.82,0,0,0-.61-.26.79.79,0,0,0-.61.25.92.92,0,0,0-.23.63A.86.86,0,0,0,5.11,25.82Z"/><path class="cls-4" d="M8.62,23.75a1.17,1.17,0,0,1,.73.21.68.68,0,0,1,.29.54.67.67,0,0,1-.46.65.66.66,0,0,1,.53.66.76.76,0,0,1-.29.6,1.19,1.19,0,0,1-.78.24,1.85,1.85,0,0,1-.71-.12,1.53,1.53,0,0,1-.53-.35l.33-.43a1.21,1.21,0,0,0,.89.36A.59.59,0,0,0,9,26a.29.29,0,0,0,0-.5.89.89,0,0,0-.4-.08H8.21v-.51h.32c.33,0,.5-.11.5-.32a.26.26,0,0,0-.13-.23.53.53,0,0,0-.32-.08,1,1,0,0,0-.76.3l-.32-.39A1.51,1.51,0,0,1,8.62,23.75Z"/><path class="cls-4" d="M10.24,26.6V23.8h1.3a1,1,0,0,1,.74.25.69.69,0,0,1,.19.48.67.67,0,0,1-.37.61.86.86,0,0,1,.39.26.74.74,0,0,1-.15,1,1.29,1.29,0,0,1-.76.2Zm.6-1.67h.57q.45,0,.45-.3a.25.25,0,0,0-.11-.22.51.51,0,0,0-.3-.07h-.61Zm0,1.13h.74c.29,0,.43-.1.43-.31s-.15-.31-.45-.31h-.72Z"/><path class="cls-4" d="M15.56,26.23a1.47,1.47,0,0,1-1.07.42,1.45,1.45,0,0,1-1.06-.42,1.4,1.4,0,0,1-.42-1,1.43,1.43,0,0,1,.42-1,1.47,1.47,0,0,1,1.07-.42,1.43,1.43,0,0,1,1.06.42,1.4,1.4,0,0,1,.42,1A1.43,1.43,0,0,1,15.56,26.23Zm-1.67-.41a.8.8,0,0,0,.61.26.76.76,0,0,0,.6-.25.88.88,0,0,0,.24-.63.86.86,0,0,0-.24-.62.8.8,0,0,0-.61-.26.77.77,0,0,0-.6.25.88.88,0,0,0-.24.63A.86.86,0,0,0,13.89,25.82Z"/><path class="cls-4" d="M16.53,26.6V23.8h.62v1.11h1.13V23.8h.62v2.8h-.62V25.48H17.15V26.6Z"/><path class="cls-4" d="M22,23.8v2.8h-.6V24.76L20.15,26.6h-.58V23.8h.61v1.84l1.23-1.84Z"/><path class="cls-4" d="M23.31,26.6V24.37h-.85V23.8h2.32v.57h-.86V26.6Z"/><path class="cls-4" d="M25.25,26.6V23.8h.61v.95h.6a1,1,0,0,1,.75.25.84.84,0,0,1,.27.66.88.88,0,0,1-.28.69,1.13,1.13,0,0,1-.78.25Zm1.16-1.32h-.55V26h.55c.31,0,.46-.13.46-.39S26.72,25.28,26.41,25.28Z"/></svg>