<?xml version="1.0" encoding="utf-8"?>
<!-- Generator: Adobe Illustrator 21.1.0, SVG Export Plug-In . SVG Version: 6.00 Build 0)  -->
<svg version="1.1" id="Layer_1" xmlns="http://www.w3.org/2000/svg" xmlns:xlink="http://www.w3.org/1999/xlink" x="0px" y="0px"
     viewBox="0 0 326.4 240.1" style="enable-background:new 0 0 326.4 240.1;" xml:space="preserve">
<style type="text/css">
	.st0{fill:#C0925E;}
</style>
    <g>
	<path class="st0" d="M116.4,123.1c-0.7,0.4-1.9-0.5-2.5-0.1c-1.1,0.8-1.9,1.3-2.3,1.6c-0.6,0.4,0.4-1.2-0.2-2.1
		c-0.6-0.8-1.4-1.9-2.2-3.2c1.3,0,2.5,0.1,3.6,0.5c1.3,0.5,2.4,1.4,3.2,2.6C116.2,122.7,116.3,122.9,116.4,123.1z"/>
        <path class="st0" d="M229.3,134.3c-0.4,1.3-0.8,2.5-1.1,3.6c-0.8,0.5-1.8,1.3-3,2.4c-0.3,0.2-0.5,0.5-0.8,0.7
		c-0.2-0.6-0.6-1.2-1.1-1.5c0.8-0.8,1.5-1.5,2.3-2.2C226.9,136.1,228.1,135.1,229.3,134.3z"/>
        <path class="st0" d="M225.2,140.4c1.2-1.1,2.2-1.9,3-2.4c-0.3,1-0.6,1.9-0.8,2.8c-0.6,2.1-1.2,4.3-1.9,6.4
		c-0.3,1.2-0.8,2.9-0.4,4.2c0.2,0.7,0.4,1.2,0.5,1.4c-1.1,0.1-2.2,0-3.2-0.2c-0.9-0.2-1.7-0.6-2.6-1.1c-0.9-0.6-1.5-1.5-2-2.6
		c-0.2-0.5-0.3-1.7,0.3-3.5c0.9-2.8,1.9-5.9,2.9-9c-0.7,0.9-1.5,1.8-2.4,2.7c-1.3,1.4-2.7,2.8-4.3,4.1c-1.6,1.3-3.2,2.4-5,3.4
		s-3.7,1.7-5.6,2c-2.9,0.5-5.3,0.2-7.1-0.9s-3.1-2.7-3.8-4.8c-0.5-1.3-0.7-2.7-0.8-4.2c-1.2,1.5-2.4,2.9-3.8,4.1
		c-2.1,1.9-4.2,3.3-6.6,4.3c-2.3,1-4.8,1.5-7.2,1.6c-1.2,0-2.4-0.1-3.3-0.3s-1.8-0.6-2.5-1.1s-1.3-1-1.8-1.5
		c-0.5-0.6-0.8-1.2-1.1-1.8c-0.7-1.4-1.1-3-1.1-4.9c0.5-0.1,1.1,0,1.7,0.3s1.3,0.6,2.2,0.7c0.8,0.2,1.8,0,3-0.4s2.6-1.4,4.2-2.9
		c0.7-0.6,1.3-1.4,1.8-2.5c0.6-1.1,1-2.3,1.5-3.5c0.4-1.3,0.7-2.5,0.9-3.8c0.2-1.3,0.2-2.4,0-3.4s-0.5-1.8-1.1-2.4s-1.4-0.8-2.5-0.7
		c-2.3,0.3-4.3,1.5-6.1,3.5c-1.8,2-3.4,4.7-4.8,7.9c-1.5,3.2-2.8,6.9-3.9,11.1c-1.2,4.2-2.3,8.5-3.4,13.1c-0.6,2.8-1.1,5.3-1.2,7.5
		c-0.2,2.2-0.3,4-0.3,5.5s0,2.7-0.1,3.5c0,0.8-0.2,1.2-0.5,1.3s-0.8-0.1-1.5-0.5s-1.5-0.8-2.3-1.4s-1.6-1.2-2.3-1.7
		c-0.8-0.6-1.3-1.1-1.7-1.6c-0.2-0.3-0.2-1.3-0.1-2.9c0.2-1.6,0.5-3.6,0.9-6s0.9-4.9,1.5-7.8c0.6-2.8,1.2-5.5,1.8-8.2
		c0.3-1.4,0.7-2.7,1-4c-1,1.6-2,3.1-3.2,4.7c-1.1,1.5-2.2,2.8-3.2,3.8c-1.1,1-2.1,1.7-3.1,1.9c-1,0.2-2,0.2-2.8-0.1
		s-1.6-0.7-2.3-1.3c-0.6-0.6-1.1-1.1-1.4-1.7c-0.4-0.6-0.5-1.4-0.6-2.5c0-1.1,0-2.3,0-3.4c0-1.4,0.2-2.8,0.4-4.4
		c-0.3,0.8-0.7,1.7-1.2,2.7c-0.4,0.9-1,1.9-1.7,3.1s-1.5,2.6-2.5,4.1s-2,2.6-3.1,3.3c-1.1,0.7-2,1.2-2.8,1.5c-1,0.3-2,0.4-3,0.4
		c-1.8-0.1-3.1-0.7-3.9-1.8c-0.8-1.1-1.3-2.5-1.4-4.2s-0.1-3.6,0.3-5.6c1.3-5.8,4.6-12.4,5.4-17.8c0.2-1,0.2-2,0.1-3
		c-0.2-1.4,0.2-1.8,1.6-1.8c2.4,0,6.8,3.9,6.5,7.3c-0.1,1.2-0.4,2.4-0.8,3.8c-0.5,1.3-0.9,2.6-1.4,3.9c-0.5,1.2-0.9,2.2-1.1,2.9
		c-0.2,0.7-0.5,1.6-1,2.6c-0.4,1-0.8,2.1-1,3.1c-0.3,1-0.5,2-0.6,2.9s0.1,1.6,0.5,2s0.9,0.6,1.4,0.5s0.9-0.3,1.4-0.6
		c0.5-0.3,0.9-0.7,1.3-1.1s0.7-0.8,0.9-1.1c1-1.2,2-2.7,3-4.5s2-3.6,2.9-5.6c0.9-1.9,1.8-3.9,2.6-5.8s1.5-3.7,2.1-5.3
		c0.6-1.6,1.1-2.9,1.5-3.9s0.6-1.6,0.6-1.8c0.1-0.3,0.2-0.6,0.6-0.7c0.2,0,0.3,0,0.5,0c1.3,0.2,2.3,0.6,3,1.1
		c0.8,0.6,1.3,1.3,1.7,2.2c0.3,0.8,0.6,1.8,0.6,2.9s0,2.2-0.2,3.3c-0.1,0.9-0.5,2.1-1.1,3.8c-0.6,1.7-1.2,3.4-1.9,5.3
		c-0.7,1.8-1.3,3.7-1.9,5.5s-0.9,3.3-1,4.4c0,0.5,0,0.9,0.2,1.1s0.4,0.3,0.7,0.3c0.3,0,0.5,0,0.7-0.1s0.4-0.2,0.5-0.3
		c1.5-1.2,2.9-2.5,4.1-4.1s2.2-3.1,3.1-4.5c0.7-1.3,1.3-2.4,1.8-3.4c0.2-0.8,0.4-1.5,0.6-2.1c0.5-2.2,0.9-4,1.1-5.6s0.3-2.9,0.3-3.9
		c0-1.2-0.1-2.2-0.3-3c1.1-0.2,2.2-0.4,3.1-0.5c0.9-0.2,1.8-0.3,2.5-0.3s1.3,0,1.9,0.1c0.5,0.1,1,0.4,1.3,0.9
		c0.6,0.8,0.8,1.8,0.8,2.9s-0.2,2.4-0.5,3.5c-0.3,1.3-0.8,2.8-1.4,4.2c1.8-3,3.5-5.5,5.3-7.3s3.5-3.3,5.1-4.3c1.7-1,3.2-1.8,4.8-2.2
		c1.5-0.4,2.9-0.7,4.2-0.8c1-0.1,2,0.2,3,0.8c1,0.6,1.8,1.5,2.5,2.7s1.1,2.6,1.4,4.4c0.2,1.7,0.1,3.6-0.3,5.7
		c-0.4,2.2-1.1,4.1-2.1,5.9c-1,1.7-2,3.3-3,4.6c-1.2,1.5-2.5,2.9-3.9,4.1c0.8,0.5,1.9,0.3,3.3-0.4c1.4-0.7,2.9-1.8,4.5-3.2
		c1.2-1.1,2.3-2.4,3.5-3.9c0.3-2.7,1.1-5.4,2.4-8.2c1.4-2.9,3.1-5.3,5.3-7.1c2.2-1.8,4.4-3.2,6.8-4c2.3-0.8,4.6-1.1,6.8-0.9
		c2.2,0.2,4.1,0.8,5.6,2c1.2,0.9,1.9,1.9,2.2,3.2c0.3,1.2,0.3,2.5,0,3.7c-0.3,1.3-0.9,2.4-1.7,3.6c-0.8,1.1-1.8,2-2.9,2.6
		c-1.6,0.9-3,1.5-4.3,1.5c-1.2,0.1-2-0.2-2.4-0.9c1.5-1.8,2.7-3.3,3.6-4.8c0.4-0.6,0.7-1.2,1-1.9s0.5-1.2,0.6-1.8s0.1-1,0-1.5
		s-0.4-0.8-0.9-1c-1-0.5-2-0.3-3.3,0.5c-1.2,0.8-2.5,1.9-3.7,3.4c-1.3,1.5-2.5,3.1-3.6,4.9s-2.1,3.5-2.8,5.1
		c-0.8,1.6-1.3,3.1-1.6,4.7c-0.3,1.6-0.2,3,0.1,4.1c0.3,1.2,1,2,1.9,2.6s2.2,0.7,3.9,0.3c1.6-0.4,3.4-1.2,5.3-2.3s3.8-2.6,5.6-4.2
		c1.8-1.6,3.5-3.3,5-5.2c0.4-0.5,0.9-1,1.2-1.6c2.3-6.7,4.5-13.1,5.2-17.3c0.9-4.7-4.6-2.2-5.6-1.1c1.1-6.3,7.2-9.1,10.7-7.2
		c2,1.1,2.7,3.1,2.6,5.4c-0.1,4.5-3.2,11.7-4.4,16.8c1.3-1.4,2.9-2.8,4.8-4.2c1.9-1.4,3.8-2.5,5.7-3.4c1.9-0.9,3.6-1.4,5.2-1.4
		c1.6-0.1,2.7,0.5,3.4,1.7c0.6,1,0.7,2,0.4,3c-0.3,1-0.9,1.9-1.8,2.8c-1.9,1.9-6.2,5-8.8,3c0.5-0.6,0.8-1.3,0.9-2.1
		c0.1-0.7,0-1.2-0.5-1.5c-1.1-0.7-3.1,0.1-4.1,0.7c-2,1-3.7,2.4-5.1,4.1c-0.7,0.9-1.3,1.8-1.6,2.8v0.1c-1.1,0.8-2.4,1.8-3.6,3
		c-0.8,0.7-1.6,1.5-2.3,2.2c0.5,0.4,0.9,0.9,1.1,1.5C224.7,140.8,224.9,140.6,225.2,140.4z"/>
        <path class="st0" d="M263.6,155.2c-0.2,1.1-1.5,2.2-3.4,2.7c-7,2.1-13.6,0.8-19.5-3.6c-1.8-1.4-3.3-3-4.6-4.8
		c-1.2-1.8-2.2-3.6-3-5.3c-2.2-5.1-0.8-9.2-5.1-6.2c0.3-1.1,0.7-2.3,1.1-3.6c0.1-0.1,0.2-0.1,0.2-0.2c1.2-0.8,2.4-1.2,3.4-1.2
		s2,0.2,2.8,0.7s1.5,1,2,1.7c2.4,3.3,0.6,6.3,6.6,13.5c1.7,2,3.2,3.5,4.7,4.6C253.4,156.8,260.3,155.9,263.6,155.2z"/>
        <path class="st0" d="M229.3,134.3c-0.4,1.3-0.8,2.5-1.1,3.6c-0.8,0.5-1.8,1.3-3,2.4c-0.3,0.2-0.5,0.5-0.8,0.7
		c-0.2-0.6-0.6-1.2-1.1-1.5c0.8-0.8,1.5-1.5,2.3-2.2C226.9,136.1,228.1,135.1,229.3,134.3z"/>
        <path class="st0" d="M116.4,123.1c-0.7,0.4-1.9-0.5-2.5-0.1c-1.1,0.8-1.9,1.3-2.3,1.6c-0.6,0.4,0.4-1.2-0.2-2.1
		c-0.6-0.8-1.4-1.9-2.2-3.2c1.3,0,2.5,0.1,3.6,0.5c1.3,0.5,2.4,1.4,3.2,2.6C116.2,122.7,116.3,122.9,116.4,123.1z"/>
        <path class="st0" d="M92.8,231.8c-14.8,9.1-25.6,1.1-32.3-11.5c-2.8-5.3-5.5-11.1-7.9-16.7c-2.4,3.7-4.2,7.2-5.4,10.5
		c-1.2,3.3-2.1,6.3-2.5,8.9c-0.5,2.6-0.7,4.7-0.8,6.4c0,1.6-0.1,2.6-0.1,2.8c-0.1,0.3-0.6,0.6-1.5,1s-2,0.8-3.1,1.1
		c-1.2,0.3-2.2,0.6-3.3,0.8c-1,0.2-1.8,0.1-2.1-0.2c-0.2-0.1-0.5-0.7-0.7-1.5c-0.2-0.9-0.3-2.1-0.2-3.6c0.1-1.5,0.4-3.3,0.9-5.4
		s1.3-4.4,2.4-7s2.6-5.4,4.5-8.4s4.3-6.3,7.1-9.7c0.3-0.4,0.7-0.8,1-1.2c0.3-0.4,0.7-0.8,1-1.1c-0.7-1.6-1.4-3.1-2.2-4.5
		c-0.7-1.4-1.5-2.7-2.3-3.8c-0.8-1.1-1.6-2.1-2.4-2.8c-0.8-0.7-1.7-1.2-2.5-1.5c-0.9-0.2-1.8-0.3-2.6-0.2c-0.8,0.1-1.5,0.3-2.1,0.6
		c-0.6,0.3-1.2,0.7-1.8,1.2c-0.5,0.5-1,1-1.4,1.5c-0.9,1.2-1.7,2.7-2.2,4.5c-0.5-0.9-0.8-1.8-0.9-3c-0.1-0.9,0-2,0.3-3.2
		s1-2.5,2.1-3.9c2.2-2.7,4.8-4.4,7.8-4.9c3.1-0.6,6.2,0,9.4,1.8c1.1,0.6,2.3,1.9,3.7,3.8c1.3,1.9,2.7,4.3,4.2,7.1
		c6.8-6.3,16.2-16.9,25-16c-1.9,1.4-4.1,3.1-6.4,5.1c-2,1.7-4.4,3.9-7.1,6.6s-5.7,5.8-8.9,9.5c1.2,2.5,2.5,5.2,3.7,7.9
		c1.2,2.7,2.4,5.4,3.6,7.9c1.1,2.5,2.2,4.8,3.2,7c2.6,5.5,4.6,8.8,7.2,10.7C80.6,231,84.5,232.2,92.8,231.8"/>
        <path class="st0" d="M102.6,205.7c0.5-1,1.1-2.2,1.6-3.7c0.5-1.4,1-2.8,1.5-4.2c0.5-1.4,0.9-2.7,1.2-3.8c0.4-1.2,0.6-2,0.8-2.5
		c0.1-0.2,0.2-0.4,0.4-0.5c0.2-0.1,0.4-0.1,0.6,0s0.3,0.3,0.4,0.5c0.1,0.3,0.1,0.6,0,0.9c-0.2,0.7-0.5,1.6-0.8,2.7
		c-0.4,1.2-0.7,2.3-1.1,3.5s-0.8,2.3-1.2,3.4c-0.4,1.1-0.7,1.9-0.9,2.4c-0.9,2.2-2.1,3.9-3.6,4.9c-1.5,1.1-3.3,1.5-5.3,1.3
		c-1.5-0.2-2.6-0.8-3.4-1.9s-1.2-2.4-1.3-4c0-0.7,0-1.5,0-2.5s0.1-2,0.1-2.9c0.1-1,0.1-1.8,0.1-2.6c0-0.7,0.1-1.2,0.1-1.3
		c-0.3,0.7-0.6,1.6-0.9,2.7c-0.4,1.1-0.7,2.2-1.1,3.2c-0.4,1.1-0.7,2-1,2.9c-0.3,0.8-0.5,1.4-0.6,1.6c-0.9,2-1.7,3.7-2.4,4.9
		c-0.7,1.2-1.5,2.3-2.4,3.2c-0.4,0.4-1,0.7-1.8,1.1c-0.9,0.4-1.8,0.6-2.9,0.7c-1,0.1-2.1,0-3.1-0.3s-1.8-0.9-2.4-1.8
		c-0.7-1-1.1-2.2-1.3-3.7c-0.2-1.4-0.2-2.8-0.1-4.3c0.1-1.4,0.3-2.7,0.5-4c0.3-1.2,0.5-2.2,0.7-2.9c1.1-3.5,2.7-6.8,4.8-9.9
		c2.2-3,5-5.4,8.6-7.2c3.2-1.6,6.4-2.4,9.4-2.4c0.4,0,0.9,0.1,1.3,0.2s0.8,0.3,1.1,0.5c0.3,0.2,0.5,0.5,0.5,0.7
		c0,0.3-0.1,0.6-0.5,0.9c-0.2,0.1-0.6,0.4-1.3,0.7c-0.7,0.4-1.5,0.8-2.4,1.3s-1.8,1.1-2.7,1.7c-0.9,0.6-1.7,1.2-2.4,1.9
		c-1.7,1.7-3.1,3.5-4.3,5.4c-1.1,1.9-2,3.8-2.6,5.6c-0.6,1.8-1.1,3.4-1.4,4.9c-0.3,1.4-0.4,2.5-0.5,3.1c-0.1,1.2-0.1,2.2,0.1,2.8
		c0.1,0.7,0.3,1.1,0.6,1.4c0.2,0.3,0.5,0.4,0.8,0.4s0.6-0.1,0.9-0.4c0.5-0.4,1.1-1.1,1.7-2.2s1.2-2.3,1.8-3.7
		c0.6-1.4,1.1-2.8,1.6-4.2c0.5-1.4,0.9-2.7,1.2-3.7c0.9-3.1,1.7-5.5,2.5-7.1s1.5-2.6,2.1-3c1.1-0.7,2.1-1.3,3.2-1.7
		c1.1-0.4,2-0.6,2.7-0.5c0.4,0,0.7,0.3,0.8,1.1c0.1,0.7,0.1,1.7,0,2.9c-0.1,1.2-0.3,2.5-0.5,4c-0.3,1.5-0.5,3-0.8,4.6
		s-0.5,3.1-0.8,4.6c-0.2,1.5-0.4,2.9-0.5,4.1c-0.1,0.7,0.1,1.2,0.4,1.6s0.7,0.6,1.1,0.6c0.5,0,0.9-0.1,1.5-0.5
		C101.7,207.2,102.2,206.5,102.6,205.7"/>
        <path class="st0" d="M108.9,178c1.1-0.2,2.2-0.3,3.1-0.5s1.8-0.3,2.5-0.3s1.3,0,1.8,0.2c0.5,0.1,0.9,0.4,1.3,0.9
		c0.6,0.8,0.8,1.8,0.7,3c-0.1,1.2-0.2,2.4-0.6,3.5c-0.3,1.4-0.8,2.8-1.5,4.2c1.8-3,3.6-5.4,5.4-7.3c1.8-1.8,3.5-3.2,5.2-4.3
		c1.7-1,3.3-1.7,4.8-2.1s2.9-0.7,4.2-0.8c1-0.1,2,0.2,3,0.8c1,0.6,1.8,1.5,2.4,2.7c0.7,1.2,1.1,2.7,1.3,4.4c0.2,1.7,0.1,3.6-0.3,5.7
		s-1.1,4.1-2.1,5.8c-1,1.7-2,3.2-3,4.5c-1.2,1.5-2.5,2.8-3.9,4c0.8,0.5,1.9,0.3,3.3-0.3c1.4-0.7,3-1.7,4.5-3.1
		c1.6-1.4,3.1-3.2,4.6-5.2s2.7-4.2,3.6-6.6c0.4-0.8,0.6-1.3,0.9-1.3c0.2,0,0.4,0,0.5,0c0.1,0.1,0.2,0.2,0.3,0.3c0,0.1,0.1,0.3,0,0.4
		c0,0.2-0.1,0.4-0.1,0.5c-1.3,3.2-2.8,6.1-4.5,8.7s-3.6,4.8-5.7,6.6c-2.1,1.8-4.3,3.2-6.7,4.2c-2.4,1-4.8,1.5-7.2,1.5
		c-1.3,0-2.4-0.1-3.3-0.4c-1-0.3-1.8-0.6-2.5-1.1s-1.3-1-1.7-1.6c-0.5-0.6-0.8-1.2-1.1-1.8c-0.7-1.4-1-3.1-1-4.9
		c0.5-0.1,1.1,0,1.6,0.3c0.6,0.3,1.3,0.6,2.1,0.8c0.8,0.2,1.8,0.1,3-0.3s2.6-1.3,4.2-2.9c0.7-0.6,1.3-1.4,1.8-2.5
		c0.6-1.1,1.1-2.3,1.5-3.5c0.4-1.3,0.7-2.5,0.9-3.8c0.2-1.3,0.2-2.4,0.1-3.4s-0.5-1.8-1.1-2.4s-1.4-0.8-2.5-0.7
		c-2.3,0.3-4.4,1.4-6.2,3.5c-1.8,2-3.5,4.6-4.9,7.8c-1.5,3.2-2.8,6.9-4.1,11c-1.2,4.1-2.4,8.5-3.5,13c-0.7,2.8-1.1,5.3-1.3,7.5
		c-0.2,2.2-0.3,4-0.4,5.5c0,1.5-0.1,2.7-0.1,3.5s-0.2,1.2-0.5,1.3c-1.7,0.3-8.4-3.6-7.8-8.2c0.2-1.6,0.5-3.6,1-5.9
		c0.5-2.4,1-4.9,1.6-7.7c0.6-2.8,1.3-5.5,1.9-8.2c0.7-2.6,1.3-5.1,1.8-7.3c0.6-2.2,1-3.9,1.4-5.1c0.5-2.2,0.9-4,1.1-5.6
		s0.3-2.9,0.3-3.9C109.2,179.8,109.1,178.8,108.9,178"/>
        <path class="st0" d="M174.8,201c0.7-0.9,1.4-2.1,2.1-3.4s1.4-2.6,2.1-4c0.7-1.3,1.2-2.5,1.8-3.6c0.5-1.1,0.9-1.9,1.2-2.3
		c0.1-0.2,0.3-0.4,0.5-0.4s0.4,0,0.6,0.1s0.3,0.3,0.3,0.6c0.1,0.3,0,0.6-0.1,0.9c-0.3,0.6-0.7,1.5-1.2,2.6s-1.1,2.2-1.6,3.3
		c-0.6,1.1-1.1,2.2-1.6,3.2s-0.9,1.8-1.2,2.3c-1.2,2.1-2.6,3.5-4.3,4.4c-1.7,0.9-3.5,1-5.4,0.5c-1.4-0.4-2.4-1.2-3.1-2.4
		c-0.6-1.2-0.9-2.6-0.7-4.1c0.1-0.7,0.2-1.5,0.3-2.5c0.2-1,0.3-2,0.5-2.9s0.4-1.8,0.5-2.5s0.2-1.2,0.3-1.3c-0.4,0.7-0.8,1.5-1.3,2.6
		c-0.5,1-1,2-1.5,3s-1,1.9-1.4,2.7c-0.4,0.8-0.7,1.3-0.9,1.5c-1.2,1.9-2.2,3.4-3.1,4.5s-1.8,2-2.9,2.8c-0.4,0.3-1.1,0.6-2,0.8
		c-0.9,0.2-1.9,0.3-2.9,0.3c-1-0.1-2-0.3-3-0.7c-0.9-0.4-1.7-1.1-2.1-2.1c-0.5-1.1-0.8-2.4-0.8-3.8s0.2-2.8,0.5-4.2
		c0.3-1.4,0.7-2.7,1.1-3.9c0.4-1.2,0.8-2.1,1.1-2.7c1.6-3.3,3.7-6.4,6.2-9.1c2.6-2.7,5.8-4.6,9.6-5.9c3.4-1.1,6.7-1.4,9.7-1
		c0.4,0.1,0.9,0.2,1.3,0.4c0.4,0.2,0.8,0.4,1.1,0.6c0.3,0.3,0.4,0.5,0.4,0.8s-0.2,0.5-0.7,0.8c-0.2,0.1-0.7,0.3-1.4,0.5
		c-0.8,0.2-1.6,0.6-2.6,0.9c-1,0.4-1.9,0.8-3,1.3c-1,0.5-1.9,1-2.7,1.5c-1.9,1.4-3.6,3-5,4.7c-1.4,1.8-2.5,3.5-3.4,5.2
		s-1.6,3.2-2.1,4.6s-0.8,2.4-0.9,3c-0.3,1.2-0.4,2.1-0.3,2.8c0,0.7,0.2,1.2,0.4,1.5c0.2,0.3,0.5,0.5,0.8,0.5s0.6-0.1,1-0.2
		c0.6-0.3,1.3-0.9,2-1.9c0.8-1,1.5-2.1,2.3-3.4s1.5-2.6,2.2-3.9s1.3-2.5,1.7-3.5c1.3-3,2.5-5.2,3.5-6.7s1.8-2.3,2.5-2.7
		c1.2-0.6,2.3-1,3.4-1.2s2-0.3,2.7-0.1c0.4,0,0.6,0.4,0.6,1.2c0,0.7-0.1,1.7-0.4,2.8c-0.3,1.1-0.7,2.4-1.1,3.9
		c-0.5,1.4-0.9,2.9-1.4,4.4s-1,3-1.4,4.5c-0.5,1.5-0.8,2.8-1,4c-0.2,0.7-0.1,1.2,0.1,1.6s0.6,0.7,1,0.8c0.4,0.1,1,0,1.5-0.3
		C173.7,202.3,174.2,201.8,174.8,201"/>
        <path class="st0" d="M276.3,185.1c-0.5,0.4-1.2,0.9-2.2,1.7c-1,0.8-2,1.9-3.1,3.2c-1.1,1.3-2.2,3-3.4,5c-1.1,2-2.2,4.3-3.1,7
		c1,0,2-0.3,3.1-0.7c1-0.5,2.1-1.1,3.1-1.8c1-0.7,1.9-1.5,2.8-2.4c0.9-0.9,1.6-1.8,2.3-2.6c1.2-1.5,2.1-3.1,2.8-4.6
		c0.7-1.6,1-3,1.1-4.2c0-0.3-0.1-0.6-0.1-0.9c-0.1-0.3-0.3-0.5-0.5-0.6s-0.6-0.1-1,0C277.6,184.3,277,184.6,276.3,185.1
		 M264.3,203.9c-0.2,0.9-0.4,1.8-0.4,2.7c0,0.9,0.1,1.7,0.3,2.2s0.5,0.9,0.9,1.3s0.9,0.7,1.6,0.9c0.7,0.2,1.5,0.1,2.5-0.1
		s2.2-0.7,3.6-1.5c1.3-0.8,2.6-1.7,3.8-2.8c1.2-1.1,2.3-2.2,3.3-3.4c1-1.2,2-2.4,2.8-3.6c0.9-1.2,1.6-2.3,2.2-3.3
		c0.1-0.1,0.2-0.2,0.4-0.4c0.2-0.2,0.3-0.3,0.4-0.2c0.1,0,0.3,0.2,0.4,0.4c0.1,0.3,0,0.7-0.3,1.4c-0.3,0.6-0.7,1.2-1,1.8
		c-0.3,0.6-0.8,1.3-1.3,2s-1.1,1.6-1.9,2.4c-0.7,0.9-1.7,1.9-2.8,3c-2,2-3.9,3.4-5.7,4.4s-3.4,1.7-4.8,2.1c-1.4,0.4-2.7,0.6-3.8,0.6
		s-1.9-0.1-2.6-0.1c-3.4-0.3-5.6-1.7-6.5-4.2c-0.9-2.5-0.6-6.1,0.9-10.6c1.4-4.3,3.1-7.9,5.3-10.8s4.9-5.1,8.1-6.5
		c1.4-0.6,2.8-1,4.2-1.2c1.5-0.2,2.8-0.2,4-0.1c1.2,0.2,2.3,0.5,3.1,0.9c0.9,0.4,1.4,1,1.6,1.6c0.4,1.6,0.3,3.2-0.3,4.8
		c-0.6,1.6-1.3,3.1-2.1,4.5c-0.2,0.3-0.7,1.1-1.5,2.1c-0.8,1.1-1.9,2.2-3.2,3.4c-1.4,1.2-3,2.4-5,3.5
		C269.1,202.5,266.8,203.4,264.3,203.9z"/>
        <path class="st0" d="M286.1,185.7c1.2,0,2.2,0,3.2-0.1c0.9,0,1.8,0,2.5,0c0.7,0.1,1.3,0.2,1.8,0.4c0.5,0.2,0.9,0.6,1.1,1.1
		c0.4,0.9,0.6,1.9,0.3,3c-0.2,1.2-0.6,2.3-1,3.4c-0.5,1.3-1.2,2.6-2,4c2.2-2.7,4.3-4.9,6.3-6.5s3.9-2.7,5.7-3.5s3.5-1.3,5-1.5
		c1.6-0.2,3-0.3,4.3-0.2c1,0.1,2,0.5,2.9,1.2s1.5,1.7,2,3s0.7,2.8,0.7,4.5s-0.4,3.6-1.1,5.6c-0.7,2.1-1.7,3.9-2.9,5.5
		s-2.4,2.9-3.6,4.1c-1.4,1.3-2.9,2.5-4.4,3.5c0.7,0.6,1.8,0.6,3.3,0.1s3.2-1.3,4.9-2.5s3.5-2.7,5.2-4.6c1.7-1.8,3.2-3.8,4.4-6.1
		c0.5-0.8,0.8-1.2,1-1.2s0.4,0,0.5,0.1s0.2,0.2,0.2,0.4c0,0.2,0,0.3,0,0.4c0,0.2-0.1,0.3-0.2,0.5c-1.7,3-3.6,5.6-5.6,8
		c-2.1,2.3-4.2,4.3-6.5,5.8s-4.7,2.6-7.2,3.3c-2.5,0.7-4.9,0.8-7.4,0.5c-1.2-0.2-2.3-0.4-3.2-0.8s-1.7-0.9-2.3-1.4
		c-0.6-0.6-1.1-1.1-1.5-1.8c-0.4-0.6-0.7-1.3-0.8-1.9c-0.5-1.5-0.6-3.2-0.3-5c0.5,0,1,0.1,1.6,0.6c0.5,0.4,1.2,0.8,2,1
		c0.8,0.3,1.8,0.3,3,0.1c1.2-0.2,2.8-1,4.6-2.3c0.7-0.5,1.4-1.2,2.2-2.2c0.7-1,1.4-2.1,2-3.3c0.6-1.2,1.1-2.4,1.4-3.7
		c0.4-1.3,0.6-2.4,0.5-3.4c0-1-0.3-1.8-0.7-2.5c-0.5-0.7-1.3-1-2.4-1c-2.3,0-4.5,0.9-6.6,2.6s-4,4.1-5.9,7.1s-3.7,6.4-5.5,10.4
		c-1.8,3.9-3.5,8.1-5.2,12.5c-1,2.7-1.8,5.1-2.3,7.2s-0.9,3.9-1.1,5.4c-0.2,1.5-0.4,2.6-0.6,3.4c-0.1,0.8-0.4,1.2-0.7,1.2
		c-1.9,0-7.7-5.1-6.6-9.2c0.4-1.6,1-3.5,1.8-5.8s1.6-4.8,2.6-7.5s2-5.3,3-7.8s1.9-4.8,2.8-7c0.9-2.1,1.5-3.7,2-4.9
		c0.8-2.1,1.5-3.9,1.9-5.4s0.7-2.8,0.9-3.8C286.2,187.5,286.2,186.5,286.1,185.7"/>
        <path class="st0" d="M213.9,177c2.1-0.5,4-0.9,5.8-0.9c1.8-0.1,3.2,0.3,4.2,1.1c0.4,0.3,0.6,0.9,0.6,1.8s-0.2,1.9-0.4,3
		c-0.3,1.1-0.6,2.3-1.1,3.5c-0.4,1.2-0.9,2.4-1.3,3.4c-0.5,1.1-0.9,2-1.2,2.8c-0.3,0.8-0.5,1.3-0.6,1.5c-0.3,0.6-0.3,0.9-0.1,0.9
		c0,0,0.1,0,0.3-0.1c1.2-1.7,2.7-3.6,4.5-5.4c1.8-1.9,3.6-3.6,5.4-5.2s3.6-2.8,5.2-3.8c1.7-1,3-1.4,4-1.3s1.6,0.6,1.8,1.5
		c0.1,0.9,0,1.9-0.3,3.1s-0.8,2.4-1.3,3.5c-0.6,1.1-1,2-1.4,2.6s-0.6,1-0.7,1.2s-0.1,0.4,0,0.5s0.2,0.1,0.5-0.1
		c2.7-3.8,5.1-6.7,7.2-8.6c2.2-1.9,4.1-3.2,5.7-3.9c1.6-0.7,2.9-0.9,3.9-0.6s1.7,0.7,2,1.3c0.2,0.4,0.3,1.1,0.1,2.1
		c-0.1,1-0.4,2.1-0.8,3.4c-0.4,1.3-0.9,2.6-1.4,4.1c-0.5,1.4-1.1,2.8-1.7,4.2c-0.6,1.3-1.1,2.5-1.6,3.6s-0.8,1.8-1,2.4
		c-0.4,0.8-0.8,1.8-1.2,2.9c-0.4,1.2-0.7,2.2-0.9,3.2c-0.1,0.9,0,1.6,0.4,2.1c0.4,0.4,1.3,0.3,2.6-0.3c0.9-0.4,1.8-1.3,2.7-2.6
		c1-1.3,1.9-2.7,2.7-4.2c1-1.7,1.9-3.6,2.9-5.6c0-0.2,0.1-0.4,0.3-0.6c0.3-0.3,0.6-0.4,0.9-0.3c0.3,0.1,0.5,0.3,0.6,0.4
		c0.1,0.2,0.1,0.4,0.1,0.6s-0.1,0.5-0.2,0.7c-1.8,3.6-3.5,6.4-4.9,8.6c-1.4,2.2-2.7,3.8-4,5c-1.2,1.2-2.5,1.9-3.7,2.3
		s-2.6,0.5-4.2,0.5c-1.5,0-2.7-0.2-3.6-0.6c-0.8-0.4-1.4-1-1.7-1.8c-0.3-0.8-0.3-1.8-0.1-3c0.2-1.2,0.5-2.7,1-4.3
		c0.5-1.6,1.1-3.3,1.8-4.9c0.7-1.6,1.3-3.1,1.9-4.5c0.6-1.3,1-2.4,1.2-3.3s0.1-1.4-0.4-1.5c-0.6-0.1-1.2,0-1.8,0.4
		c-0.6,0.4-1.3,1-1.9,1.7c-0.7,0.7-1.3,1.6-2,2.5c-0.7,1-1.3,2-1.9,3c-1.4,2.4-2.8,5.2-4.2,8.4c-0.5,0.1-1.1,0.1-1.6,0
		s-1-0.3-1.6-0.6c-0.6-0.3-1.2-0.8-1.7-1.6c-0.4-0.5-0.5-1.1-0.4-1.9s0.3-1.7,0.6-2.6c0.3-1,0.7-1.9,1.2-3c0.5-1,0.9-2,1.3-2.9
		s0.6-1.8,0.8-2.5c0.1-0.8,0.1-1.3-0.2-1.8c-0.3-0.4-0.8-0.5-1.4-0.2s-1.4,0.8-2.2,1.6c-0.8,0.8-1.7,1.8-2.6,3s-1.9,2.5-2.8,3.9
		s-1.8,2.9-2.6,4.5c-0.8,1.6-1.5,3.1-2.1,4.5c-0.5,1.4-0.9,2.5-1.1,3.5c-0.2,0.9-0.3,1.7-0.4,2.3c-0.1,0.7,0,1.2,0.1,1.7
		c-3.8,0.4-9.4-2.6-8.6-7c0.2-1,0.5-2.1,0.9-3.5c0.4-1.3,1-2.7,1.6-4.3c0.6-1.5,1.2-3,1.8-4.5c0.6-1.5,1.1-2.8,1.6-4.1
		c0.5-1.3,0.9-2.3,1.1-3.1c0.4-1.3,0.6-2.4,0.6-3.3c0-1-0.1-1.8-0.2-2.4C214.4,178.1,214.1,177.5,213.9,177"/>
        <path class="st0" d="M185.8,172.7c0.9-4.7-4.6-2.3-5.6-1.1c1.1-6.3,7.3-9,10.7-7.1c2,1.2,2.7,3.1,2.6,5.4
		c-0.2,4.5-3.4,11.7-4.5,16.7c1.3-1.4,2.9-2.8,4.8-4.2c1.9-1.4,3.8-2.5,5.7-3.4c1.9-0.9,3.6-1.3,5.2-1.4s2.7,0.5,3.4,1.8
		c0.6,1,0.7,2,0.4,3c-0.3,1-0.9,1.9-1.8,2.8c-1.9,1.9-6.3,5-8.9,2.9c0.5-0.6,0.8-1.3,1-2.1c0.1-0.7,0-1.2-0.4-1.5
		c-1.1-0.7-3.1,0.1-4.2,0.6c-2,1-3.7,2.4-5.1,4.1c-0.7,0.9-1.3,1.8-1.7,2.8c-0.9,2.6-1.5,4.7-2,6.4c-0.6,2.1-1.3,4.3-1.9,6.4
		c-0.4,1.2-0.8,2.9-0.5,4.2c0.2,0.7,0.4,1.2,0.5,1.4c-1.1,0.1-2.2,0-3.2-0.3c-0.9-0.2-1.7-0.6-2.6-1.2s-1.5-1.5-2-2.7
		c-0.2-0.5-0.3-1.7,0.3-3.5C179.2,192.8,184.5,179.6,185.8,172.7"/>
        <path class="st0" d="M198.7,212.1c-1.8-1.4-3.3-3-4.5-4.8s-2.2-3.6-2.9-5.4c-2.5-6.1-0.1-10.7-8-3.9c-0.3,0.2-0.5,0.5-0.8,0.7
		c-0.2-0.6-0.6-1.2-1.1-1.6c0.8-0.8,1.5-1.5,2.3-2.2c1.4-1.3,2.7-2.3,3.9-3.1c1.3-0.8,2.4-1.2,3.4-1.2s2,0.2,2.7,0.7
		c0.8,0.5,1.4,1,1.9,1.7c2.4,3.3,0.5,6.3,6.5,13.6c1.7,2,3.2,3.5,4.6,4.6c4.4,3.4,11.3,2.6,14.6,1.9c-0.2,1.1-1.5,2.2-3.4,2.7
		C211.1,217.9,204.5,216.6,198.7,212.1"/>
        <path class="st0" d="M325.3,143.5v0.5c-0.5,0.9-1.2,2-2.1,3.4c-1,1.4-2.1,2.7-3.3,4.1c-1.3,1.4-2.6,2.8-3.9,4.1
		c-1.4,1.3-2.6,2.4-3.8,3.2c-1.2,0.9-2.4,1.3-3.4,1.3s-2-0.2-2.8-0.6s-1.5-1-2-1.7s-0.9-1.3-1.1-1.9c-0.3-0.6-0.3-1.5-0.2-2.6
		s0.4-2.2,0.6-3.4c0.3-1.3,0.6-2.7,1.1-4.2c-0.4,0.8-1,1.6-1.7,2.5c-0.6,0.8-1.3,1.7-2.2,2.8c-0.9,1.1-1.9,2.3-3.1,3.6
		c-1.2,1.3-2.4,2.3-3.6,2.8c-1.2,0.5-2.2,0.9-3,1c-1.1,0.1-2.1,0.1-3-0.1c-1.8-0.4-3-1.2-3.6-2.5s-0.8-2.7-0.7-4.4
		c0.1-1.5,0.4-3.1,1-4.7c-0.5,0.6-1,1.2-1.6,1.8c-1.3,1.4-2.5,2.5-3.6,3.5c-1.2,0.9-2.3,1.4-3.3,1.5s-2-0.1-2.8-0.4
		c-0.8-0.4-1.5-0.9-2.1-1.6s-1-1.3-1.2-1.8c-0.3-0.6-0.4-1.5-0.3-2.6c0.1-1.1,0.2-2.3,0.4-3.4c0.2-1.3,0.5-2.8,0.9-4.3
		c-0.4,0.8-0.9,1.6-1.5,2.5c-0.5,0.8-1.2,1.8-2,2.9c-0.8,1.2-1.8,2.4-2.9,3.8c-1.1,1.4-2.3,2.4-3.4,3c-1.1,0.6-2.1,1-3,1.2
		c-1.1,0.2-2.1,0.2-3,0.1c-1.8-0.3-3-1-3.7-2.3c-0.7-1.2-1-2.7-0.9-4.4c0.1-1.7,0.3-3.6,1-5.5c1.9-5.7,5.9-11.8,7.3-17.1
		c0.2-1,0.4-2,0.4-3c0-1.4,0.4-1.7,1.8-1.6c2.4,0.2,6.4,4.6,5.6,8c-0.3,1.2-0.7,2.4-1.3,3.7c-0.6,1.3-1.2,2.5-1.8,3.7
		c-0.7,1.2-1.1,2.1-1.4,2.8c-0.3,0.7-0.7,1.5-1.2,2.5s-1,2-1.4,3s-0.7,1.9-0.9,2.8s-0.1,1.6,0.3,2c0.4,0.5,0.8,0.7,1.3,0.7
		s1-0.2,1.5-0.5s1-0.6,1.4-1s0.8-0.7,1-1c1.1-1.1,2.3-2.5,3.5-4.1c1.2-1.7,2.4-3.4,3.5-5.2c1.1-1.8,2.2-3.7,3.2-5.5s1.9-3.5,2.7-5
		s1.4-2.8,1.9-3.7c0.5-1,0.7-1.6,0.8-1.7c0.1-0.3,0.3-0.6,0.7-0.6c0.2,0,0.3,0,0.5,0.1c1.2,0.3,2.2,0.8,2.9,1.5s1.2,1.4,1.4,2.3
		c0.3,0.9,0.4,1.9,0.3,3c-0.1,1.1-0.2,2.1-0.5,3.2c-0.2,0.9-0.7,2.1-1.5,3.6s-1.6,3.2-2.5,5s-1.7,3.5-2.5,5.2s-1.3,3.1-1.5,4.3
		c-0.1,0.5-0.1,0.9,0.1,1.1c0.2,0.2,0.4,0.3,0.6,0.4c0.2,0,0.5,0,0.7,0c0.2-0.1,0.4-0.2,0.5-0.2c1.7-1,3.2-2.2,4.5-3.6
		c1.4-1.4,2.5-2.8,3.5-4.1c1-1.3,1.8-2.5,2.4-3.5c0.2-0.4,0.4-0.7,0.5-0.9c0.1-0.1,0.1-0.2,0.2-0.3c1.4-2.5,2.6-4.9,3.3-7.2
		c0.3-1,0.5-2,0.6-2.9c0.1-1.4,0.5-1.7,1.8-1.5c2.4,0.4,6.1,5,5.2,8.3c-0.3,1.1-0.8,2.3-1.5,3.6c-0.7,1.2-1.3,2.4-2.1,3.6
		c-0.7,1.1-1.2,2-1.6,2.7c-0.4,0.7-0.8,1.5-1.4,2.4s-1.1,1.9-1.5,2.9c-0.5,1-0.8,1.9-1.1,2.8c-0.2,0.9-0.2,1.5,0.2,2
		s0.8,0.8,1.2,0.7c0.5,0,1-0.1,1.5-0.4c0.5-0.2,1-0.5,1.4-0.9s0.8-0.7,1.1-0.9c1.2-1,2.5-2.3,3.7-3.9c1.3-1.6,2.5-3.3,3.8-5
		c1.2-1.8,2.4-3.5,3.5-5.3s2.1-3.4,3-4.8c0.9-1.5,1.6-2.7,2.1-3.6c0.5-1,0.8-1.5,0.9-1.7c0.1-0.3,0.3-0.5,0.7-0.6
		c0.2,0,0.3,0,0.4,0.1c1.2,0.4,2.1,1,2.8,1.6c0.6,0.7,1.1,1.5,1.3,2.4s0.2,1.9,0.1,3c-0.1,1.1-0.4,2.1-0.7,3.2
		c-0.3,0.8-0.9,2-1.7,3.6c-0.8,1.5-1.8,3.1-2.8,4.9c-1,1.7-1.9,3.4-2.8,5.1c-0.9,1.6-1.5,3-1.7,4.2c-0.1,0.5-0.1,0.9,0,1.1
		s0.3,0.3,0.6,0.4s0.5,0.1,0.8,0c0.2-0.1,0.4-0.1,0.6-0.2c1.7-0.9,3.3-2,4.7-3.4c1.4-1.3,2.7-2.6,3.8-3.9s1.9-2.4,2.6-3.4
		c0.6-1,1-1.5,1.1-1.6c0.3-0.5,0.8-0.7,1.3-0.7C325.2,143,325.3,143.1,325.3,143.5z"/>
        <path class="st0" d="M116.4,123.1c-0.7,0.4-1.9-0.5-2.5-0.1c-1.1,0.8-1.9,1.3-2.3,1.6c-0.6,0.4,0.4-1.2-0.2-2.1
		c-0.6-0.8-1.4-1.9-2.2-3.2c-0.2,0-0.5,0-0.7,0c-1.6,0.2-3.1,0.5-4.6,1s-2.8,1.1-3.9,1.8s-1.9,1.3-2.3,1.9c1.6-0.8,3.2-1.3,4.6-1.6
		c1.2-0.2,2.5-0.2,3.6,0.1c1.2,0.3,2,1.2,2.5,2.6c0.5,1.5,0.9,3.2,0.9,5.1c0.1,1.8,0,3.7-0.3,5.6s-0.7,3.7-1.3,5.5
		c-0.6,1.8-1.3,3.4-2.2,4.8c-0.8,1.5-1.8,2.7-2.8,3.6s-2,1.5-3.2,1.8c-1.1,0.2-1.9,0.1-2.6-0.5c-0.6-0.5-1-1.2-1.3-2.2
		c-0.3-0.9-0.5-2-0.5-3.2s0.1-2.4,0.2-3.6s0.3-2.3,0.5-3.4c0.2-1,0.4-1.8,0.6-2.4c0.2-0.8,0.5-1.7,0.8-2.6s0.7-1.8,1.1-2.6
		c0.5-0.9,1-1.8,1.6-2.6c0.6-0.8,1.4-1.7,2.3-2.4c-1.5-0.2-3-0.1-4.4,0.2c-0.6,0.2-1.2,0.4-1.9,0.8c-0.6,0.4-1.3,0.8-1.9,1.4
		s-1.2,1.3-1.8,2.1c-0.6,0.8-1.1,1.8-1.6,3c-0.6,1.5-1.1,2.9-1.5,4.2c-0.2,0.2-0.4,0.4-0.5,0.7c-0.1,0.1-0.3,0.8-0.6,1.9
		c-0.3,1.1-0.9,2.4-1.6,3.9s-1.6,3.1-2.6,4.8c-1,1.7-2.3,3.2-3.7,4.5c-0.1,0.1-0.3,0.2-0.5,0.4c-0.2,0.1-0.5,0.2-0.7,0.2
		c-0.3,0-0.5-0.1-0.7-0.2c-0.2-0.2-0.3-0.5-0.3-1c0-1.2,0.1-2.7,0.5-4.5s0.9-3.7,1.4-5.6s1-3.7,1.4-5.4c0.4-1.7,0.7-3,0.7-3.9
		c0-1.1,0-2.2-0.2-3.2c-0.2-1.1-0.5-2-0.9-2.8s-1.1-1.5-1.8-2c-0.8-0.5-1.8-0.8-3.1-0.8c-0.1,0-0.3,0-0.5,0
		c-0.3,0.1-0.5,0.4-0.5,0.8c0,0.2-0.1,0.8-0.4,1.9s-0.6,2.4-1.1,4s-1,3.5-1.6,5.5s-1.3,4-2,6s-1.5,4-2.3,5.8
		c-0.8,1.9-1.7,3.5-2.6,4.8c-0.2,0.3-0.5,0.7-0.8,1.2s-0.7,0.9-1.1,1.3s-0.9,0.6-1.3,0.8c-0.5,0.1-0.9,0-1.4-0.4s-0.7-1-0.7-1.9
		s0.1-1.9,0.3-3c0.2-1.1,0.4-2.1,0.7-3.2c0.3-1.1,0.5-2,0.7-2.7s0.4-1.7,0.8-3s0.7-2.6,1.1-4c0.3-1.4,0.5-2.7,0.5-3.8
		c0-3.5-4.8-6.9-7.2-6.6c-1.3,0.2-1.7,0.5-1.4,1.9c0.2,1,0.2,2,0.2,3c-0.2,5.5-2.9,12.3-3.6,18.2c-0.2,2-0.1,3.9,0.2,5.6
		c0,0.3,0.1,0.6,0.2,0.9c-0.7,1.2-1.5,2.4-2.4,3.6c-1.4,1.9-3.1,3.6-5.1,5.2s-4.3,2.7-6.9,3.5s-4.9,1-6.8,0.6
		c-1.9-0.4-3.6-1.2-4.9-2.4c-1.3-1.2-2.4-2.7-3.3-4.4c-0.8-1.7-1.5-3.6-2-5.4c-0.5-1.9-0.8-3.7-1-5.6c-0.2-1.8-0.3-3.4-0.3-4.7
		c0-1.3,0-2.7,0-4.4c0-1.7,0-3.5,0.2-5.3c0.1-1.9,0.3-3.8,0.7-5.8c0.3-2,0.8-4,1.4-6c5.9,2.5,13.8,3.5,20.6,2
		c6.9-1.5,17.8-8.3,12.2-16.5c-1-1.5-2.4-2.6-4.1-3.5s-3.8-1.4-6.1-1.6c-2.3-0.2-4.7,0-7.3,0.5c-2.5,0.5-5,1.4-7.6,2.7
		c-2.5,1.3-4.9,2.9-7.1,5c-0.6,0.5-1.2,1.1-1.7,1.7s-1,1.2-1.5,1.8c-3.1-1.4-6.5-3.4-10-3.3c-6.9,0.2-9.8,6.3-9,10
		c1-1.4,1.8-2.1,2.7-2.6c4.1-2.1,8.6,0.3,12.3,2.1c-1.5,2.8-2.5,5.7-3.3,8.7c-0.7,3-1.2,6-1.4,8.9c-0.2,2.9-0.2,5.8,0.1,8.5
		c0.2,2.8,0.6,5.3,1,7.6c0.6,3,1.7,5.7,3.3,8.2c1.6,2.5,3.6,4.4,6.1,5.8s5.3,2.3,8.5,2.5s6.8-0.4,10.6-1.8c2.6-0.9,4.8-2.3,6.8-4.1
		c2-1.8,3.7-3.7,5.2-5.9c0.6-0.8,1.1-1.6,1.6-2.4c0.1,0.1,0.1,0.1,0.2,0.2c0.9,1,2.3,1.5,4.1,1.5c0.9,0,1.9-0.3,2.9-0.7
		c0.8-0.4,1.7-1,2.7-1.8s1.9-2,2.7-3.6c0.8-1.6,1.5-3,2.1-4.3c0.5-1.3,1-2.4,1.3-3.3c0.4-1,0.7-2,1-2.8c0,1.6,0,3,0.1,4.4
		c0,1.2,0.1,2.3,0.3,3.4c0.2,1.1,0.4,1.9,0.8,2.5c0.4,0.5,0.9,1,1.6,1.5s1.5,0.9,2.4,1.1s1.8,0.1,2.8-0.2c1-0.3,2-1,2.9-2.2
		c0.9-1.1,1.9-2.5,2.8-4.1c1-1.6,1.9-3.3,2.7-5c0.1-0.3,0.3-0.5,0.4-0.8c-0.1,1.4,0,2.6,0.2,3.6c0.2,1.2,0.6,2.2,1.1,3
		c2.3,3.7,10.7,1.6,13.9,0.2c4.9-2.2,8.6-6.2,11.2-11.5c0.8-1.7,1.6-3.8,2.1-6c0.6-2.3,0.9-4.8,1-7.7
		C117.3,125.9,117,124.3,116.4,123.1z M26.3,117.2c0.8-1.1,1.7-2.1,2.7-3c2.4-2.2,4.7-3.6,6.8-4.1c2.1-0.5,4-0.5,5.5,0
		s2.7,1.4,3.5,2.6s1.1,2.4,0.9,3.7c-0.2,1.2-0.7,2.4-1.7,3.6c-0.9,1.2-2.1,2.2-3.5,2.9c-1.4,0.8-3,1.3-4.9,1.5
		c-1.8,0.2-3.8-0.1-5.8-0.8c-0.9-0.4-1.8-0.8-2.8-1.3s-2-1-3.1-1.6C24.8,119.4,25.5,118.2,26.3,117.2z"/>
        <path class="st0" d="M112.8,119.9c-1.1-0.4-2.3-0.6-3.6-0.5c-2.8-4-6.5-9.5-6.9-11.9c-0.3-2,0-3.6,0.7-4.9s1.8-2.4,3.1-3.3
		c1.3-0.9,2.8-1.6,4.5-2.1s3.4-1,5-1.4c1.7-0.4,3.2-0.9,4.7-1.6s2.8-1.4,3.9-2c1.3-0.8,2.5-1.5,3.6-2.3c0.5,2,0.5,3.7,0.3,5.1
		c-0.3,1.4-0.8,2.6-1.5,3.6s-1.6,1.8-2.6,2.4s-2,1.1-3,1.4c-3,1.1-5.4,1.3-8.2,3c-0.8,0.5-1.5,1.1-2,1.9c-0.6,0.8-0.9,1.7-0.9,2.8
		c0.2,5.3,4.6,8.4,6.5,13.1l0,0c-0.1-0.2-0.2-0.4-0.3-0.6C115.2,121.3,114.1,120.4,112.8,119.9z"/>
        <path class="st0" d="M299.3,119.3c7.6,0.6,16.3-3.3,19.4-6.6c3.5,5.6,1,8.4-3.1,9.8c-2,0.7-10.1,2.1-12.1,1.5
		C301.5,123.4,300.1,121.1,299.3,119.3z"/>
</g>
</svg>
